<?xml version="1.0" encoding="UTF-8"?>
<svg xmlns="http://www.w3.org/2000/svg" xmlns:xlink="http://www.w3.org/1999/xlink" width="px" height="px" viewBox="0 0 70 68" version="1.1">
<g id="surface1">
<path style=" stroke:none;fill-rule:nonzero;fill:rgb(95.686275%,71.372549%,57.647059%);fill-opacity:1;" d="M 6.449219 41.050781 C 2.460938 43.691406 2.125 49.84375 4.578125 53.964844 C 7.03125 58.085938 11.449219 60.578125 15.804688 62.542969 C 21.710938 65.21875 27.949219 67.296875 34.398438 67.855469 C 40.847656 68.414062 47.542969 67.375 53.160156 64.140625 C 63.566406 58.152344 68.726562 45.636719 69.773438 33.609375 C 70.210938 28.523438 70.042969 23.316406 68.527344 18.449219 C 67.015625 13.582031 64.066406 9.046875 59.800781 6.296875 C 57.511719 4.820312 54.691406 3.871094 52.078125 4.621094 C 49.378906 5.394531 47.421875 7.882812 46.566406 10.570312 C 45.707031 13.261719 45.789062 16.15625 45.992188 18.972656 C 46.199219 21.800781 45.882812 25.570312 43.128906 26.160156 C 40.816406 26.652344 39 24.332031 37.371094 22.601562 C 34.46875 19.519531 30.085938 17.667969 25.957031 18.519531 C 21.824219 19.371094 18.324219 23.320312 18.640625 27.558594 C 18.9375 31.488281 22.0625 34.492188 24.398438 37.660156 C 25.097656 38.605469 25.765625 39.753906 25.492188 40.898438 C 24.921875 43.28125 18.378906 40.703125 16.628906 40.375 C 13.246094 39.746094 9.53125 39.007812 6.449219 41.046875 Z M 6.449219 41.050781 "/>
<path style=" stroke:none;fill-rule:nonzero;fill:rgb(2.352941%,18.039216%,19.607843%);fill-opacity:1;" d="M 23.761719 1.332031 C 24.695312 1.332031 25.457031 2.097656 25.457031 3.039062 C 25.457031 3.980469 24.695312 4.746094 23.761719 4.746094 C 22.828125 4.746094 22.070312 3.980469 22.070312 3.039062 C 22.070312 2.097656 22.828125 1.332031 23.761719 1.332031 Z M 23.761719 1.332031 "/>
<path style=" stroke:none;fill-rule:nonzero;fill:rgb(2.352941%,18.039216%,19.607843%);fill-opacity:1;" d="M 17.589844 0.179688 C 18.421875 -0.242188 19.441406 0.101562 19.855469 0.941406 C 20.277344 1.78125 19.9375 2.808594 19.101562 3.226562 C 18.265625 3.648438 17.25 3.304688 16.832031 2.464844 C 16.417969 1.625 16.753906 0.597656 17.589844 0.179688 Z M 17.589844 0.179688 "/>
<path style=" stroke:none;fill-rule:nonzero;fill:rgb(2.352941%,18.039216%,19.607843%);fill-opacity:1;" d="M 20.210938 7.238281 C 20.628906 6.394531 21.644531 6.054688 22.480469 6.476562 C 23.3125 6.898438 23.652344 7.921875 23.234375 8.761719 C 22.8125 9.601562 21.800781 9.945312 20.964844 9.523438 C 20.128906 9.097656 19.792969 8.078125 20.210938 7.238281 Z M 20.210938 7.238281 "/>
<path style=" stroke:none;fill-rule:nonzero;fill:rgb(2.352941%,18.039216%,19.607843%);fill-opacity:1;" d="M 13.644531 5.195312 C 14.304688 4.53125 15.378906 4.53125 16.039062 5.195312 C 16.699219 5.859375 16.699219 6.941406 16.039062 7.605469 C 15.378906 8.269531 14.304688 8.269531 13.644531 7.605469 C 12.988281 6.941406 12.988281 5.859375 13.644531 5.195312 Z M 13.644531 5.195312 "/>
<path style=" stroke:none;fill-rule:nonzero;fill:rgb(2.352941%,18.039216%,19.607843%);fill-opacity:1;" d="M 16.472656 11.792969 C 16.992188 11.007812 18.042969 10.792969 18.820312 11.316406 C 19.601562 11.839844 19.8125 12.898438 19.292969 13.683594 C 18.773438 14.46875 17.722656 14.679688 16.945312 14.15625 C 16.164062 13.632812 15.953125 12.578125 16.472656 11.792969 Z M 16.472656 11.792969 "/>
<path style=" stroke:none;fill-rule:nonzero;fill:rgb(2.352941%,18.039216%,19.607843%);fill-opacity:1;" d="M 12.707031 10.929688 C 12.707031 11.871094 11.949219 12.636719 11.015625 12.636719 C 10.078125 12.636719 9.320312 11.871094 9.320312 10.929688 C 9.320312 9.988281 10.078125 9.226562 11.015625 9.226562 C 11.949219 9.226562 12.707031 9.988281 12.707031 10.929688 Z M 12.707031 10.929688 "/>
<path style=" stroke:none;fill-rule:nonzero;fill:rgb(2.352941%,18.039216%,19.607843%);fill-opacity:1;" d="M 11.566406 16.464844 C 12.152344 15.730469 13.21875 15.609375 13.945312 16.199219 C 14.675781 16.789062 14.796875 17.859375 14.210938 18.59375 C 13.625 19.328125 12.5625 19.449219 11.832031 18.863281 C 11.105469 18.273438 10.984375 17.203125 11.566406 16.464844 Z M 11.566406 16.464844 "/>
<path style=" stroke:none;fill-rule:nonzero;fill:rgb(2.352941%,18.039216%,19.607843%);fill-opacity:1;" d="M 5.113281 16.230469 C 5.699219 15.496094 6.761719 15.375 7.492188 15.964844 C 8.222656 16.550781 8.339844 17.625 7.757812 18.359375 C 7.171875 19.09375 6.109375 19.214844 5.378906 18.625 C 4.648438 18.035156 4.53125 16.964844 5.113281 16.230469 Z M 5.113281 16.230469 "/>
<path style=" stroke:none;fill-rule:nonzero;fill:rgb(2.352941%,18.039216%,19.607843%);fill-opacity:1;" d="M 6.644531 22.625 C 7.226562 21.890625 8.292969 21.769531 9.019531 22.359375 C 9.75 22.949219 9.871094 24.019531 9.285156 24.753906 C 8.699219 25.488281 7.636719 25.609375 6.90625 25.023438 C 6.179688 24.433594 6.058594 23.359375 6.644531 22.625 Z M 6.644531 22.625 "/>
<path style=" stroke:none;fill-rule:nonzero;fill:rgb(2.352941%,18.039216%,19.607843%);fill-opacity:1;" d="M 0.382812 22.824219 C 0.96875 22.089844 2.03125 21.96875 2.761719 22.554688 C 3.492188 23.144531 3.609375 24.214844 3.027344 24.953125 C 2.441406 25.6875 1.378906 25.808594 0.648438 25.21875 C -0.0820312 24.628906 -0.203125 23.558594 0.382812 22.824219 Z M 0.382812 22.824219 "/>
<path style=" stroke:none;fill-rule:nonzero;fill:rgb(2.352941%,18.039216%,19.607843%);fill-opacity:1;" d="M 0.382812 28.238281 C 0.941406 27.484375 2.007812 27.332031 2.75 27.894531 C 3.496094 28.460938 3.648438 29.53125 3.089844 30.28125 C 2.53125 31.035156 1.46875 31.1875 0.722656 30.625 C -0.0273438 30.058594 -0.175781 28.988281 0.382812 28.238281 Z M 0.382812 28.238281 "/>
</g>
</svg>
