<?xml version="1.0" encoding="UTF-8"?>
<svg xmlns="http://www.w3.org/2000/svg" xmlns:xlink="http://www.w3.org/1999/xlink" width="px" height="px" viewBox="0 0 72 73" version="1.1">
<g id="surface1">
<path style=" stroke:none;fill-rule:nonzero;fill:rgb(54.117647%,65.882353%,55.686275%);fill-opacity:1;" d="M 64.234375 35.527344 C 64.234375 35.527344 64.179688 35.535156 64.007812 35.5625 C 64.082031 35.554688 64.160156 35.542969 64.234375 35.527344 Z M 54.097656 41.046875 C 54.097656 41.046875 54.121094 41.046875 54.277344 41.023438 C 54.21875 41.03125 54.15625 41.042969 54.101562 41.046875 Z M 71.992188 36.851562 C 71.914062 35.976562 71.554688 35.277344 70.796875 34.804688 C 70.742188 34.769531 70.679688 34.738281 70.625 34.714844 C 69.800781 33.929688 68.210938 34.050781 67.46875 34.859375 C 67.4375 34.894531 67.417969 34.929688 67.386719 34.960938 C 67.03125 35.039062 66.679688 35.121094 66.320312 35.183594 C 65.789062 35.285156 65.253906 35.375 64.71875 35.457031 C 64.554688 35.484375 64.394531 35.503906 64.234375 35.527344 C 64.234375 35.527344 64.070312 35.554688 64.007812 35.5625 C 63.800781 35.589844 63.601562 35.613281 63.394531 35.636719 C 61.21875 35.898438 59.023438 36.042969 56.832031 36.148438 C 54.304688 36.269531 51.8125 36.730469 49.320312 37.125 C 49.035156 37.171875 48.753906 37.214844 48.464844 37.257812 C 48.386719 37.265625 48.308594 37.277344 48.230469 37.292969 C 48.34375 37.277344 48.449219 37.257812 48.164062 37.300781 C 48.179688 37.300781 48.195312 37.300781 48.210938 37.296875 C 48.1875 37.296875 48.164062 37.300781 48.144531 37.304688 C 48.152344 37.304688 48.152344 37.304688 48.164062 37.304688 C 48.148438 37.304688 48.132812 37.304688 48.125 37.3125 C 47.476562 37.390625 46.820312 37.457031 46.167969 37.5 C 45.839844 37.519531 45.515625 37.535156 45.1875 37.546875 C 48.195312 36.402344 51.226562 35.308594 54.292969 34.324219 C 56.617188 33.578125 59.011719 32.96875 61.199219 31.867188 C 62.082031 31.425781 62.867188 30.820312 63.679688 30.269531 C 64.070312 30.011719 64.460938 29.761719 64.875 29.546875 C 64.898438 29.53125 65 29.472656 65.078125 29.433594 C 65.109375 29.421875 65.144531 29.410156 65.191406 29.398438 C 65.441406 29.308594 65.703125 29.242188 65.964844 29.1875 C 67.167969 28.9375 67.96875 27.46875 67.597656 26.324219 C 67.1875 25.066406 66.003906 24.433594 64.71875 24.703125 C 62.828125 25.097656 61.378906 26.269531 59.804688 27.285156 C 59.441406 27.519531 59.070312 27.738281 58.679688 27.921875 C 58.523438 28 58.355469 28.070312 58.195312 28.136719 C 58.148438 28.160156 58.09375 28.179688 58.070312 28.1875 C 57.902344 28.25 57.738281 28.316406 57.578125 28.378906 C 56.617188 28.738281 55.632812 29.039062 54.652344 29.335938 C 52.710938 29.929688 50.785156 30.585938 48.867188 31.269531 C 50.402344 29.742188 51.964844 28.226562 53.398438 26.617188 C 54.921875 24.902344 56.351562 23.113281 57.902344 21.425781 C 58.679688 20.589844 59.472656 19.769531 60.335938 19.019531 C 60.457031 18.914062 60.871094 18.671875 60.957031 18.515625 C 61.027344 18.464844 61.101562 18.410156 61.175781 18.359375 C 61.566406 18.101562 61.964844 17.867188 62.394531 17.671875 C 63.511719 17.167969 63.871094 15.46875 63.234375 14.492188 C 62.488281 13.34375 61.226562 13.117188 60.03125 13.65625 C 58.28125 14.445312 56.789062 15.859375 55.464844 17.21875 C 54 18.714844 52.667969 20.328125 51.3125 21.917969 C 49.964844 23.5 48.53125 24.96875 47.066406 26.445312 C 46.957031 26.558594 46.839844 26.675781 46.730469 26.789062 C 47.289062 25.242188 47.796875 23.675781 48.265625 22.085938 C 49.667969 17.335938 50.777344 12.503906 52.117188 7.734375 C 52.441406 6.566406 51.707031 5.152344 50.480469 4.875 C 49.238281 4.59375 47.953125 5.242188 47.601562 6.496094 C 46.425781 10.6875 45.429688 14.921875 44.25 19.105469 C 43.652344 21.222656 43.015625 23.328125 42.285156 25.40625 C 41.917969 26.449219 41.527344 27.484375 41.109375 28.507812 C 41.070312 28.609375 41.027344 28.703125 40.988281 28.800781 C 40.984375 28.8125 40.976562 28.824219 40.972656 28.835938 C 40.871094 29.070312 40.773438 29.300781 40.667969 29.53125 C 40.445312 30.019531 40.214844 30.503906 39.972656 30.988281 C 39.820312 31.292969 39.664062 31.597656 39.511719 31.902344 C 39.511719 31.683594 39.511719 31.46875 39.515625 31.25 C 39.589844 26.621094 39.710938 21.992188 39.535156 17.363281 C 39.34375 12.339844 38.28125 7.359375 38.4375 2.328125 C 38.480469 1.109375 37.332031 -0.0546875 36.09375 0 C 34.792969 0.0585938 33.792969 1.023438 33.753906 2.328125 C 33.613281 6.796875 34.5 11.199219 34.769531 15.644531 C 35.042969 20.257812 34.9375 24.894531 34.859375 29.511719 C 34.847656 30.054688 34.84375 30.605469 34.832031 31.148438 C 32.984375 26.964844 30.640625 23.023438 28.582031 18.941406 C 28.292969 18.367188 28.011719 17.785156 27.734375 17.207031 C 27.613281 16.949219 27.492188 16.691406 27.371094 16.433594 C 27.3125 16.304688 27.25 16.175781 27.195312 16.042969 C 27.183594 16.019531 27.09375 15.8125 27.054688 15.71875 C 26.628906 14.65625 26.253906 13.566406 25.894531 12.480469 C 25.113281 10.117188 24.324219 7.710938 22.976562 5.597656 C 22.316406 4.574219 20.863281 4.066406 19.773438 4.765625 C 18.742188 5.421875 18.230469 6.847656 18.933594 7.945312 C 19.214844 8.378906 19.472656 8.828125 19.707031 9.292969 C 19.808594 9.496094 19.910156 9.703125 20.003906 9.90625 C 20.058594 10.023438 20.109375 10.140625 20.160156 10.257812 C 20.171875 10.28125 20.175781 10.300781 20.191406 10.339844 C 20.574219 11.332031 20.917969 12.328125 21.25 13.332031 C 21.976562 15.53125 22.78125 17.660156 23.78125 19.75 C 25.761719 23.890625 28.128906 27.839844 30.097656 31.988281 C 30.28125 32.371094 30.457031 32.765625 30.628906 33.15625 C 30.613281 33.148438 30.597656 33.136719 30.585938 33.125 C 29.582031 32.453125 28.589844 31.777344 27.617188 31.066406 C 27.386719 30.894531 27.15625 30.71875 26.921875 30.550781 C 26.898438 30.535156 26.796875 30.457031 26.734375 30.40625 C 26.664062 30.351562 26.5625 30.277344 26.542969 30.253906 C 26.058594 29.882812 25.582031 29.5 25.101562 29.117188 C 23.101562 27.503906 21.125 25.851562 19.0625 24.3125 C 18.542969 23.925781 18.007812 23.550781 17.476562 23.167969 C 17.304688 23.046875 17.132812 22.921875 16.960938 22.789062 C 16.855469 22.699219 16.730469 22.617188 16.625 22.527344 C 15.746094 21.832031 14.890625 21.113281 14.019531 20.410156 C 12.382812 19.074219 10.683594 17.570312 8.722656 16.722656 C 7.597656 16.238281 6.15625 16.359375 5.519531 17.558594 C 4.984375 18.5625 5.160156 20.21875 6.359375 20.738281 C 7.097656 21.058594 7.78125 21.492188 8.4375 21.953125 C 8.800781 22.207031 9.171875 22.460938 9.515625 22.742188 C 9.066406 22.375 9.609375 22.820312 9.730469 22.914062 C 9.96875 23.101562 10.199219 23.285156 10.429688 23.472656 C 12.019531 24.757812 13.566406 26.089844 15.234375 27.269531 C 15.726562 27.617188 16.21875 27.96875 16.699219 28.328125 C 16.816406 28.414062 16.933594 28.503906 17.046875 28.585938 C 17.066406 28.601562 17.113281 28.636719 17.160156 28.671875 C 17.390625 28.851562 17.625 29.039062 17.859375 29.21875 C 18.816406 29.976562 19.761719 30.75 20.707031 31.523438 C 21.046875 31.796875 21.378906 32.066406 21.714844 32.339844 C 20.527344 32.003906 19.339844 31.671875 18.152344 31.339844 C 15.464844 30.582031 12.773438 29.800781 10.152344 28.832031 C 9.53125 28.601562 8.917969 28.359375 8.304688 28.113281 C 8.292969 28.109375 8.285156 28.101562 8.269531 28.097656 C 8.105469 28.027344 7.941406 27.957031 7.78125 27.882812 C 7.484375 27.753906 7.191406 27.617188 6.902344 27.480469 C 5.75 26.929688 4.632812 26.316406 3.566406 25.613281 C 2.539062 24.9375 0.933594 25.378906 0.363281 26.445312 C -0.253906 27.613281 0.113281 28.90625 1.203125 29.625 C 5.386719 32.371094 10.316406 33.921875 15.085938 35.304688 C 16.132812 35.609375 17.179688 35.898438 18.222656 36.1875 C 16.9375 36.199219 15.648438 36.207031 14.367188 36.171875 C 12.210938 36.109375 10.054688 35.992188 7.894531 36.042969 C 5.859375 36.09375 3.667969 36.21875 1.765625 36.996094 C 0.640625 37.457031 -0.289062 38.558594 0.132812 39.859375 C 0.484375 40.9375 1.800781 41.980469 3.011719 41.480469 C 3.742188 41.179688 4.507812 41 5.285156 40.875 C 5.328125 40.871094 5.355469 40.867188 5.386719 40.863281 C 5.597656 40.835938 5.808594 40.816406 6.019531 40.796875 C 6.503906 40.757812 6.980469 40.726562 7.464844 40.710938 C 9.378906 40.640625 11.289062 40.722656 13.207031 40.792969 C 16.972656 40.925781 20.742188 40.832031 24.515625 40.898438 C 24.144531 41.042969 23.769531 41.195312 23.394531 41.335938 C 21.417969 42.089844 19.417969 42.757812 17.433594 43.5 C 15.296875 44.296875 13.175781 45.140625 10.992188 45.804688 C 9.917969 46.128906 8.828125 46.414062 7.714844 46.613281 C 7.507812 46.648438 7.304688 46.683594 7.097656 46.714844 C 7.046875 46.714844 6.675781 46.757812 6.558594 46.769531 C 5.976562 46.820312 5.386719 46.835938 4.796875 46.824219 C 3.570312 46.800781 2.398438 47.914062 2.457031 49.152344 C 2.515625 50.433594 3.484375 51.449219 4.796875 51.476562 C 9.015625 51.574219 13.070312 50.109375 16.957031 48.636719 C 19.355469 47.726562 21.765625 46.859375 24.164062 45.964844 C 22.117188 47.617188 20.105469 49.3125 18.203125 51.128906 C 16.707031 52.566406 15.210938 54.015625 13.609375 55.339844 C 13.425781 55.488281 13.246094 55.628906 13.066406 55.777344 C 12.988281 55.832031 12.914062 55.890625 12.839844 55.945312 C 12.492188 56.195312 12.140625 56.441406 11.773438 56.65625 C 11.617188 56.75 11.460938 56.839844 11.296875 56.921875 C 11.261719 56.941406 11.226562 56.957031 11.191406 56.972656 C 11.089844 57.003906 10.992188 57.046875 10.894531 57.070312 C 10.867188 57.074219 10.847656 57.085938 10.828125 57.089844 C 9.667969 57.226562 8.585938 58.15625 8.640625 59.402344 C 8.695312 60.605469 9.671875 61.800781 10.984375 61.730469 C 12.667969 61.636719 14.144531 60.757812 15.457031 59.765625 C 17.039062 58.578125 18.507812 57.269531 19.9375 55.917969 C 21.1875 54.738281 22.402344 53.519531 23.683594 52.375 C 25.519531 50.742188 27.503906 49.25 29.414062 47.707031 C 30.1875 47.078125 30.964844 46.453125 31.746094 45.832031 C 29.855469 49.144531 28.015625 52.492188 26.386719 55.957031 C 25.449219 57.949219 24.515625 59.941406 23.503906 61.894531 C 23 62.863281 22.484375 63.820312 21.925781 64.761719 C 21.6875 65.15625 21.441406 65.550781 21.1875 65.929688 C 21.054688 66.125 20.917969 66.320312 20.785156 66.507812 C 20.75 66.554688 20.71875 66.597656 20.683594 66.644531 C 20.683594 66.644531 20.683594 66.644531 20.679688 66.648438 C 19.910156 67.59375 19.679688 69.023438 20.679688 69.9375 C 21.535156 70.71875 23.167969 70.949219 23.992188 69.9375 C 26.457031 66.90625 28.089844 63.269531 29.746094 59.765625 C 31.273438 56.53125 32.878906 53.355469 34.597656 50.226562 C 34.546875 52.472656 34.476562 54.722656 34.375 56.972656 C 34.175781 61.539062 32.847656 66.09375 33.414062 70.6875 C 33.566406 71.890625 34.386719 73.074219 35.757812 73.015625 C 36.898438 72.964844 38.257812 71.980469 38.101562 70.6875 C 37.597656 66.597656 38.609375 62.519531 38.964844 58.457031 C 39.164062 56.261719 39.183594 54.039062 39.253906 51.832031 C 39.269531 51.3125 39.285156 50.792969 39.292969 50.269531 C 40.375 52.246094 41.429688 54.246094 42.402344 56.28125 C 42.652344 56.8125 42.898438 57.339844 43.128906 57.875 C 43.160156 57.953125 43.296875 58.277344 43.332031 58.367188 C 43.453125 58.683594 43.566406 59 43.683594 59.3125 C 44.089844 60.460938 44.449219 61.625 44.808594 62.785156 C 45.554688 65.179688 46.328125 67.582031 47.503906 69.808594 C 48.074219 70.886719 49.675781 71.300781 50.707031 70.644531 C 51.8125 69.933594 52.15625 68.617188 51.546875 67.460938 C 51.332031 67.054688 51.136719 66.636719 50.945312 66.21875 C 50.929688 66.179688 50.8125 65.914062 50.773438 65.8125 C 50.664062 65.539062 50.558594 65.261719 50.457031 64.984375 C 50.089844 63.980469 49.761719 62.957031 49.445312 61.933594 C 48.765625 59.746094 48.082031 57.570312 47.152344 55.46875 C 45.910156 52.652344 44.453125 49.929688 42.964844 47.230469 C 43.101562 47.339844 43.242188 47.441406 43.375 47.554688 C 45.226562 49.035156 46.996094 50.609375 48.675781 52.28125 C 51.980469 55.5625 55.222656 59.011719 59.011719 61.753906 C 60.003906 62.472656 61.664062 61.953125 62.214844 60.921875 C 62.855469 59.710938 62.433594 58.503906 61.375 57.738281 C 61.316406 57.699219 61.234375 57.621094 61.148438 57.546875 C 61.148438 57.566406 61.117188 57.554688 61.03125 57.484375 C 60.996094 57.460938 60.964844 57.429688 60.929688 57.40625 C 60.925781 57.40625 60.921875 57.398438 60.914062 57.394531 C 60.914062 57.394531 60.921875 57.394531 60.925781 57.394531 C 60.878906 57.359375 60.835938 57.320312 60.785156 57.285156 C 60.398438 56.976562 60.015625 56.652344 59.644531 56.328125 C 58.859375 55.648438 58.09375 54.949219 57.339844 54.234375 C 55.796875 52.78125 54.292969 51.285156 52.796875 49.785156 C 51.878906 48.871094 50.945312 47.988281 49.992188 47.125 C 50.894531 47.398438 51.789062 47.6875 52.660156 48.027344 C 52.976562 48.152344 53.289062 48.277344 53.605469 48.40625 C 53.78125 48.476562 53.953125 48.550781 54.121094 48.621094 C 54.1875 48.648438 54.253906 48.675781 54.320312 48.703125 C 55.097656 49.03125 55.878906 49.359375 56.660156 49.695312 C 58.550781 50.5 60.441406 51.316406 62.363281 52.042969 C 63.808594 52.585938 65.382812 53.230469 66.878906 52.515625 C 67.984375 51.988281 68.367188 50.328125 67.71875 49.335938 C 67.222656 48.570312 66.46875 48.207031 65.664062 48.226562 C 65.535156 48.199219 65.40625 48.171875 65.28125 48.132812 C 64.695312 47.96875 64.125 47.753906 63.554688 47.539062 C 62.851562 47.273438 62.152344 46.988281 61.457031 46.703125 C 61.257812 46.625 61.0625 46.539062 60.859375 46.453125 C 60.800781 46.429688 60.734375 46.40625 60.675781 46.375 C 60.265625 46.203125 59.859375 46.03125 59.453125 45.859375 C 57.804688 45.160156 56.160156 44.445312 54.496094 43.777344 C 52.878906 43.128906 51.210938 42.675781 49.550781 42.140625 C 49.273438 42.050781 49 41.957031 48.722656 41.867188 C 49.769531 41.726562 50.808594 41.566406 51.855469 41.394531 C 52.421875 41.300781 52.992188 41.207031 53.558594 41.121094 C 53.742188 41.089844 53.925781 41.066406 54.105469 41.042969 C 54.128906 41.042969 54.21875 41.027344 54.285156 41.015625 L 54.304688 41.015625 C 54.304688 41.015625 54.292969 41.015625 54.285156 41.015625 C 54.296875 41.015625 54.3125 41.015625 54.324219 41.011719 C 54.539062 40.988281 54.757812 40.957031 54.972656 40.9375 C 57.425781 40.671875 59.898438 40.652344 62.355469 40.402344 C 64.863281 40.144531 67.378906 39.792969 69.820312 39.164062 C 70.949219 39.035156 72.105469 38.085938 71.992188 36.851562 Z M 60.835938 18.589844 C 60.835938 18.589844 60.878906 18.5625 60.90625 18.539062 C 60.789062 18.628906 60.589844 18.765625 60.835938 18.589844 Z M 16.917969 22.761719 C 16.664062 22.574219 16.832031 22.695312 16.941406 22.78125 C 16.933594 22.773438 16.925781 22.769531 16.917969 22.761719 Z M 11.09375 57.003906 C 11.019531 57.046875 10.984375 57.0625 10.964844 57.070312 C 10.964844 57.070312 10.964844 57.070312 10.957031 57.070312 C 10.988281 57.054688 11.0625 57.015625 11.140625 56.980469 C 11.125 56.992188 11.109375 56.996094 11.09375 57.003906 Z M 65.410156 48.226562 C 65.410156 48.226562 65.402344 48.230469 65.410156 48.238281 C 65.109375 48.273438 64.804688 48.363281 64.5 48.507812 C 64.914062 48.308594 65.023438 48.253906 65.410156 48.226562 Z M 69.648438 34.535156 L 69.65625 34.535156 C 69.816406 34.554688 69.980469 34.574219 70.144531 34.601562 C 69.976562 34.578125 69.816406 34.554688 69.648438 34.535156 Z M 61.136719 57.535156 C 61.136719 57.503906 61.042969 57.421875 60.914062 57.394531 C 60.914062 57.394531 60.914062 57.394531 60.921875 57.394531 C 60.980469 57.414062 61.0625 57.464844 61.136719 57.535156 Z M 61.136719 57.535156 "/>
<path style=" stroke:none;fill-rule:nonzero;fill:rgb(94.117647%,75.686275%,36.470588%);fill-opacity:1;" d="M 51.035156 32.84375 C 51.976562 32.84375 52.738281 33.601562 52.738281 34.535156 C 52.738281 35.46875 51.976562 36.226562 51.035156 36.226562 C 50.09375 36.226562 49.332031 35.46875 49.332031 34.535156 C 49.332031 33.601562 50.09375 32.84375 51.035156 32.84375 Z M 51.035156 32.84375 "/>
<path style=" stroke:none;fill-rule:nonzero;fill:rgb(94.117647%,75.686275%,36.470588%);fill-opacity:1;" d="M 49.25 28.222656 C 50.191406 28.222656 50.953125 28.980469 50.953125 29.917969 C 50.953125 30.851562 50.191406 31.609375 49.25 31.609375 C 48.308594 31.609375 47.546875 30.851562 47.546875 29.917969 C 47.546875 28.980469 48.308594 28.222656 49.25 28.222656 Z M 49.25 28.222656 "/>
<path style=" stroke:none;fill-rule:nonzero;fill:rgb(94.117647%,75.686275%,36.470588%);fill-opacity:1;" d="M 45.183594 25.523438 C 46.121094 25.523438 46.886719 26.28125 46.886719 27.214844 C 46.886719 28.148438 46.121094 28.90625 45.183594 28.90625 C 44.242188 28.90625 43.476562 28.148438 43.476562 27.214844 C 43.476562 26.28125 44.242188 25.523438 45.183594 25.523438 Z M 45.183594 25.523438 "/>
<path style=" stroke:none;fill-rule:nonzero;fill:rgb(94.117647%,75.686275%,36.470588%);fill-opacity:1;" d="M 48.511719 37.921875 C 48.511719 38.855469 47.746094 39.613281 46.804688 39.613281 C 45.863281 39.613281 45.101562 38.855469 45.101562 37.921875 C 45.101562 36.984375 45.863281 36.226562 46.804688 36.226562 C 47.746094 36.226562 48.511719 36.984375 48.511719 37.921875 Z M 48.511719 37.921875 "/>
<path style=" stroke:none;fill-rule:nonzero;fill:rgb(94.117647%,75.686275%,36.470588%);fill-opacity:1;" d="M 39.792969 24.3125 C 40.730469 24.3125 41.496094 25.074219 41.496094 26.007812 C 41.496094 26.941406 40.730469 27.699219 39.792969 27.699219 C 38.851562 27.699219 38.085938 26.941406 38.085938 26.007812 C 38.085938 25.074219 38.851562 24.3125 39.792969 24.3125 Z M 39.792969 24.3125 "/>
<path style=" stroke:none;fill-rule:nonzero;fill:rgb(94.117647%,75.686275%,36.470588%);fill-opacity:1;" d="M 44.574219 33.507812 C 44.574219 34.441406 43.808594 35.199219 42.867188 35.199219 C 41.925781 35.199219 41.164062 34.441406 41.164062 33.507812 C 41.164062 32.570312 41.925781 31.8125 42.867188 31.8125 C 43.808594 31.8125 44.574219 32.570312 44.574219 33.507812 Z M 44.574219 33.507812 "/>
<path style=" stroke:none;fill-rule:nonzero;fill:rgb(94.117647%,75.686275%,36.470588%);fill-opacity:1;" d="M 37.351562 29.355469 C 38.191406 28.9375 39.21875 29.277344 39.636719 30.109375 C 40.058594 30.945312 39.714844 31.964844 38.875 32.378906 C 38.035156 32.796875 37.011719 32.457031 36.59375 31.625 C 36.171875 30.789062 36.511719 29.769531 37.351562 29.355469 Z M 37.351562 29.355469 "/>
<path style=" stroke:none;fill-rule:nonzero;fill:rgb(94.117647%,75.686275%,36.470588%);fill-opacity:1;" d="M 39.761719 37.535156 C 40.601562 37.117188 41.625 37.457031 42.042969 38.289062 C 42.464844 39.125 42.125 40.144531 41.285156 40.558594 C 40.445312 40.976562 39.417969 40.636719 39.003906 39.804688 C 38.585938 38.96875 38.921875 37.949219 39.761719 37.535156 Z M 39.761719 37.535156 "/>
<path style=" stroke:none;fill-rule:nonzero;fill:rgb(94.117647%,75.686275%,36.470588%);fill-opacity:1;" d="M 30.484375 27.28125 C 31.324219 26.859375 32.347656 27.199219 32.765625 28.035156 C 33.183594 28.867188 32.847656 29.886719 32.007812 30.300781 C 31.167969 30.71875 30.140625 30.378906 29.722656 29.546875 C 29.300781 28.710938 29.644531 27.695312 30.484375 27.28125 Z M 30.484375 27.28125 "/>
<path style=" stroke:none;fill-rule:nonzero;fill:rgb(94.117647%,75.686275%,36.470588%);fill-opacity:1;" d="M 31.390625 32.316406 C 32.050781 31.660156 33.132812 31.660156 33.796875 32.316406 C 34.460938 32.976562 34.460938 34.050781 33.796875 34.710938 C 33.132812 35.367188 32.050781 35.367188 31.390625 34.710938 C 30.726562 34.050781 30.726562 32.976562 31.390625 32.316406 Z M 31.390625 32.316406 "/>
<path style=" stroke:none;fill-rule:nonzero;fill:rgb(94.117647%,75.686275%,36.470588%);fill-opacity:1;" d="M 36.1875 38.566406 C 36.1875 39.5 35.421875 40.257812 34.480469 40.257812 C 33.539062 40.257812 32.777344 39.5 32.777344 38.566406 C 32.777344 37.628906 33.539062 36.871094 34.480469 36.871094 C 35.421875 36.871094 36.1875 37.628906 36.1875 38.566406 Z M 36.1875 38.566406 "/>
<path style=" stroke:none;fill-rule:nonzero;fill:rgb(94.117647%,75.686275%,36.470588%);fill-opacity:1;" d="M 25.316406 34.277344 C 25.976562 33.617188 27.058594 33.617188 27.722656 34.277344 C 28.386719 34.933594 28.386719 36.007812 27.722656 36.667969 C 27.058594 37.328125 25.976562 37.328125 25.316406 36.667969 C 24.652344 36.007812 24.652344 34.933594 25.316406 34.277344 Z M 25.316406 34.277344 "/>
<path style=" stroke:none;fill-rule:nonzero;fill:rgb(94.117647%,75.686275%,36.470588%);fill-opacity:1;" d="M 35.679688 43.566406 C 35.679688 44.503906 34.914062 45.261719 33.972656 45.261719 C 33.03125 45.261719 32.269531 44.503906 32.269531 43.566406 C 32.269531 42.632812 33.03125 41.875 33.972656 41.875 C 34.914062 41.875 35.679688 42.632812 35.679688 43.566406 Z M 35.679688 43.566406 "/>
<path style=" stroke:none;fill-rule:nonzero;fill:rgb(94.117647%,75.686275%,36.470588%);fill-opacity:1;" d="M 26.105469 40.988281 C 26.527344 40.152344 27.546875 39.8125 28.386719 40.234375 C 29.226562 40.652344 29.570312 41.664062 29.144531 42.5 C 28.722656 43.332031 27.703125 43.671875 26.863281 43.253906 C 26.023438 42.835938 25.683594 41.820312 26.105469 40.988281 Z M 26.105469 40.988281 "/>
<path style=" stroke:none;fill-rule:nonzero;fill:rgb(94.117647%,75.686275%,36.470588%);fill-opacity:1;" d="M 23.445312 40.546875 C 23.445312 41.480469 22.679688 42.238281 21.738281 42.238281 C 20.796875 42.238281 20.035156 41.480469 20.035156 40.546875 C 20.035156 39.613281 20.796875 38.855469 21.738281 38.855469 C 22.679688 38.855469 23.445312 39.613281 23.445312 40.546875 Z M 23.445312 40.546875 "/>
<path style=" stroke:none;fill-rule:nonzero;fill:rgb(94.117647%,75.686275%,36.470588%);fill-opacity:1;" d="M 27.988281 47.21875 C 28.414062 46.382812 29.433594 46.046875 30.273438 46.464844 C 31.113281 46.882812 31.453125 47.898438 31.03125 48.730469 C 30.609375 49.566406 29.589844 49.90625 28.75 49.484375 C 27.910156 49.066406 27.566406 48.050781 27.988281 47.21875 Z M 27.988281 47.21875 "/>
<path style=" stroke:none;fill-rule:nonzero;fill:rgb(94.117647%,75.686275%,36.470588%);fill-opacity:1;" d="M 20.777344 44.773438 C 21.203125 43.9375 22.222656 43.597656 23.0625 44.019531 C 23.902344 44.4375 24.242188 45.449219 23.820312 46.285156 C 23.398438 47.117188 22.378906 47.457031 21.539062 47.039062 C 20.699219 46.621094 20.355469 45.605469 20.777344 44.773438 Z M 20.777344 44.773438 "/>
<path style=" stroke:none;fill-rule:nonzero;fill:rgb(94.117647%,75.686275%,36.470588%);fill-opacity:1;" d="M 31.050781 52.480469 C 31.050781 51.546875 31.816406 50.789062 32.757812 50.789062 C 33.695312 50.789062 34.460938 51.546875 34.460938 52.480469 C 34.460938 53.414062 33.695312 54.175781 32.757812 54.175781 C 31.816406 54.175781 31.050781 53.414062 31.050781 52.480469 Z M 31.050781 52.480469 "/>
<path style=" stroke:none;fill-rule:nonzero;fill:rgb(94.117647%,75.686275%,36.470588%);fill-opacity:1;" d="M 19.441406 49.820312 C 19.863281 48.984375 20.882812 48.648438 21.722656 49.066406 C 22.5625 49.484375 22.90625 50.5 22.484375 51.332031 C 22.0625 52.167969 21.039062 52.507812 20.199219 52.085938 C 19.359375 51.667969 19.019531 50.652344 19.441406 49.820312 Z M 19.441406 49.820312 "/>
<path style=" stroke:none;fill-rule:nonzero;fill:rgb(94.117647%,75.686275%,36.470588%);fill-opacity:1;" d="M 19.566406 53.859375 C 19.988281 53.027344 21.011719 52.6875 21.851562 53.105469 C 22.691406 53.523438 23.03125 54.539062 22.609375 55.371094 C 22.1875 56.207031 21.167969 56.546875 20.328125 56.128906 C 19.488281 55.707031 19.144531 54.695312 19.566406 53.859375 Z M 19.566406 53.859375 "/>
<path style=" stroke:none;fill-rule:nonzero;fill:rgb(94.117647%,75.686275%,36.470588%);fill-opacity:1;" d="M 25.816406 58.632812 C 25.816406 57.699219 26.582031 56.941406 27.523438 56.941406 C 28.460938 56.941406 29.226562 57.699219 29.226562 58.632812 C 29.226562 59.566406 28.460938 60.328125 27.523438 60.328125 C 26.582031 60.328125 25.816406 59.566406 25.816406 58.632812 Z M 25.816406 58.632812 "/>
<path style=" stroke:none;fill-rule:nonzero;fill:rgb(94.117647%,75.686275%,36.470588%);fill-opacity:1;" d="M 25.183594 54.574219 C 25.183594 53.640625 25.949219 52.882812 26.886719 52.882812 C 27.828125 52.882812 28.59375 53.640625 28.59375 54.574219 C 28.59375 55.507812 27.828125 56.265625 26.886719 56.265625 C 25.949219 56.265625 25.183594 55.507812 25.183594 54.574219 Z M 25.183594 54.574219 "/>
</g>
</svg>
