<?xml version="1.0" encoding="UTF-8"?>
<svg xmlns="http://www.w3.org/2000/svg" xmlns:xlink="http://www.w3.org/1999/xlink" width="px" height="px" viewBox="0 0 58 63" version="1.1">
<g id="surface1">
<path style=" stroke:none;fill-rule:nonzero;fill:rgb(95.686275%,71.372549%,57.647059%);fill-opacity:1;" d="M 49.945312 1.03125 C 51.054688 0.601562 52.210938 0.160156 53.394531 0.273438 C 54.582031 0.394531 55.78125 1.253906 55.851562 2.445312 C 55.941406 3.914062 54.421875 4.90625 53.105469 5.566406 C 37.757812 13.277344 22.28125 21.042969 5.683594 25.464844 C 2.023438 26.441406 -1.765625 24.121094 1.484375 20.46875 C 4.542969 17.023438 12.542969 15.59375 16.757812 13.953125 C 27.820312 9.648438 38.882812 5.339844 49.945312 1.03125 Z M 49.945312 1.03125 "/>
<path style=" stroke:none;fill-rule:nonzero;fill:rgb(95.686275%,71.372549%,57.647059%);fill-opacity:1;" d="M 54.640625 11.761719 C 55.59375 11.4375 56.84375 11.199219 57.449219 12.007812 C 57.726562 12.378906 57.769531 12.875 57.734375 13.332031 C 57.589844 15.402344 56.171875 17.210938 54.441406 18.355469 C 52.710938 19.503906 50.679688 20.097656 48.695312 20.695312 C 34.535156 24.972656 20.675781 30.265625 7.269531 36.527344 C 1.453125 39.242188 -3.1875 34.859375 3.648438 31.578125 C 9.148438 28.945312 14.914062 26.734375 20.5625 24.445312 C 31.792969 19.898438 43.164062 15.667969 54.636719 11.761719 Z M 54.640625 11.761719 "/>
<path style=" stroke:none;fill-rule:nonzero;fill:rgb(95.686275%,71.372549%,57.647059%);fill-opacity:1;" d="M 46.53125 27.929688 C 49.722656 26.769531 53.007812 25.601562 56.398438 25.660156 C 57.699219 27.019531 57.332031 29.371094 56.105469 30.800781 C 54.878906 32.230469 53.050781 32.964844 51.300781 33.644531 C 41.40625 37.5 31.519531 41.347656 21.625 45.203125 C 15.992188 47.398438 10.253906 49.617188 4.222656 50.066406 C 2.566406 50.191406 0.335938 49.691406 0.261719 48.027344 C 0.0703125 43.679688 18.296875 38.523438 21.714844 37.179688 C 29.933594 33.949219 38.238281 30.933594 46.542969 27.925781 Z M 46.53125 27.929688 "/>
<path style=" stroke:none;fill-rule:nonzero;fill:rgb(95.686275%,71.372549%,57.647059%);fill-opacity:1;" d="M 52.789062 40.542969 C 53.957031 40.144531 55.300781 39.753906 56.367188 40.367188 C 57.734375 41.164062 57.796875 43.257812 56.894531 44.558594 C 56 45.863281 54.480469 46.566406 53.03125 47.207031 C 37.644531 54.054688 21.925781 60.988281 5.167969 62.691406 C 3.359375 62.875 -0.0703125 62.613281 0.269531 59.890625 C 0.488281 58.128906 2.785156 57.796875 4.164062 57.296875 C 9.609375 55.320312 15.117188 53.519531 20.589844 51.632812 C 31.324219 47.933594 42.058594 44.234375 52.789062 40.535156 Z M 52.789062 40.542969 "/>
<path style=" stroke:none;fill-rule:nonzero;fill:rgb(2.352941%,18.039216%,19.607843%);fill-opacity:1;" d="M 24.269531 50.050781 C 23.367188 49.828125 22.8125 48.90625 23.042969 47.996094 C 23.265625 47.09375 24.1875 46.539062 25.09375 46.765625 C 26 46.992188 26.554688 47.914062 26.324219 48.820312 C 26.101562 49.726562 25.179688 50.28125 24.269531 50.050781 Z M 24.269531 50.050781 "/>
<path style=" stroke:none;fill-rule:nonzero;fill:rgb(2.352941%,18.039216%,19.607843%);fill-opacity:1;" d="M 26.65625 54.265625 C 26.65625 55.203125 25.898438 55.960938 24.960938 55.960938 C 24.023438 55.960938 23.265625 55.203125 23.265625 54.265625 C 23.265625 53.332031 24.023438 52.570312 24.960938 52.570312 C 25.898438 52.570312 26.65625 53.332031 26.65625 54.265625 Z M 26.65625 54.265625 "/>
<path style=" stroke:none;fill-rule:nonzero;fill:rgb(2.352941%,18.039216%,19.607843%);fill-opacity:1;" d="M 29.574219 48.117188 C 28.640625 48.117188 27.878906 47.355469 27.878906 46.421875 C 27.878906 45.488281 28.640625 44.726562 29.574219 44.726562 C 30.507812 44.726562 31.269531 45.488281 31.269531 46.421875 C 31.269531 47.355469 30.507812 48.117188 29.574219 48.117188 Z M 29.574219 48.117188 "/>
<path style=" stroke:none;fill-rule:nonzero;fill:rgb(2.352941%,18.039216%,19.607843%);fill-opacity:1;" d="M 31.746094 52.316406 C 31.746094 53.253906 30.984375 54.011719 30.050781 54.011719 C 29.113281 54.011719 28.355469 53.253906 28.355469 52.316406 C 28.355469 51.378906 29.113281 50.621094 30.050781 50.621094 C 30.984375 50.621094 31.746094 51.378906 31.746094 52.316406 Z M 31.746094 52.316406 "/>
<path style=" stroke:none;fill-rule:nonzero;fill:rgb(2.352941%,18.039216%,19.607843%);fill-opacity:1;" d="M 34.660156 47.097656 C 33.722656 47.097656 32.964844 46.335938 32.964844 45.402344 C 32.964844 44.46875 33.722656 43.707031 34.660156 43.707031 C 35.59375 43.707031 36.355469 44.46875 36.355469 45.402344 C 36.355469 46.335938 35.59375 47.097656 34.660156 47.097656 Z M 34.660156 47.097656 "/>
<path style=" stroke:none;fill-rule:nonzero;fill:rgb(2.352941%,18.039216%,19.607843%);fill-opacity:1;" d="M 32.519531 57.945312 C 32.519531 58.882812 31.761719 59.640625 30.824219 59.640625 C 29.890625 59.640625 29.128906 58.882812 29.128906 57.945312 C 29.128906 57.007812 29.890625 56.25 30.824219 56.25 C 31.761719 56.25 32.519531 57.007812 32.519531 57.945312 Z M 32.519531 57.945312 "/>
<path style=" stroke:none;fill-rule:nonzero;fill:rgb(2.352941%,18.039216%,19.607843%);fill-opacity:1;" d="M 36.789062 51.652344 C 35.855469 51.652344 35.09375 50.890625 35.09375 49.957031 C 35.09375 49.023438 35.855469 48.261719 36.789062 48.261719 C 37.722656 48.261719 38.484375 49.023438 38.484375 49.957031 C 38.484375 50.890625 37.722656 51.652344 36.789062 51.652344 Z M 36.789062 51.652344 "/>
<path style=" stroke:none;fill-rule:nonzero;fill:rgb(2.352941%,18.039216%,19.607843%);fill-opacity:1;" d="M 38.269531 54.910156 C 38.269531 55.847656 37.507812 56.605469 36.574219 56.605469 C 35.636719 56.605469 34.878906 55.847656 34.878906 54.910156 C 34.878906 53.976562 35.636719 53.214844 36.574219 53.214844 C 37.507812 53.214844 38.269531 53.976562 38.269531 54.910156 Z M 38.269531 54.910156 "/>
<path style=" stroke:none;fill-rule:nonzero;fill:rgb(2.352941%,18.039216%,19.607843%);fill-opacity:1;" d="M 35.828125 61.917969 C 34.894531 61.917969 34.132812 61.160156 34.132812 60.226562 C 34.132812 59.289062 34.894531 58.53125 35.828125 58.53125 C 36.761719 58.53125 37.523438 59.289062 37.523438 60.226562 C 37.523438 61.160156 36.761719 61.917969 35.828125 61.917969 Z M 35.828125 61.917969 "/>
<path style=" stroke:none;fill-rule:nonzero;fill:rgb(2.352941%,18.039216%,19.607843%);fill-opacity:1;" d="M 41.664062 49.285156 C 40.726562 49.285156 39.96875 48.527344 39.96875 47.59375 C 39.96875 46.65625 40.726562 45.898438 41.664062 45.898438 C 42.597656 45.898438 43.359375 46.65625 43.359375 47.59375 C 43.359375 48.527344 42.597656 49.285156 41.664062 49.285156 Z M 41.664062 49.285156 "/>
<path style=" stroke:none;fill-rule:nonzero;fill:rgb(2.352941%,18.039216%,19.607843%);fill-opacity:1;" d="M 42.28125 60.121094 C 42.28125 61.054688 41.523438 61.816406 40.589844 61.816406 C 39.652344 61.816406 38.894531 61.054688 38.894531 60.121094 C 38.894531 59.183594 39.652344 58.425781 40.589844 58.425781 C 41.523438 58.425781 42.28125 59.183594 42.28125 60.121094 Z M 42.28125 60.121094 "/>
<path style=" stroke:none;fill-rule:nonzero;fill:rgb(2.352941%,18.039216%,19.607843%);fill-opacity:1;" d="M 42.667969 56.050781 C 41.734375 56.050781 40.972656 55.289062 40.972656 54.355469 C 40.972656 53.421875 41.734375 52.660156 42.667969 52.660156 C 43.601562 52.660156 44.363281 53.421875 44.363281 54.355469 C 44.363281 55.289062 43.601562 56.050781 42.667969 56.050781 Z M 42.667969 56.050781 "/>
<path style=" stroke:none;fill-rule:nonzero;fill:rgb(2.352941%,18.039216%,19.607843%);fill-opacity:1;" d="M 46.328125 52.027344 C 45.390625 52.027344 44.632812 51.265625 44.632812 50.332031 C 44.632812 49.398438 45.390625 48.636719 46.328125 48.636719 C 47.261719 48.636719 48.023438 49.398438 48.023438 50.332031 C 48.023438 51.265625 47.261719 52.027344 46.328125 52.027344 Z M 46.328125 52.027344 "/>
<path style=" stroke:none;fill-rule:nonzero;fill:rgb(2.352941%,18.039216%,19.607843%);fill-opacity:1;" d="M 47.355469 59.878906 C 47.355469 60.816406 46.597656 61.574219 45.664062 61.574219 C 44.726562 61.574219 43.96875 60.816406 43.96875 59.878906 C 43.96875 58.945312 44.726562 58.183594 45.664062 58.183594 C 46.597656 58.183594 47.355469 58.945312 47.355469 59.878906 Z M 47.355469 59.878906 "/>
<path style=" stroke:none;fill-rule:nonzero;fill:rgb(2.352941%,18.039216%,19.607843%);fill-opacity:1;" d="M 48.640625 57.140625 C 47.707031 57.140625 46.945312 56.378906 46.945312 55.445312 C 46.945312 54.511719 47.707031 53.75 48.640625 53.75 C 49.578125 53.75 50.335938 54.511719 50.335938 55.445312 C 50.335938 56.378906 49.578125 57.140625 48.640625 57.140625 Z M 48.640625 57.140625 "/>
</g>
</svg>
