<?xml version="1.0" encoding="UTF-8"?>
<svg id="Capa_2" data-name="Capa 2" xmlns="http://www.w3.org/2000/svg" viewBox="0 0 132.39 108.36">
  <defs>
    <style>
      .cls-1 {
        fill: #f0c15d;
      }
    </style>
  </defs>
  <g id="OBJECTS">
    <path class="cls-1" d="m38.89.12c-7.15,2.66-12.59,8.48-16.16,15.09-3.53,6.54-5.71,14.36-4.85,21.82.72,6.29,3.34,12.2,8.76,15.78,4.63,3.06,10.56,3.8,15.97,3.13,5.98-.74,11.81-2.88,16.79-6.27,6.06-4.13,11.86-10.57,11.77-18.34-.08-6.99-5.04-12.75-11.03-15.8-6.89-3.5-15.39-4.23-22.76-1.85-12.93,4.18-19.98,17.77-18.69,30.88,1.13,11.55,8.59,22.12,18.84,27.5,8.89,4.67,19.22,5.21,28.92,3.18,9.89-2.07,19.23-6.78,27.04-13.15,6.9-5.63,13.05-13.17,15.29-21.94,2.26-8.83-.37-17.62-6.63-24.16C92.3,5.7,77.02,1.12,63.06,2.89c-15.5,1.96-29.53,10.58-38.81,23.08-7.88,10.61-11.12,24.23-9.67,37.31,1.42,12.82,7.12,25.5,17.36,33.66,5.31,4.23,11.59,7.26,18.29,8.53,7.21,1.36,14.62.86,21.76-.69,15.26-3.3,29.77-11.27,41.36-21.65,5.27-4.72,10.09-10.17,13.58-16.35,3.56-6.3,5.49-13.45,5.47-20.68-.03-13.85-7.08-27.35-18.75-34.91-11.47-7.43-25.73-7.22-38.6-4.2-13.07,3.06-25.86,9.31-35.63,18.61-9.37,8.93-15.55,21.29-14.04,34.47,1.74,15.17,9.81,30.14,22.85,38.47,6.1,3.89,13.31,6.08,20.56,5.88,7.69-.21,15.26-2.96,21.56-7.32,11.29-7.83,19.61-20.67,21.56-34.33.97-6.82.34-13.71-2.4-20.07-2.8-6.5-7.89-11.97-13.94-15.58-12.14-7.23-27.34-6.37-40.46-2.57-14.06,4.08-27.49,11.61-38.2,21.61-4.85,4.52-9.06,9.7-12.12,15.59C1.64,67.74-.53,74.6.11,81.44c.54,5.8,2.94,11.13,6.9,15.4,3.98,4.29,9.26,7.24,14.78,9.09,12.62,4.23,26.5,2.69,38.5-2.68,13.32-5.95,26.02-14.91,34.86-26.62,4.21-5.59,7.46-12.11,8.44-19.1,1.08-7.74-.7-15.28-4.5-22.06-3.52-6.27-8.5-11.91-14.86-15.4-5.47-2.99-11.8-4.33-18.01-3.69-14,1.45-25.65,11.3-32.12,23.43-3.31,6.2-4.84,13.3-3.97,20.3.84,6.71,3.58,12.93,7.72,18.26,8.22,10.57,21.72,16.84,35.12,14.95,7.31-1.03,14.13-4.61,19.36-9.78,5.83-5.77,10.81-14.18,9.95-22.67-.83-8.21-6.69-16.02-13.78-20.02-6.31-3.57-14.06-3.87-20.39-.18-8.87,5.18-10.23,16.35-7.98,25.52,1.14,4.63,3.19,9.07,6.15,12.81,2.38,3.02,5.69,5.72,9.59,6.31,5.04.76,9.63-2.19,12.23-6.4,3.67-5.95,3.5-14.62-1.67-19.66-2.22-2.17-5.64,1.24-3.41,3.41,4.15,4.04,3.49,11.65-.56,15.68-.73.73-1.32,1.16-2.37,1.71-.09.04-.66.3-.31.15.33-.13-.21.07-.31.11-.4.12-.8.21-1.2.3-.39.09.55,0-.11,0-.17,0-.35.02-.52.02-.17,0-.35,0-.52-.01-.48,0-.43-.05-.17,0-.37-.07-.74-.14-1.1-.24-.17-.05-.34-.1-.51-.16-.12-.04-.7-.28-.36-.13.37.16-.28-.14-.35-.18-.17-.08-.33-.17-.49-.26-.38-.22-.74-.46-1.1-.7-.09-.06-.55-.42-.3-.21.28.22-.29-.25-.35-.3-.36-.31-.7-.63-1.03-.96-.3-.3-.59-.61-.87-.94-.16-.19-.32-.38-.48-.57-.06-.07-.12-.15-.18-.22-.39-.48.18.25-.03-.04-.6-.82-1.17-1.66-1.69-2.54-.52-.88-.99-1.8-1.42-2.73-.12-.25-.23-.51-.34-.76.19.43-.06-.16-.12-.3-.21-.53-.4-1.06-.59-1.59-.36-1.05-.66-2.11-.92-3.18-.11-.49-.22-.98-.31-1.47-.05-.28-.1-.56-.15-.84-.03-.17-.13-.91-.07-.41-.27-2.15-.29-4.31-.08-6.47.04-.44-.06.3.04-.27.04-.23.08-.47.12-.7.1-.53.22-1.05.36-1.56.13-.48.28-.95.45-1.42.08-.22.16-.43.24-.64-.2.51.12-.25.19-.41.44-.91.96-1.77,1.56-2.58-.28.37.06-.07.17-.2.15-.17.3-.35.46-.51.36-.39.75-.76,1.15-1.1.08-.07.72-.56.31-.26.19-.14.39-.28.59-.42.47-.32.96-.6,1.46-.86.23-.12.46-.23.69-.34.13-.06.27-.12.41-.18-.1.04-.39.15.05-.01.59-.22,1.18-.42,1.79-.59,7-1.94,13.75,1.7,18.24,6.97,2.31,2.71,4.2,6.07,4.91,9.58.71,3.45-.07,7.13-1.44,10.31-2.86,6.68-8.36,12.34-14.83,15.6-5.33,2.69-11.53,3.64-17.23,2.78-11.63-1.76-21.85-9.79-26.6-20.54-2.29-5.19-3.12-11.26-2.07-16.89,1.2-6.45,4.59-12.4,8.85-17.33,3.91-4.52,8.93-8.47,14.37-10.61,1.36-.53,2.74-.98,4.16-1.34,1.25-.31,2.72-.58,3.71-.68,2.71-.28,5.51-.18,7.92.29,5.72,1.12,10.69,4.01,14.78,8.22,4.74,4.88,8.39,11.27,9.72,17.97,2.61,13.17-5.37,25.36-14.53,34.07-4.99,4.74-10.59,8.8-16.52,12.28-5.44,3.2-11.12,6.05-17.2,7.72-10.85,2.97-23.27,2.41-33.05-3.01-4.3-2.38-7.83-5.55-10.13-9.83-.68-1.26-.91-1.8-1.33-3.1-.4-1.22-.7-2.49-.88-3.76.05.37-.05-.41-.05-.51-.03-.3-.05-.6-.07-.91-.04-.71-.06-1.42-.04-2.13.03-1.47.16-2.67.41-3.98,2.33-12.46,11.1-22.42,20.86-29.91,10.77-8.26,23.55-14.46,36.91-17.06,11.91-2.32,25.11-1.37,34.55,6.91,4.73,4.15,7.96,9.49,9.3,15.59,1.27,5.79.71,11.95-.99,17.69-3.49,11.8-11.89,22.57-22.95,28.11-6.08,3.05-13.11,4.49-19.87,3.34-6.4-1.09-12.3-4.14-17.13-8.45-5.14-4.58-9.11-10.34-11.87-16.64-2.66-6.06-4.34-12.93-4.06-19.57.49-11.57,7.57-21.58,16.55-28.82,9.51-7.67,21.43-12.68,33.44-14.87,5.4-.99,11.21-1.38,16.86-.74,6.05.69,11.97,3.15,16.74,6.9,9.8,7.69,14.9,20.22,13.84,32.51-1.13,13.21-10.02,24.03-19.88,32.23-10.98,9.13-24.46,16.01-38.53,18.69-6.19,1.18-12.76,1.45-18.86.07-5.8-1.32-11.35-4.03-15.82-7.84-8.85-7.53-13.92-18.82-15.02-30.15-1.16-11.99,1.65-23.93,8.78-33.72,8.17-11.21,20.99-19.17,34.76-21.09,12.72-1.77,26.54,2.3,35.42,11.19.76.77,1.48,1.57,2.16,2.41.24.29-.11-.18.25.33.14.19.28.38.41.58.3.44.59.88.87,1.33.5.82.93,1.67,1.33,2.55.25.55-.09-.28.12.28.07.2.16.4.23.6.16.46.31.92.45,1.39.25.89.44,1.8.58,2.72.04.28-.03-.19-.03-.2.01.12.03.24.04.35.02.21.04.41.06.62.04.47.06.94.06,1.42.01.92-.05,1.83-.14,2.75-.01.12-.03.24-.04.35,0,0,.07-.48.03-.2-.04.24-.07.47-.11.71-.08.44-.17.89-.27,1.33-.21.92-.48,1.83-.78,2.73-.15.44-.31.88-.48,1.31-.04.11-.28.67-.16.41.09-.22-.2.44-.26.58-.83,1.81-1.82,3.53-2.93,5.18-.28.42-.57.83-.87,1.24-.14.19-.28.38-.42.57-.04.06-.3.4-.12.16.19-.25-.2.25-.19.24-.65.81-1.32,1.61-2.02,2.38-1.49,1.64-3.09,3.19-4.77,4.64-.39.33-.78.66-1.18.99-.23.19-.46.37-.69.55-.12.09-.23.18-.35.27.2-.15.1-.08-.04.03-.92.7-1.85,1.37-2.81,2.02-1.9,1.29-3.87,2.47-5.9,3.54-1.04.55-2.09,1.07-3.16,1.56-.52.24-1.04.47-1.56.69.37-.16-.26.11-.37.15-.32.13-.63.26-.95.38-2.15.83-4.34,1.55-6.57,2.13-1.12.29-2.26.55-3.4.77-.51.1-1.03.19-1.54.27-.29.05-.59.09-.88.13-.03,0-.4.05-.12.02.31-.04-.28.03-.34.04-2.26.26-4.53.39-6.8.32-1.08-.03-2.17-.1-3.25-.22-.29-.03-.57-.06-.86-.1.47.06-.17-.03-.32-.05-.57-.09-1.13-.19-1.69-.31-2.14-.44-4.24-1.07-6.26-1.89-.08-.03-.42-.18-.02,0-.1-.04-.2-.09-.3-.13-.26-.12-.53-.24-.79-.36-.52-.25-1.04-.51-1.55-.79-.97-.52-1.9-1.1-2.81-1.71-1.15-.78-1.42-.99-2.45-1.88-.88-.76-1.72-1.56-2.52-2.4-3.54-3.73-6.41-8.38-7.67-13.64-2.57-10.7,1.4-23.32,11.67-28.55,5.8-2.95,13.15-3.06,19.32-.92,2.83.98,5.5,2.54,7.6,4.68,1.83,1.86,3.22,4.36,3.55,6.67.42,2.94-.43,5.71-2.02,8.27-1.76,2.84-4.47,5.35-6.95,7.08-4.43,3.09-9.18,5.02-14.55,5.82-.27.04-.21.03-.64.08-.3.03-.6.06-.9.08-.68.05-1.35.08-2.03.09-.63,0-1.25-.01-1.87-.06-.29-.02-.57-.04-.86-.07-.16-.02-.33-.03-.49-.05-.44-.06.56.1-.2-.03-1.18-.2-2.34-.48-3.48-.87-.3-.1-.59-.21-.88-.33.37.16-.29-.14-.39-.19-.56-.27-1.11-.57-1.63-.9-1.8-1.14-3.36-2.79-4.47-4.77-1.31-2.32-2.06-5.14-2.28-7.98-.5-6.36,1.28-12.86,4.29-18.44,2.93-5.43,7.35-10.67,13.28-12.88,1.22-.45,2.05-1.63,1.68-2.97-.32-1.17-1.74-2.14-2.97-1.68h0Z"/>
  </g>
</svg>