<?xml version="1.0" encoding="UTF-8"?>
<svg id="Capa_2" data-name="Capa 2" xmlns="http://www.w3.org/2000/svg" viewBox="0 0 157.49 87.54">
  <defs>
    <style>
      .cls-1 {
        fill: #8aa88e;
      }
    </style>
  </defs>
  <g id="OBJECTS">
    <path class="cls-1" d="m152.43,18.54c-3.76-1.44-7.22.29-8.42,4.12-.24.77-.51,1.52-.79,2.27-.87,2-1.87,3.91-2.98,5.73-.55.9-1.13,1.77-1.73,2.63-.34.48-.68.96-1.03,1.43-.11.15-.23.3-.34.45-.04.04-.07.09-.11.13-3.09,3.84-6.55,7.3-10.16,10.55-3.46,3.11-7.07,6.02-10.72,8.87-1.84,1.43-3.67,2.88-5.53,4.26-.12.09-.23.17-.35.26-.43.3-.86.6-1.3.89-1.15.76-2.31,1.5-3.49,2.2-2.97,1.76-6.06,3.29-9.23,4.65.67-.89,1.32-1.79,1.95-2.7,7.22-10.4,12.56-22.71,16.25-35.44,1.84-6.36,3.16-12.93,3.8-19.72.17-1.78-.88-4.19-2-5.57-1.19-1.46-3.13-2.7-4.84-2.84-1.77-.15-3.6.24-4.84,1.55-1.3,1.38-1.81,2.98-2,5.04-.03.34-.07.67-.11,1.01-1.26,9.34-3.95,18.28-7.3,26.69-2.69,6.48-5.84,12.69-9.6,18.4-.95,1.45-1.95,2.87-2.99,4.24-.03.04-.06.07-.08.11-.21.26-.42.53-.63.79-.54.66-1.09,1.31-1.66,1.94-1.19,1.33-2.44,2.6-3.74,3.8.93-4.28,1.5-8.7,2.04-13.11.68-5.63,1.11-11.32,1.35-17.04.21-5.09.29-10.23.03-15.38-.22-4.38-.49-8.99-2.23-13.21-.4-.97-.94-1.8-1.58-2.67-2.41-3.24-7.26-3.85-9.67-1.29-2.24,2.38-2.52,5.93-.94,9.08.19.7.32,1.41.42,2.13,1.03,9.4.5,18.95-.22,28.11-.23,2.95-.52,5.88-.88,8.8-.62,4.8-1.37,9.71-2.86,14.17-.13-.16-.27-.31-.4-.47-.51-.63-.97-1.28-1.43-1.94-.2-.3-.44-.67-.58-.9-.31-.52-.6-1.04-.9-1.57-2.55-4.62-4.6-9.53-6.44-14.46-3.35-9.27-6.08-18.74-8.43-28.25-.38-1.53-.75-3.07-1.09-4.61-.88-3.92-4.95-7.12-8.42-6.36-3.58.79-5.72,4.39-4.78,8.59,2.17,9.61,4.85,19.19,8.02,28.58,2.19,6.47,4.56,12.96,7.57,19.13,1.01,2.08,2.11,4.13,3.32,6.09-1.68-.78-3.35-1.61-4.99-2.54-3.18-1.96-6.24-4.18-9.12-6.68-.58-.51-1.16-1.04-1.73-1.57.04.05-.25-.19-.44-.38-.05-.06-.11-.11-.16-.17-.1-.1-.21-.2-.31-.3.07.07.12.11.18.17-.14-.14-.27-.28-.41-.42-.97-1.01-1.91-2.07-2.82-3.15-2.09-2.48-4.06-5.08-5.93-7.75-.49-.7-.97-1.4-1.44-2.1-.22-.33-.44-.66-.65-.99-.04-.06-.07-.11-.09-.14-.96-1.52-1.88-3.06-2.76-4.63-1.78-3.16-3.4-6.43-4.71-9.82-.66-1.96-1.19-3.95-1.44-5.97l.04.31c-.26-1.58-.75-3.02-1.85-4.37-1.19-1.46-3.13-2.7-4.84-2.84C3.48,14.07-.37,16.71.03,20.94c.63,6.72,3.1,13.12,6.26,19.19,3.24,6.24,7.14,12.22,11.35,17.78,8.92,11.77,20.66,20.92,33.56,25.66,7.39,2.71,14.9,4.06,22.38,3.96,7.07-.1,13.92-1.24,20.52-3.33,6.92-2.2,13.56-5.04,19.73-8.89,5.61-3.49,10.83-7.7,16-11.87,4.86-3.92,9.6-8.06,13.87-12.73,4.43-4.85,8.59-10.26,11.33-16.58.81-1.86,1.57-3.76,2.18-5.73,1.12-3.58-1.3-8.53-4.78-9.86ZM62.28,61.75c.18.26.14.2,0,0h0Zm-20.88-6c.15.14.3.27.45.41-.03-.03-.23-.23-.73-.68.04.04.08.09.13.13.05.05.1.09.15.14Z"/>
  </g>
</svg>