<?xml version="1.0" encoding="UTF-8"?>
<svg id="Capa_2" data-name="Capa 2" xmlns="http://www.w3.org/2000/svg" viewBox="0 0 118.42 111.9">
  <defs>
    <style>
      .cls-1 {
        fill: #062E32 ;
      }

      .cls-2 {
        fill: #F4B693;
      }
    </style>
  </defs>
  <g id="OBJECTS">
    <g>
      <path class="cls-1" d="m9.09,76.23c-1.18,8.67-1.51,18.59,4.42,24.92,7.89,8.43,21.5,5.46,32.37,1.86,15.02-4.97,30.05-9.94,45.07-14.92,5.96-1.97,12-3.99,17.17-7.58,5.17-3.6,9.44-9.05,10.18-15.39,1.1-9.52-5.71-17.96-12.52-24.57-10.36-10.04-21.81-18.91-34.06-26.41C63.35,9.02,49.18-1.4,38.69.16c-11.61,1.73-15.34,20.24-18.57,29.61-5.18,15.06-8.89,30.66-11.04,46.47Z"/>
      <path class="cls-2" d="m19.85,111.9c-5.52,0-10.77-1.42-14.63-5.55C-.93,99.77-.43,89.39.7,81.09l.41.06-.41-.06c2.14-15.79,5.86-31.45,11.06-46.55.48-1.4.98-3.02,1.5-4.73,3.07-9.98,7.27-23.65,17.4-25.16,9.16-1.36,20.88,6.13,29.44,11.6,1.38.89,2.68,1.71,3.86,2.44,12.31,7.54,23.79,16.44,34.14,26.47,6,5.81,13.83,14.72,12.65,24.92-.68,5.87-4.45,11.58-10.35,15.68-5.26,3.66-11.37,5.68-17.28,7.64l-45.07,14.92c-5.38,1.78-11.96,3.58-18.18,3.59ZM32.93,5.33c-.73,0-1.45.05-2.16.15-9.61,1.43-13.72,14.81-16.72,24.57-.53,1.72-1.03,3.34-1.51,4.76-5.17,15.04-8.88,30.65-11.02,46.39-1.1,8.12-1.61,18.26,4.31,24.58,7.8,8.33,21.16,5.31,31.94,1.74l45.07-14.92c5.85-1.94,11.9-3.94,17.07-7.53,5.7-3.96,9.35-9.47,10-15.09,1.14-9.83-6.53-18.53-12.4-24.22-10.3-9.98-21.74-18.85-33.99-26.36-1.18-.73-2.48-1.56-3.87-2.45-7.78-4.97-18.2-11.64-26.71-11.64Z"/>
    </g>
  </g>
</svg>