<?xml version="1.0" encoding="UTF-8"?>
<svg xmlns="http://www.w3.org/2000/svg" xmlns:xlink="http://www.w3.org/1999/xlink" width="px" height="px" viewBox="0 0 61 58" version="1.1">
<g id="surface1">
<path style=" stroke:none;fill-rule:nonzero;fill:rgb(2.352941%,18.039216%,19.607843%);fill-opacity:1;" d="M 12.546875 6.851562 C 11.570312 6.917969 10.660156 7.296875 9.785156 7.707031 C 8.730469 8.203125 7.71875 8.808594 6.753906 9.464844 C 5.097656 10.589844 3.015625 12.003906 2.261719 13.949219 C 1.875 14.945312 3.117188 15.582031 3.898438 15.210938 C 6.757812 13.84375 9.433594 12.140625 12.324219 10.832031 C 14.71875 9.757812 17.164062 8.003906 19.875 7.96875 C 19.691406 7.277344 19.5 6.582031 19.316406 5.890625 C 16.121094 7.425781 13.339844 9.613281 10.457031 11.632812 C 8.105469 13.28125 5.597656 14.691406 3.390625 16.542969 C 2.214844 17.53125 1.101562 18.683594 0.390625 20.058594 C -0.0390625 20.886719 0.675781 21.984375 1.652344 21.695312 C 5.378906 20.589844 8.277344 17.808594 11.515625 15.796875 C 13.257812 14.714844 15.132812 13.804688 16.972656 12.914062 C 18.875 11.992188 20.816406 11.179688 22.847656 10.589844 C 22.425781 10.042969 22.003906 9.496094 21.585938 8.953125 C 20.648438 10.226562 19.285156 11.183594 17.972656 12.035156 C 16.453125 13.019531 14.855469 13.890625 13.300781 14.824219 C 11.871094 15.679688 10.535156 16.667969 9.175781 17.632812 C 7.570312 18.765625 5.964844 19.917969 4.453125 21.179688 C 2.820312 22.539062 1.296875 24.066406 0.164062 25.875 C -0.378906 26.746094 0.515625 27.703125 1.425781 27.511719 C 3.152344 27.148438 4.601562 25.757812 5.933594 24.679688 C 7.507812 23.40625 9.265625 22.320312 10.984375 21.253906 C 12.796875 20.136719 14.703125 19.203125 16.519531 18.097656 C 18.285156 17.023438 19.996094 15.859375 21.785156 14.820312 C 23.675781 13.71875 25.652344 12.722656 27.824219 12.347656 C 27.402344 11.804688 26.984375 11.257812 26.5625 10.714844 C 26.242188 11.257812 25.402344 11.714844 24.753906 12.074219 C 23.933594 12.53125 23.078125 12.929688 22.316406 13.480469 C 20.140625 15.050781 17.972656 16.644531 15.757812 18.167969 C 12.316406 20.527344 8.789062 22.785156 5.703125 25.621094 C 4.132812 27.066406 2.566406 28.707031 1.652344 30.660156 C 1.332031 31.339844 1.597656 32.042969 2.316406 32.292969 C 3.550781 32.722656 4.925781 32.003906 5.941406 31.355469 C 7.230469 30.527344 8.390625 29.511719 9.53125 28.503906 C 12.375 25.980469 15.550781 23.839844 18.710938 21.730469 C 26.617188 16.441406 34.871094 11.773438 43.246094 7.277344 C 44.960938 6.355469 46.738281 5.65625 48.523438 4.890625 C 50.257812 4.144531 51.980469 3.273438 53.152344 1.742188 C 53.417969 1.398438 53.3125 0.8125 53.066406 0.507812 C 52.769531 0.136719 52.355469 0.0234375 51.894531 0.109375 C 44.480469 1.464844 37.792969 5.046875 30.945312 8.011719 C 29.027344 8.84375 27.082031 9.613281 25.097656 10.273438 C 25.457031 10.894531 25.816406 11.515625 26.183594 12.132812 C 29.0625 9.714844 32.566406 7.988281 36.074219 6.675781 C 39.894531 5.246094 43.925781 4.21875 47.992188 3.84375 C 50.070312 3.65625 52.171875 3.628906 54.242188 3.886719 C 53.882812 3.414062 53.527344 2.945312 53.167969 2.472656 C 53.101562 2.789062 53.105469 2.773438 52.917969 3.050781 C 52.78125 3.246094 52.535156 3.488281 52.3125 3.691406 C 51.78125 4.171875 51.183594 4.566406 50.578125 4.945312 C 49.199219 5.8125 47.792969 6.660156 46.378906 7.46875 C 42.804688 9.492188 39.0625 11.195312 35.503906 13.238281 C 31.832031 15.351562 28.308594 17.757812 24.808594 20.128906 C 21.261719 22.53125 17.757812 24.996094 14.292969 27.511719 C 10.398438 30.339844 6.546875 33.222656 2.726562 36.140625 C 1.75 36.886719 2.28125 38.453125 3.585938 38.175781 C 5.183594 37.84375 6.582031 36.851562 7.859375 35.882812 C 9.183594 34.875 10.449219 33.808594 11.859375 32.925781 C 15.492188 30.644531 19.210938 28.492188 22.992188 26.472656 C 30.753906 22.320312 38.839844 18.816406 46.8125 15.09375 C 50.769531 13.25 54.722656 10.984375 59.003906 9.984375 C 58.644531 9.363281 58.285156 8.742188 57.917969 8.121094 C 56.988281 9.289062 55.542969 9.972656 54.226562 10.613281 C 52.820312 11.296875 51.371094 11.898438 50.007812 12.675781 C 46.097656 14.902344 42.050781 16.886719 38.046875 18.949219 C 34.121094 20.96875 30.261719 23.089844 26.574219 25.527344 C 23.078125 27.835938 19.703125 30.332031 16.269531 32.734375 C 12.410156 35.429688 8.464844 38.015625 4.21875 40.054688 C 4.761719 40.472656 5.308594 40.894531 5.851562 41.3125 C 7.21875 38.035156 9.578125 35.214844 12.085938 32.75 C 14.835938 30.039062 17.898438 27.660156 21.066406 25.449219 C 24.246094 23.230469 27.511719 21.074219 30.925781 19.21875 C 34.898438 17.054688 39.070312 15.296875 43.316406 13.746094 C 48.140625 11.984375 53.046875 10.472656 57.929688 8.878906 C 57.507812 8.332031 57.089844 7.785156 56.667969 7.242188 C 56.117188 8.476562 54.828125 9.203125 53.691406 9.851562 C 52.265625 10.664062 50.878906 11.472656 49.515625 12.378906 C 45.921875 14.761719 42.367188 17.195312 38.808594 19.632812 C 35.34375 22.007812 31.875 24.371094 28.359375 26.667969 C 24.921875 28.914062 21.46875 31.136719 18.128906 33.53125 C 14.410156 36.191406 10.945312 39.203125 6.863281 41.3125 C 7.3125 41.898438 7.765625 42.480469 8.214844 43.0625 C 13.65625 38.230469 20.113281 34.691406 26.546875 31.355469 C 33.429688 27.78125 40.304688 24.183594 47.25 20.722656 C 51.410156 18.652344 55.601562 16.640625 59.847656 14.746094 C 59.289062 14.425781 58.734375 14.105469 58.171875 13.785156 C 58.199219 13.589844 58.148438 13.828125 58.117188 13.890625 C 58.230469 13.683594 57.992188 14.058594 58.046875 13.984375 C 57.984375 14.082031 57.6875 14.371094 57.546875 14.480469 C 57.097656 14.839844 56.492188 15.160156 55.949219 15.4375 C 54.757812 16.042969 53.554688 16.585938 52.390625 17.242188 C 48.875 19.21875 45.382812 21.238281 41.910156 23.300781 C 38.445312 25.355469 34.96875 27.402344 31.59375 29.613281 C 28.328125 31.753906 25.148438 34.019531 21.964844 36.28125 C 18.367188 38.835938 14.773438 41.394531 11.054688 43.769531 C 11.503906 44.355469 11.957031 44.933594 12.40625 45.519531 C 17.828125 41.328125 24.121094 38.398438 30.308594 35.527344 C 33.402344 34.089844 36.523438 32.695312 39.535156 31.105469 C 42.675781 29.449219 45.675781 27.542969 48.730469 25.722656 C 52.089844 23.71875 55.523438 21.765625 59.234375 20.488281 C 58.8125 19.941406 58.394531 19.398438 57.972656 18.851562 C 57.566406 19.679688 56.699219 20.332031 55.835938 20.894531 C 54.761719 21.59375 53.621094 22.183594 52.480469 22.765625 C 49.746094 24.164062 47.144531 25.824219 44.46875 27.339844 C 38.269531 30.851562 32.15625 34.519531 26.203125 38.441406 C 22.996094 40.558594 19.863281 42.820312 17.070312 45.457031 C 16.414062 46.070312 16.878906 47.464844 17.855469 47.355469 C 20.554688 47.0625 22.742188 45.359375 25.066406 44.121094 C 26.417969 43.398438 27.832031 42.800781 29.199219 42.105469 C 30.585938 41.394531 31.960938 40.660156 33.328125 39.914062 C 39.035156 36.796875 44.785156 33.789062 50.535156 30.753906 C 53.847656 29.003906 57.152344 27.246094 60.449219 25.472656 C 59.90625 25.050781 59.359375 24.628906 58.8125 24.210938 C 58.625 25.304688 57.664062 26.109375 56.832031 26.78125 C 55.867188 27.558594 54.820312 28.261719 53.792969 28.941406 C 51.105469 30.71875 48.253906 32.222656 45.417969 33.738281 C 39.453125 36.929688 33.652344 40.402344 27.847656 43.871094 C 25.078125 45.527344 21.992188 46.894531 19.714844 49.238281 C 18.996094 49.984375 19.574219 51.042969 20.5 51.136719 C 21.746094 51.269531 22.960938 50.816406 24.078125 50.3125 C 25.238281 49.792969 26.351562 49.167969 27.492188 48.597656 C 30.058594 47.316406 32.625 46.019531 35.171875 44.695312 C 37.632812 43.414062 40.070312 42.089844 42.554688 40.859375 C 44.917969 39.6875 47.296875 38.550781 49.644531 37.347656 C 52.316406 35.976562 54.945312 34.511719 57.429688 32.8125 C 56.976562 32.230469 56.527344 31.648438 56.078125 31.0625 C 48.984375 38.308594 39.273438 41.902344 30.859375 47.273438 C 28.433594 48.820312 26.097656 50.527344 23.964844 52.46875 C 23.125 53.234375 24.011719 54.613281 25.050781 54.328125 C 29.292969 53.175781 33.246094 51.195312 37.160156 49.234375 C 38.855469 48.382812 40.546875 47.546875 42.28125 46.777344 C 44.007812 46.011719 45.742188 45.265625 47.429688 44.421875 C 49.277344 43.488281 51.074219 42.429688 52.640625 41.0625 C 52.019531 40.703125 51.398438 40.34375 50.78125 39.976562 C 50.566406 40.5 50.039062 41.195312 49.5625 41.695312 C 48.949219 42.339844 48.265625 42.914062 47.542969 43.433594 C 45.960938 44.582031 44.257812 45.550781 42.546875 46.496094 C 41.082031 47.3125 39.644531 48.175781 38.179688 48.992188 C 36.402344 49.976562 34.59375 50.902344 32.855469 51.964844 C 30.984375 53.105469 29.113281 54.40625 27.839844 56.214844 C 27.242188 57.066406 28.222656 58.046875 29.097656 57.851562 C 35.609375 56.402344 39.714844 50.464844 45.800781 48.160156 C 45.382812 47.617188 44.960938 47.070312 44.542969 46.527344 C 43.027344 48.707031 40.75 50.179688 38.488281 51.488281 C 36.113281 52.863281 33.671875 54.109375 31.515625 55.832031 C 31.046875 56.207031 31.125 57.015625 31.515625 57.40625 C 31.980469 57.871094 32.621094 57.78125 33.089844 57.40625 C 35.222656 55.710938 37.722656 54.53125 40.054688 53.15625 C 42.511719 51.703125 44.816406 50.019531 46.460938 47.652344 C 47 46.882812 46.097656 45.675781 45.203125 46.015625 C 42.089844 47.191406 39.46875 49.222656 36.824219 51.1875 C 34.285156 53.070312 31.636719 55.003906 28.5 55.699219 C 28.917969 56.246094 29.339844 56.792969 29.757812 57.335938 C 30.746094 55.9375 32.414062 54.84375 33.90625 53.925781 C 35.664062 52.84375 37.5 51.910156 39.300781 50.910156 C 40.789062 50.082031 42.246094 49.203125 43.738281 48.378906 C 45.46875 47.417969 47.199219 46.429688 48.792969 45.253906 C 50.503906 44 52.101562 42.554688 52.925781 40.558594 C 53.109375 40.109375 52.800781 39.527344 52.414062 39.296875 C 51.96875 39.039062 51.441406 39.140625 51.066406 39.472656 C 48.414062 41.777344 44.996094 43.144531 41.820312 44.546875 C 38.1875 46.144531 34.707031 48.046875 31.101562 49.699219 C 28.949219 50.683594 26.75 51.542969 24.460938 52.167969 C 24.820312 52.789062 25.183594 53.410156 25.546875 54.03125 C 33.007812 47.238281 42.734375 43.792969 50.980469 38.140625 C 53.367188 36.507812 55.632812 34.691406 57.660156 32.625 C 58.515625 31.75 57.382812 30.136719 56.308594 30.875 C 51.992188 33.828125 47.238281 36.066406 42.550781 38.367188 C 37.652344 40.773438 32.871094 43.398438 27.992188 45.847656 C 26.6875 46.5 25.382812 47.152344 24.082031 47.820312 C 22.980469 48.386719 21.78125 49.015625 20.503906 48.886719 C 20.765625 49.523438 21.03125 50.152344 21.289062 50.789062 C 23.28125 48.742188 25.960938 47.554688 28.382812 46.121094 C 31.402344 44.328125 34.40625 42.519531 37.4375 40.753906 C 40.386719 39.03125 43.347656 37.347656 46.359375 35.742188 C 49.222656 34.203125 52.109375 32.6875 54.832031 30.898438 C 56.097656 30.0625 57.375 29.191406 58.542969 28.222656 C 59.609375 27.339844 60.71875 26.195312 60.96875 24.777344 C 61.136719 23.828125 60.238281 23.03125 59.335938 23.515625 C 53.613281 26.597656 47.859375 29.632812 42.101562 32.644531 C 39.308594 34.105469 36.53125 35.585938 33.773438 37.101562 C 31.039062 38.601562 28.308594 40.097656 25.488281 41.421875 C 24.136719 42.058594 22.867188 42.789062 21.570312 43.535156 C 20.441406 44.183594 19.183594 44.949219 17.855469 45.09375 C 18.113281 45.730469 18.378906 46.359375 18.640625 46.996094 C 23.601562 42.320312 29.570312 38.902344 35.300781 35.285156 C 38.449219 33.300781 41.664062 31.445312 44.90625 29.613281 C 47.683594 28.042969 50.378906 26.296875 53.222656 24.84375 C 54.488281 24.195312 55.761719 23.554688 56.953125 22.78125 C 58.074219 22.050781 59.277344 21.164062 59.882812 19.9375 C 60.28125 19.132812 59.613281 17.960938 58.625 18.300781 C 51.789062 20.652344 45.90625 24.996094 39.632812 28.46875 C 33.53125 31.84375 27.003906 34.375 20.824219 37.605469 C 17.324219 39.4375 13.945312 41.484375 10.816406 43.90625 C 9.816406 44.679688 11.109375 46.332031 12.164062 45.65625 C 18.953125 41.308594 25.34375 36.371094 32.066406 31.917969 C 35.484375 29.65625 39.007812 27.566406 42.53125 25.472656 C 46.097656 23.351562 49.683594 21.269531 53.300781 19.238281 C 54.683594 18.460938 56.128906 17.835938 57.511719 17.082031 C 58.867188 16.339844 60.183594 15.371094 60.382812 13.738281 C 60.5 12.804688 59.375 12.480469 58.707031 12.78125 C 51.144531 16.152344 43.75 19.886719 36.40625 23.703125 C 29.792969 27.148438 23.03125 30.375 16.644531 34.21875 C 13.117188 36.347656 9.710938 38.703125 6.625 41.4375 C 5.644531 42.308594 6.894531 43.75 7.972656 43.191406 C 11.640625 41.292969 14.789062 38.664062 18.097656 36.234375 C 21.433594 33.785156 24.90625 31.519531 28.375 29.257812 C 35.613281 24.535156 42.671875 19.546875 49.871094 14.761719 C 51.492188 13.679688 53.117188 12.691406 54.808594 11.730469 C 56.246094 10.910156 57.882812 9.898438 58.582031 8.324219 C 58.945312 7.511719 58.339844 6.355469 57.324219 6.6875 C 48.449219 9.589844 39.429688 12.246094 31.105469 16.554688 C 27.492188 18.425781 24.0625 20.644531 20.710938 22.945312 C 17.410156 25.210938 14.1875 27.636719 11.269531 30.386719 C 8.152344 33.328125 5.359375 36.695312 3.695312 40.679688 C 3.53125 41.078125 3.78125 41.613281 4.097656 41.847656 C 4.476562 42.132812 4.914062 42.140625 5.332031 41.933594 C 12.980469 38.261719 19.589844 32.875 26.582031 28.148438 C 30.214844 25.691406 34 23.515625 37.882812 21.488281 C 41.910156 19.386719 45.992188 17.40625 49.964844 15.207031 C 51.636719 14.28125 53.320312 13.464844 55.042969 12.640625 C 56.613281 11.890625 58.378906 11.046875 59.484375 9.65625 C 60.15625 8.8125 59.554688 7.527344 58.398438 7.796875 C 54.621094 8.675781 51.121094 10.5625 47.636719 12.214844 C 43.644531 14.105469 39.625 15.921875 35.613281 17.773438 C 27.707031 21.421875 19.941406 25.316406 12.507812 29.863281 C 10.75 30.9375 9.09375 32.058594 7.480469 33.335938 C 6.144531 34.390625 4.683594 35.640625 2.976562 36 C 3.261719 36.679688 3.546875 37.355469 3.835938 38.035156 C 10.769531 32.746094 17.789062 27.5625 24.996094 22.648438 C 28.5625 20.21875 32.15625 17.773438 35.871094 15.566406 C 39.5 13.414062 43.339844 11.675781 47.023438 9.621094 C 48.667969 8.703125 50.304688 7.730469 51.894531 6.714844 C 53.226562 5.867188 54.972656 4.710938 55.308594 3.039062 C 55.460938 2.265625 54.980469 1.71875 54.230469 1.628906 C 50.234375 1.132812 46.121094 1.628906 42.210938 2.5 C 38.007812 3.429688 33.875 4.890625 30.070312 6.898438 C 28.128906 7.921875 26.277344 9.113281 24.597656 10.527344 C 23.746094 11.242188 24.652344 12.734375 25.683594 12.390625 C 32.75 10.03125 39.234375 6.242188 46.289062 3.855469 C 48.3125 3.167969 50.378906 2.609375 52.480469 2.222656 C 52.0625 1.679688 51.640625 1.132812 51.21875 0.589844 C 50.417969 1.628906 48.792969 2.328125 47.542969 2.871094 C 46.097656 3.496094 44.59375 4 43.195312 4.742188 C 39.125 6.886719 35.082031 9.097656 31.089844 11.390625 C 27.132812 13.660156 23.246094 16.0625 19.425781 18.550781 C 17.503906 19.808594 15.601562 21.089844 13.730469 22.417969 C 12.164062 23.53125 10.554688 24.628906 9.09375 25.875 C 8 26.8125 6.953125 27.816406 5.808594 28.6875 C 5.21875 29.136719 4.597656 29.558594 3.933594 29.894531 C 3.863281 29.929688 3.792969 29.964844 3.722656 29.992188 C 3.882812 29.921875 3.667969 30.011719 3.636719 30.023438 C 3.492188 30.074219 3.351562 30.109375 3.207031 30.148438 C 3.03125 30.191406 3.339844 30.128906 3.0625 30.15625 C 2.875 30.179688 3.0625 30.164062 3.113281 30.179688 C 3.035156 30.164062 2.960938 30.144531 2.886719 30.117188 C 3.105469 30.664062 3.332031 31.207031 3.550781 31.753906 C 4.335938 30.089844 5.613281 28.71875 6.945312 27.460938 C 8.449219 26.042969 10.078125 24.765625 11.761719 23.554688 C 13.40625 22.371094 15.101562 21.269531 16.773438 20.125 C 18.988281 18.601562 21.15625 17.015625 23.332031 15.441406 C 24.972656 14.25 27.386719 13.648438 28.46875 11.804688 C 28.996094 10.902344 28.128906 10.007812 27.207031 10.167969 C 23.222656 10.855469 19.757812 13.390625 16.40625 15.496094 C 14.664062 16.589844 12.832031 17.515625 11.054688 18.5625 C 9.140625 19.6875 7.207031 20.875 5.433594 22.203125 C 4.628906 22.808594 3.867188 23.476562 3.0625 24.082031 C 2.375 24.59375 1.636719 25.152344 0.804688 25.324219 C 1.226562 25.871094 1.644531 26.417969 2.066406 26.960938 C 4.027344 23.816406 7.304688 21.617188 10.273438 19.519531 C 11.636719 18.550781 12.972656 17.570312 14.402344 16.710938 C 15.957031 15.78125 17.546875 14.910156 19.074219 13.921875 C 20.730469 12.84375 22.3125 11.644531 23.488281 10.039062 C 24.078125 9.234375 23.101562 8.148438 22.226562 8.402344 C 20.15625 9.007812 18.152344 9.839844 16.207031 10.769531 C 14.34375 11.660156 12.449219 12.578125 10.679688 13.644531 C 7.492188 15.5625 4.652344 18.4375 1.03125 19.511719 C 1.449219 20.058594 1.871094 20.601562 2.292969 21.148438 C 3.046875 19.683594 4.316406 18.539062 5.609375 17.542969 C 7.003906 16.464844 8.5 15.53125 9.976562 14.574219 C 13.460938 12.3125 16.648438 9.59375 20.414062 7.777344 C 21.433594 7.285156 20.910156 5.6875 19.855469 5.699219 C 16.824219 5.742188 14.15625 7.480469 11.496094 8.726562 C 8.519531 10.117188 5.71875 11.835938 2.75 13.25 C 3.296875 13.671875 3.84375 14.089844 4.386719 14.511719 C 4.261719 14.832031 4.457031 14.398438 4.515625 14.304688 C 4.566406 14.230469 4.617188 14.160156 4.667969 14.085938 C 4.570312 14.214844 4.640625 14.113281 4.703125 14.046875 C 4.988281 13.71875 5.28125 13.410156 5.601562 13.113281 C 6.347656 12.425781 7.128906 11.839844 7.972656 11.273438 C 8.847656 10.683594 9.765625 10.136719 10.714844 9.679688 C 11.152344 9.46875 11.277344 9.40625 11.722656 9.253906 C 11.902344 9.191406 12.085938 9.132812 12.269531 9.09375 C 12.351562 9.074219 12.4375 9.058594 12.515625 9.042969 C 12.359375 9.074219 12.359375 9.058594 12.515625 9.046875 C 13.117188 9.007812 13.632812 8.5625 13.632812 7.933594 C 13.632812 7.363281 13.121094 6.777344 12.515625 6.816406 Z M 12.546875 6.851562 "/>
</g>
</svg>
