<?xml version="1.0" encoding="UTF-8"?>
<svg id="Capa_2" data-name="Capa 2" xmlns="http://www.w3.org/2000/svg" viewBox="0 0 118.57 118.88">
  <defs>
    <style>
      .cls-1 {
        fill: #8aa88e;
      }

      .cls-2 {
        fill: #231f20;
      }
    </style>
  </defs>
  <g id="OBJECTS">
    <g>
      <path class="cls-1" d="m42.44,1.26c-7.64-2.11-16.34-1.8-22.89,2.66-6.58,4.48-10.01,12.4-11.48,20.22-1.48,7.82-1.33,15.86-2.51,23.73-2.15,14.27-8.61,28.92-3.85,42.54,3.44,9.86,12.71,17.19,22.95,19.23,10.24,2.04,21.17-.91,29.62-7.04,7.23-5.24,12.7-12.57,19.77-18.01,9.9-7.63,22.9-11.59,30.36-21.62,5.23-7.03,6.92-16.57,4.42-24.98-2.5-8.4-9.13-15.47-17.35-18.5-8.41-3.1-17.88-2.22-25.98-6.3-7.86-3.97-14.32-9.52-23.05-11.92Z"/>
      <path class="cls-2" d="m39.38,118.88c-2.23,0-4.44-.21-6.59-.64-10.73-2.14-19.86-9.79-23.25-19.49-3.47-9.95-1.01-20.55,1.38-30.81.91-3.92,1.85-7.97,2.45-11.92.53-3.53.8-7.16,1.06-10.67.32-4.3.64-8.75,1.46-13.07,1.24-6.56,4.27-15.44,11.65-20.47,6.05-4.13,14.52-5.12,23.22-2.72,5.73,1.58,10.57,4.55,15.25,7.42,2.52,1.55,5.13,3.15,7.87,4.53,4.44,2.24,9.42,2.98,14.23,3.7,3.9.58,7.93,1.19,11.71,2.58,8.32,3.07,15.07,10.26,17.6,18.76,2.53,8.5.81,18.21-4.48,25.33-4.74,6.38-11.8,10.38-18.63,14.26-4.01,2.28-8.16,4.63-11.81,7.44-3.33,2.57-6.37,5.62-9.31,8.57-3.27,3.28-6.65,6.68-10.47,9.45-6.93,5.03-15.3,7.75-23.35,7.75Zm2.21-110.28c-5.13,0-9.85,1.31-13.59,3.86-7.16,4.88-10.11,13.55-11.32,19.96-.81,4.27-1.13,8.7-1.45,12.98-.26,3.53-.53,7.17-1.06,10.73-.6,3.98-1.55,8.05-2.46,11.98-2.36,10.15-4.8,20.64-1.41,30.37,3.3,9.44,12.19,16.89,22.65,18.97,9.67,1.93,20.63-.68,29.31-6.97,3.77-2.73,7.13-6.1,10.37-9.36,2.95-2.97,6.01-6.04,9.39-8.64,3.69-2.85,7.87-5.21,11.9-7.5,6.75-3.83,13.74-7.8,18.38-14.04,5.15-6.92,6.82-16.36,4.36-24.63-2.46-8.27-9.01-15.26-17.11-18.24-3.7-1.36-7.69-1.96-11.55-2.54-4.87-.73-9.91-1.48-14.47-3.78-2.77-1.4-5.39-3.01-7.93-4.56-4.85-2.97-9.43-5.78-15.05-7.33-3.05-.84-6.07-1.26-8.96-1.26Z"/>
    </g>
  </g>
</svg>