<?xml version="1.0" encoding="UTF-8"?>
<svg xmlns="http://www.w3.org/2000/svg" xmlns:xlink="http://www.w3.org/1999/xlink" width="px" height="px" viewBox="0 0 59 56" version="1.1">
<g id="surface1">
<path style=" stroke:none;fill-rule:nonzero;fill:rgb(2.352941%,18.039216%,19.607843%);fill-opacity:1;" d="M 4.527344 38.105469 C 3.941406 42.421875 3.777344 47.367188 6.730469 50.519531 C 10.660156 54.71875 17.441406 53.238281 22.859375 51.445312 C 30.34375 48.96875 37.832031 46.496094 45.3125 44.011719 C 48.28125 43.03125 51.292969 42.023438 53.867188 40.238281 C 56.445312 38.441406 58.570312 35.726562 58.941406 32.570312 C 59.488281 27.824219 56.09375 23.621094 52.703125 20.328125 C 47.539062 15.324219 41.835938 10.90625 35.734375 7.167969 C 31.5625 4.617188 24.503906 -0.574219 19.277344 0.203125 C 13.492188 1.066406 11.632812 10.289062 10.023438 14.957031 C 7.445312 22.460938 5.59375 30.230469 4.523438 38.109375 Z M 4.527344 38.105469 "/>
<path style=" stroke:none;fill-rule:nonzero;fill:rgb(95.686275%,71.372549%,57.647059%);fill-opacity:1;" d="M 9.890625 55.875 C 7.140625 55.875 4.523438 55.167969 2.601562 53.109375 C -0.464844 49.832031 -0.214844 44.660156 0.347656 40.527344 L 0.554688 40.554688 L 0.347656 40.527344 C 1.414062 32.660156 3.269531 24.855469 5.859375 17.332031 C 6.097656 16.636719 6.347656 15.828125 6.605469 14.976562 C 8.136719 10.003906 10.230469 3.191406 15.277344 2.441406 C 19.839844 1.761719 25.679688 5.496094 29.945312 8.21875 C 30.632812 8.664062 31.277344 9.074219 31.867188 9.4375 C 38 13.191406 43.71875 17.625 48.875 22.625 C 51.867188 25.519531 55.765625 29.957031 55.179688 35.039062 C 54.839844 37.964844 52.960938 40.808594 50.023438 42.851562 C 47.402344 44.675781 44.355469 45.683594 41.414062 46.660156 L 18.957031 54.09375 C 16.277344 54.980469 13 55.875 9.898438 55.878906 Z M 16.40625 2.78125 C 16.042969 2.78125 15.683594 2.804688 15.332031 2.855469 C 10.542969 3.566406 8.496094 10.234375 7 15.097656 C 6.734375 15.953125 6.488281 16.761719 6.246094 17.46875 C 3.671875 24.960938 1.824219 32.738281 0.757812 40.582031 C 0.210938 44.625 -0.0429688 49.679688 2.90625 52.828125 C 6.789062 56.976562 13.445312 55.472656 18.816406 53.695312 L 41.273438 46.261719 C 44.1875 45.292969 47.203125 44.296875 49.777344 42.507812 C 52.617188 40.535156 54.4375 37.789062 54.761719 34.988281 C 55.328125 30.09375 51.507812 25.757812 48.582031 22.921875 C 43.449219 17.949219 37.75 13.53125 31.648438 9.789062 C 31.058594 9.425781 30.410156 9.011719 29.71875 8.570312 C 25.84375 6.09375 20.652344 2.769531 16.410156 2.769531 Z M 16.40625 2.78125 "/>
</g>
</svg>
