<?xml version="1.0" encoding="UTF-8"?>
<svg xmlns="http://www.w3.org/2000/svg" xmlns:xlink="http://www.w3.org/1999/xlink" width="px" height="px" viewBox="0 0 63 64" version="1.1">
<g id="surface1">
<path style=" stroke:none;fill-rule:nonzero;fill:rgb(95.686275%,71.372549%,57.647059%);fill-opacity:1;" d="M 25.628906 13.570312 C 12.625 8.519531 2.886719 5.253906 0.855469 17.269531 C -1.175781 29.285156 0.449219 53.785156 6.542969 59.796875 C 12.636719 65.808594 37.410156 58.410156 49.1875 53.324219 C 60.964844 48.238281 78.023438 33.910156 25.628906 13.570312 Z M 25.628906 13.570312 "/>
<path style=" stroke:none;fill-rule:nonzero;fill:rgb(42.352941%,82.745098%,63.529412%);fill-opacity:1;" d="M 31.316406 0.167969 C 21.976562 2.015625 13.039062 8.488281 19.132812 22.816406 C 25.226562 37.144531 39.84375 38.070312 47.96875 25.128906 C 56.09375 12.183594 47.566406 -1.683594 31.316406 0.167969 Z M 31.316406 0.167969 "/>
<path style=" stroke:none;fill-rule:nonzero;fill:rgb(2.352941%,18.039216%,19.607843%);fill-opacity:1;" d="M 41.109375 62.203125 C 41.109375 63.042969 40.421875 63.726562 39.570312 63.726562 C 38.722656 63.726562 38.035156 63.042969 38.035156 62.203125 C 38.035156 61.359375 38.722656 60.675781 39.570312 60.675781 C 40.421875 60.675781 41.109375 61.359375 41.109375 62.203125 Z M 41.109375 62.203125 "/>
<path style=" stroke:none;fill-rule:nonzero;fill:rgb(2.352941%,18.039216%,19.607843%);fill-opacity:1;" d="M 45.757812 63.554688 C 45.160156 64.148438 44.1875 64.148438 43.582031 63.554688 C 42.984375 62.960938 42.984375 61.996094 43.582031 61.394531 C 44.183594 60.800781 45.15625 60.800781 45.757812 61.394531 C 46.359375 61.988281 46.359375 62.957031 45.757812 63.554688 Z M 45.757812 63.554688 "/>
<path style=" stroke:none;fill-rule:nonzero;fill:rgb(2.352941%,18.039216%,19.607843%);fill-opacity:1;" d="M 41.507812 57.210938 C 41.238281 58.007812 40.371094 58.445312 39.5625 58.175781 C 38.757812 57.910156 38.320312 57.046875 38.589844 56.246094 C 38.859375 55.449219 39.726562 55.011719 40.535156 55.28125 C 41.335938 55.546875 41.777344 56.410156 41.507812 57.210938 Z M 41.507812 57.210938 "/>
<path style=" stroke:none;fill-rule:nonzero;fill:rgb(2.352941%,18.039216%,19.607843%);fill-opacity:1;" d="M 47.304688 58.378906 C 46.835938 59.082031 45.878906 59.273438 45.175781 58.800781 C 44.464844 58.335938 44.277344 57.386719 44.75 56.6875 C 45.21875 55.984375 46.179688 55.796875 46.882812 56.265625 C 47.589844 56.730469 47.78125 57.683594 47.304688 58.378906 Z M 47.304688 58.378906 "/>
<path style=" stroke:none;fill-rule:nonzero;fill:rgb(2.352941%,18.039216%,19.607843%);fill-opacity:1;" d="M 45.019531 53.277344 C 44.511719 53.949219 43.546875 54.085938 42.871094 53.582031 C 42.191406 53.078125 42.050781 52.121094 42.558594 51.449219 C 43.070312 50.773438 44.03125 50.636719 44.710938 51.140625 C 45.390625 51.648438 45.527344 52.601562 45.019531 53.277344 Z M 45.019531 53.277344 "/>
<path style=" stroke:none;fill-rule:nonzero;fill:rgb(2.352941%,18.039216%,19.607843%);fill-opacity:1;" d="M 51.746094 55.011719 C 51.277344 55.714844 50.320312 55.90625 49.617188 55.433594 C 48.90625 54.96875 48.71875 54.019531 49.191406 53.320312 C 49.660156 52.617188 50.617188 52.429688 51.324219 52.898438 C 52.03125 53.363281 52.222656 54.316406 51.746094 55.011719 Z M 51.746094 55.011719 "/>
<path style=" stroke:none;fill-rule:nonzero;fill:rgb(2.352941%,18.039216%,19.607843%);fill-opacity:1;" d="M 46.367188 48.210938 C 45.898438 48.914062 44.941406 49.101562 44.238281 48.632812 C 43.527344 48.164062 43.339844 47.214844 43.8125 46.515625 C 44.28125 45.8125 45.238281 45.625 45.945312 46.097656 C 46.652344 46.5625 46.839844 47.511719 46.367188 48.210938 Z M 46.367188 48.210938 "/>
<path style=" stroke:none;fill-rule:nonzero;fill:rgb(2.352941%,18.039216%,19.607843%);fill-opacity:1;" d="M 51.578125 49.847656 C 50.976562 50.445312 50.003906 50.445312 49.402344 49.847656 C 48.800781 49.253906 48.800781 48.289062 49.402344 47.691406 C 50 47.089844 50.972656 47.097656 51.578125 47.691406 C 52.175781 48.285156 52.175781 49.25 51.578125 49.847656 Z M 51.578125 49.847656 "/>
<path style=" stroke:none;fill-rule:nonzero;fill:rgb(2.352941%,18.039216%,19.607843%);fill-opacity:1;" d="M 49.675781 44.117188 C 49.207031 44.820312 48.25 45.007812 47.546875 44.535156 C 46.835938 44.070312 46.648438 43.121094 47.121094 42.421875 C 47.589844 41.71875 48.546875 41.53125 49.25 42 C 49.960938 42.46875 50.148438 43.417969 49.675781 44.117188 Z M 49.675781 44.117188 "/>
<path style=" stroke:none;fill-rule:nonzero;fill:rgb(2.352941%,18.039216%,19.607843%);fill-opacity:1;" d="M 56.492188 50.324219 C 55.734375 50.699219 54.808594 50.394531 54.429688 49.640625 C 54.050781 48.890625 54.363281 47.972656 55.121094 47.597656 C 55.878906 47.21875 56.800781 47.527344 57.179688 48.28125 C 57.558594 49.03125 57.25 49.949219 56.492188 50.324219 Z M 56.492188 50.324219 "/>
<path style=" stroke:none;fill-rule:nonzero;fill:rgb(2.352941%,18.039216%,19.607843%);fill-opacity:1;" d="M 53.613281 42.03125 C 53.015625 42.625 52.042969 42.625 51.4375 42.03125 C 50.832031 41.4375 50.839844 40.472656 51.4375 39.871094 C 52.035156 39.277344 53.007812 39.277344 53.613281 39.871094 C 54.210938 40.464844 54.210938 41.433594 53.613281 42.03125 Z M 53.613281 42.03125 "/>
<path style=" stroke:none;fill-rule:nonzero;fill:rgb(2.352941%,18.039216%,19.607843%);fill-opacity:1;" d="M 58.410156 44.230469 C 58.410156 45.070312 57.71875 45.753906 56.871094 45.753906 C 56.023438 45.753906 55.335938 45.070312 55.335938 44.230469 C 55.335938 43.386719 56.023438 42.703125 56.871094 42.703125 C 57.71875 42.703125 58.410156 43.386719 58.410156 44.230469 Z M 58.410156 44.230469 "/>
<path style=" stroke:none;fill-rule:nonzero;fill:rgb(2.352941%,18.039216%,19.607843%);fill-opacity:1;" d="M 58.488281 40.644531 C 57.890625 41.238281 56.917969 41.238281 56.3125 40.644531 C 55.714844 40.050781 55.714844 39.085938 56.3125 38.484375 C 56.910156 37.890625 57.882812 37.890625 58.488281 38.484375 C 59.085938 39.082031 59.085938 40.046875 58.488281 40.644531 Z M 58.488281 40.644531 "/>
<path style=" stroke:none;fill-rule:nonzero;fill:rgb(2.352941%,18.039216%,19.607843%);fill-opacity:1;" d="M 61.4375 45.691406 C 60.589844 45.691406 59.898438 45.007812 59.898438 44.164062 C 59.898438 43.324219 60.589844 42.640625 61.4375 42.640625 C 62.285156 42.640625 62.972656 43.324219 62.972656 44.164062 C 62.972656 45.007812 62.285156 45.691406 61.4375 45.691406 Z M 61.4375 45.691406 "/>
</g>
</svg>
