<?xml version="1.0" encoding="UTF-8"?>
<svg id="Capa_2" data-name="Capa 2" xmlns="http://www.w3.org/2000/svg" viewBox="0 0 126.15 129.26">
  <defs>
    <style>
      .cls-1 {
        fill: #f4b693;
      }

      .cls-2 {
        fill: #6cd3a2;
      }

      .cls-3 {
        fill: #062E32;
      }
    </style>
  </defs>
  <g id="OBJECTS">
    <g>
      <path class="cls-1" d="m51.31,27.41C25.25,17.21,5.73,10.61,1.66,34.88c-4.07,24.27-.81,73.75,11.4,85.89,12.21,12.14,61.86-2.8,85.46-13.07,23.6-10.27,57.79-39.21-47.21-80.29Z"/>
      <path class="cls-2" d="m62.71.34c-18.72,3.73-36.63,16.8-24.42,45.74,12.21,28.94,41.51,30.81,57.79,4.67C112.36,24.61,95.27-3.4,62.71.34Z"/>
      <g>
        <circle class="cls-3" cx="79.25" cy="125.63" r="3.08"/>
        <path class="cls-3" d="m91.65,128.36c-1.2,1.2-3.15,1.2-4.36,0-1.2-1.2-1.2-3.15,0-4.36,1.2-1.2,3.15-1.2,4.36,0,1.2,1.2,1.2,3.15,0,4.36Z"/>
        <path class="cls-3" d="m83.13,115.55c-.54,1.61-2.28,2.49-3.9,1.95-1.61-.54-2.49-2.28-1.95-3.9.54-1.61,2.28-2.49,3.9-1.95,1.61.54,2.49,2.28,1.95,3.9Z"/>
        <path class="cls-3" d="m94.75,117.91c-.94,1.42-2.86,1.8-4.27.85-1.42-.94-1.8-2.86-.85-4.27.94-1.42,2.86-1.8,4.27-.85,1.42.94,1.8,2.86.85,4.27Z"/>
        <path class="cls-3" d="m90.17,107.6c-1.02,1.36-2.95,1.64-4.31.62-1.36-1.02-1.64-2.95-.62-4.31,1.02-1.36,2.95-1.64,4.31-.62,1.36,1.02,1.64,2.95.62,4.31Z"/>
        <path class="cls-3" d="m103.65,111.11c-.94,1.42-2.86,1.8-4.27.85-1.42-.94-1.8-2.86-.85-4.27.94-1.42,2.86-1.8,4.27-.85,1.42.94,1.8,2.86.85,4.27Z"/>
        <path class="cls-3" d="m92.87,97.37c-.94,1.42-2.86,1.8-4.27.85-1.42-.94-1.8-2.86-.85-4.27.94-1.42,2.86-1.8,4.27-.85,1.42.94,1.8,2.86.85,4.27Z"/>
        <path class="cls-3" d="m103.31,100.68c-1.2,1.2-3.15,1.2-4.36,0-1.2-1.2-1.2-3.15,0-4.36s3.15-1.2,4.36,0c1.2,1.2,1.2,3.15,0,4.36Z"/>
        <path class="cls-3" d="m99.5,89.1c-.94,1.42-2.86,1.8-4.27.85-1.42-.94-1.8-2.86-.85-4.27.94-1.42,2.86-1.8,4.27-.85,1.42.94,1.8,2.86.85,4.27Z"/>
        <path class="cls-3" d="m113.16,101.64c-1.52.76-3.37.14-4.13-1.38-.76-1.52-.14-3.37,1.38-4.13,1.52-.76,3.37-.14,4.13,1.38.76,1.52.14,3.37-1.38,4.13Z"/>
        <path class="cls-3" d="m107.39,84.89c-1.2,1.2-3.15,1.2-4.36,0s-1.2-3.15,0-4.36c1.2-1.2,3.15-1.2,4.36,0,1.2,1.2,1.2,3.15,0,4.36Z"/>
        <circle class="cls-3" cx="113.92" cy="89.33" r="3.08"/>
        <path class="cls-3" d="m117.16,82.09c-1.2,1.2-3.15,1.2-4.36,0-1.2-1.2-1.2-3.15,0-4.36,1.2-1.2,3.15-1.2,4.36,0,1.2,1.2,1.2,3.15,0,4.36Z"/>
        <path class="cls-3" d="m123.07,92.28c-1.7,0-3.08-1.38-3.08-3.08s1.38-3.08,3.08-3.08,3.08,1.38,3.08,3.08-1.38,3.08-3.08,3.08Z"/>
      </g>
    </g>
  </g>
</svg>