<?xml version="1.0" encoding="UTF-8"?>
<svg id="Capa_2" data-name="Capa 2" xmlns="http://www.w3.org/2000/svg" xmlns:xlink="http://www.w3.org/1999/xlink" viewBox="0 0 541.08 319.68">
  <defs>
    <style>
      .cls-1 {
        fill: #8c517b;
      }

      .cls-2 {
        fill: #fac9a9;
      }

      .cls-3 {
        clip-path: url(#clippath);
      }

      .cls-4 {
        fill: none;
      }

      .cls-5 {
        fill: #f7f7f7;
      }
    </style>
    <clipPath id="clippath">
      <rect class="cls-4" width="541.08" height="319.68"/>
    </clipPath>
  </defs>
  <g id="OBJECTS">
    <g class="cls-3">
      <g>
        <path class="cls-5" d="m233.13,229.85c41.99,8.8,85.3,15.79,127.66,8.95,42.36-6.84,84.13-29.64,104.13-67.6,9.49-18.03,12.38-43.09-2.95-56.51-4.93-4.32-11.14-6.84-17.32-9.03-70.45-25.04-152.34-17.91-215.23-58.35-11.67-7.5-22.67-16.64-35.98-20.56-15.12-4.45-31.35-1.61-46.68,2.04-17.2,4.09-34.69,9.44-48.31,20.72-22.88,18.95-30.46,52.75-21.96,81.22,19.36,64.87,98.45,86.93,156.63,99.13Z"/>
        <path class="cls-1" d="m230.46,317.52c-11.88,0-23.28-.73-34.29-2.19-41.48-5.49-77.37-21.8-101.06-45.93-23.45-23.88-34.07-56.46-27.7-85.04.76-3.43,1.69-6.55,2.59-9.58,2.75-9.27,5.13-17.29.39-27.72l-1.35-2.96c-7.25-15.89-13.52-29.61-12.79-47.24h0c.22-5.2,1.01-11.82,5.3-16.99,8.94-10.78,27.62-9.8,42.13-5.29,27.23,8.47,50.52,24.52,73.04,40.04,22.78,15.71,46.35,31.94,73.88,40.2,10.79,3.24,22.28,5.26,33.4,7.22,16.88,2.97,34.34,6.05,49.66,13.45,31.12,15.03,49.29,48.2,43.2,78.88-3.21,16.17-12.7,30.51-26.04,39.33-11.95,7.9-26.73,11.54-39.64,14.33-29.36,6.34-56.04,9.49-80.69,9.49ZM57.03,96.9l.8.03c-.72,17.33,5.49,30.93,12.68,46.67l1.35,2.97c4.93,10.86,2.5,19.07-.32,28.59-.89,3-1.81,6.11-2.56,9.49-6.27,28.17,4.21,60.3,27.35,83.85,23.45,23.87,58.99,40.01,100.09,45.46,33.64,4.45,71.05,2.08,114.36-7.27,12.76-2.76,27.36-6.34,39.06-14.08,13.02-8.61,22.29-22.63,25.43-38.45,5.97-30.11-11.86-62.66-42.4-77.42-15.1-7.29-32.44-10.35-49.2-13.3-11.16-1.97-22.71-4-33.6-7.27-27.79-8.33-51.46-24.65-74.35-40.42-22.42-15.45-45.61-31.43-72.58-39.82-13.96-4.34-31.88-5.36-40.3,4.8-4.03,4.86-4.79,11.22-4.99,16.22l-.8-.03Z"/>
        <g>
          <path class="cls-1" d="m434.54,258.94c-.35,1.04-.47,1.77-.44,2.82,0,.33.1.63.18.95.08.33.15.63.31.92.48.86,1.04,1.56,1.9,2.09.73.44,1.47.65,2.34.77.83.11,1.68.1,2.55-.17.14-.04.27-.1.41-.15.24-.02.47-.02.71-.07.63-.11,1.28-.36,1.87-.68.44-.24.87-.55,1.28-.85.16-.12.31-.25.45-.4.35-.36.71-.72,1.02-1.11.31-.4.55-.87.79-1.31.32-.58.5-1.24.61-1.86.18-1,.03-1.85-.23-2.75-.05-.17-.1-.33-.18-.48-.22-.42-.46-.84-.76-1.2-.41-.5-.94-.95-1.52-1.26-.56-.3-1.19-.59-1.85-.7-.45-.08-.92-.15-1.39-.17-.5-.02-1.02.07-1.52.14-.71.1-1.42.37-2.09.69-.18.08-.35.18-.51.29-.46.29-.93.59-1.35.94-1.09.92-2.12,2.25-2.55,3.55Z"/>
          <path class="cls-1" d="m435.78,228.3c-.34.33-.66.68-.96,1.04-.36.44-.64.98-.88,1.46-.06.11-.1.23-.14.34-.14.41-.27.83-.35,1.25-.1.55-.11,1.11-.04,1.64.05.41.18.8.29,1.19.04.13.08.25.14.37.48,1.03,1.24,1.94,2.24,2.51.49.28,1.02.52,1.59.65.42.1.87.14,1.3.18.16.01.33.01.49,0,.49.02.96-.08,1.42-.3.49-.15.94-.4,1.34-.77.42-.34.75-.74.96-1.21.18-.27.3-.55.39-.84.23-.23.46-.46.66-.72.28-.36.49-.78.7-1.18.06-.12.12-.23.17-.36.16-.41.27-.85.37-1.27.12-.54.11-1.11.09-1.63,0-.12-.02-.25-.05-.37-.09-.4-.17-.82-.32-1.19-.1-.24-.25-.46-.39-.68-.14-.23-.27-.47-.46-.66-.28-.27-.58-.55-.9-.76-.33-.22-.74-.36-1.12-.51-.48-.18-1.03-.23-1.56-.24-.52-.01-1.08.06-1.61.2-.27.07-.53.18-.8.28-.27.1-.55.2-.81.33-.11.05-.21.11-.31.18-.39.25-.8.51-1.17.8-.1.08-.2.17-.29.26Z"/>
          <path class="cls-1" d="m399.58,242.01c-.63,1.04-1.12,2.11-1.22,3.26-.11,1.21,0,2.17.37,3.26.37,1.1,1.67,1.89,2.91,1.83.62-.03,1.25-.06,1.87-.09.98-.05,1.95-.37,2.76-1.06.36-.29.63-.64.85-1.02.25-.16.49-.33.72-.51,1.56-1.25,2.53-3.34,2.29-5.12-.32-2.3-2.39-3.88-4.82-3.78-1.06.04-2.23.29-3.21.88-.99.6-1.92,1.36-2.52,2.35Z"/>
          <path class="cls-1" d="m421.29,249.91c2.83,3.3,8.82-1.83,5.99-5.13-2.83-3.3-8.82,1.83-5.99,5.13Z"/>
          <path class="cls-1" d="m467.11,245.81c-.65.77-.98,1.72-1.18,2.62-.11.47-.1.98-.06,1.43.03.37.16.73.25,1.07.02.09.05.17.09.24.32.67.77,1.26,1.42,1.65.07.04.14.07.22.11,0,.14-.01.29,0,.42.03.48.19.9.46,1.26.2.42.51.74.93.98.77.42,1.73.63,2.69.35,1-.29,1.88-.86,2.53-1.72.5-.67.91-1.38,1.31-2.1.39-.72.61-1.47.79-2.23.05-.22.08-.44.09-.67.03-.48.07-1-.02-1.46-.19-.99-.49-1.73-1.1-2.5-.59-.75-1.37-1.18-2.27-1.52-.41-.16-.89-.19-1.35-.23-.48-.05-.99.04-1.47.14-.24.05-.48.16-.71.24-.21.08-.47.16-.68.27-.87.5-1.31.9-1.95,1.65Z"/>
          <path class="cls-1" d="m465.89,228.48c-.25.34-.44.71-.62,1.08-.21.46-.3.92-.27,1.38-.05.47.02.92.21,1.33.17.45.44.8.82,1.07.31.33.7.54,1.17.65.3.04.61.08.91.12.65,0,1.27-.16,1.89-.47.22-.15.45-.3.67-.46.29-.07.58-.17.86-.32.49-.23.9-.56,1.23-.98.39-.36.67-.78.85-1.26.09-.31.18-.61.26-.92.1-.64.03-1.23-.2-1.79-.16-.26-.32-.52-.48-.77-.4-.46-.9-.78-1.52-.94-.04,0-.08-.02-.12-.02-.31-.05-.64-.09-.95-.12-.02,0-.03,0-.05,0-.04,0-.07,0-.11,0-.02,0-.04,0-.06,0-.31.03-.68.08-.99.12-.08.01-.16.03-.24.06-.38.13-.78.26-1.15.44-.37.19-.76.49-1.06.7-.07.05-.14.11-.2.17-.3.3-.61.6-.86.94Z"/>
          <path class="cls-1" d="m453.41,269.27c-.28.42-.45.87-.51,1.36-.09.48-.06.93.09,1.36.07.47.27.87.59,1.21.23.2.46.39.69.59.51.31,1.09.47,1.74.47.32-.04.63-.08.95-.12.67-.17,1.27-.48,1.81-.95l1.26-1.08c.42-.34.75-.74.96-1.21.28-.42.45-.87.51-1.36.09-.48.06-.93-.09-1.36-.07-.47-.27-.87-.59-1.21-.23-.2-.46-.39-.69-.59-.51-.31-1.09-.47-1.74-.47-.32.04-.63.08-.95.12-.67.17-1.27.48-1.81.95l-1.26,1.08c-.42.34-.75.74-.96,1.21Z"/>
          <path class="cls-1" d="m490.88,253.51c-.58.7-1.02,1.51-1.43,2.3-.89,1.73-1.17,3.61-1.12,5.39.03.48.19.9.46,1.26.2.42.51.74.93.98.8.44,1.7.58,2.69.35.59-.13,1.18-.27,1.77-.4.89-.2,1.82-.84,2.41-1.59.33-.23.67-.45.98-.7.26-.2.5-.42.73-.66.44-.45.91-.92,1.24-1.45.59-.94,1.1-1.97,1.16-3.02.06-1.01,0-2-.44-2.86-.2-.38-.45-.83-.77-1.16-.59-.6-1.09-.9-1.9-1.2-.41-.15-.9-.2-1.35-.21-.87-.03-1.67.24-2.5.59-.14.06-.27.13-.4.21-.38.24-.78.49-1.13.78-.5.41-.94.92-1.35,1.41Z"/>
          <path class="cls-1" d="m488.24,230.96c-.21.46-.3.92-.27,1.38-.05.47.02.92.21,1.33.17.45.44.8.82,1.07.31.33.7.54,1.17.65h.02c.09.07.17.16.28.22.28.12.55.24.83.35.6.16,1.22.16,1.86,0,.31-.12.62-.24.94-.35.64-.33,1.17-.79,1.59-1.36.21-.27.58-1.01.55-.96.02-.03.03-.07.04-.1.24-.73.4-1.27.3-2.01-.04-.33-.14-.64-.24-.95-.01-.03-.03-.06-.04-.09-.15-.28-.32-.58-.52-.84-.02-.03-.05-.05-.07-.08-.24-.22-.49-.45-.76-.64-.03-.02-.06-.04-.09-.06-.29-.16-.6-.27-.91-.39-.03-.01-.07-.02-.1-.03-.03,0-.07-.02-.1-.02-.23-.04-.69-.09-.92-.12-.01,0-.02,0-.03,0-.02,0-.03,0-.05,0-.32,0-1.03.12-1.04.12-.03,0-.07.01-.1.02,0,0-.02,0-.03,0-.16.06-.32.12-.48.18-.16.06-.32.12-.48.18-.02,0-.04.02-.06.03-.34.18-.66.4-.96.65-.67.56-.99,1.09-1.35,1.83Z"/>
          <path class="cls-1" d="m513.35,232.73s-.05.06-.07.1c0,.01-.44.67-.54.98-.05.14-.23.78-.27.93,0,.01,0,.02,0,.03,0,.02,0,.04,0,.06-.07.92-.06,1.04.21,1.88.1.33.33.6.53.88.09.12.21.21.32.3.09.16.19.32.32.46.29.37.65.62,1.1.77.39.21.84.31,1.33.29.32-.04.63-.08.95-.12.67-.17,1.27-.48,1.81-.95l.72-.77c.4-.56.66-1.15.76-1.79l.17-1.01c.01-.08.03-.16.04-.23,0-.04.01-.08.02-.13.11-.67.06-1.31-.18-1.9-.26-.63-.67-1.04-1.23-1.42-.27-.18-.59-.3-.91-.39-.68-.2-1.32-.14-2.05,0-.18.03-.46.17-.57.21-.14.05-.4.13-.58.23-.33.19-.65.42-.96.65-.04.03-.07.06-.1.09-.28.27-.55.55-.79.85Z"/>
          <path class="cls-1" d="m524.92,207.03c-.34.33-.72.7-.99,1.1-.22.32-.4.68-.59,1.02-.04.07-.08.14-.11.22-.18.43-.3.88-.38,1.33-.09.48-.06.93.09,1.36.07.47.27.87.59,1.21.11.14.24.25.37.35,0,.36.05.71.2,1.03.17.45.44.8.82,1.07.31.33.7.54,1.17.65.3.04.61.08.91.12.65,0,1.27-.16,1.89-.47.29-.2.58-.39.87-.59.54-.46.94-1.01,1.21-1.65.2-.6.39-1.21.48-1.82.02-.15.04-.31.05-.46.03-.45.04-.91.03-1.36,0-.3-.05-.6-.11-.89-.13-.58-.26-1.17-.5-1.7-.17-.45-.44-.8-.82-1.07-.31-.33-.7-.54-1.17-.65-.3-.04-.61-.08-.91-.12-.65,0-1.27.16-1.89.47-.35.22-.71.45-1.04.7-.07.05-.13.11-.19.16Z"/>
          <path class="cls-1" d="m490.49,201.79c-.24.34-.43.71-.62,1.07-.04.08-.08.17-.11.26-.11.33-.27.78-.32,1.16-.05.4-.07.8-.03,1.18.09.84.39,1.44.87,2.09.29.37.65.62,1.1.77.39.21.83.31,1.33.29.49.02.96-.08,1.42-.3.32-.09.61-.25.89-.44.28-.03.56-.07.84-.1.67-.17,1.27-.48,1.81-.95.24-.26.48-.52.72-.77.4-.56.66-1.15.76-1.79,0-.04.01-.08.02-.12,0-.02,0-.05,0-.07.02-.29.03-.66.02-.94,0-.08-.01-.16-.03-.24-.06-.28-.15-.62-.23-.89,0-.02-.01-.04-.02-.06-.01-.03-.02-.06-.04-.09-.16-.34-.36-.65-.58-.95-.04-.06-.09-.11-.14-.16-.24-.22-.5-.44-.76-.65-.03-.03-.07-.05-.11-.07-.3-.18-.66-.31-.98-.43-.07-.03-.15-.05-.23-.07-.32-.06-.67-.1-1-.13-.04,0-.08,0-.11,0-.04,0-.08,0-.12,0-.29.03-.68.08-.97.12-.03,0-.05,0-.08.02-.89.2-1.49.6-2.24,1.14-.07.05-.14.11-.2.17-.3.3-.62.61-.87.95Z"/>
          <path class="cls-1" d="m445.12,203.67c-.28.42-.45.87-.51,1.36-.09.48-.06.93.09,1.36.07.47.27.87.59,1.21l.69.59c.26.16.54.28.84.35.19.27.42.5.72.67.28.12.55.24.83.35.6.16,1.22.16,1.86,0,.31-.12.62-.24.94-.35.64-.33,1.17-.79,1.59-1.36.54-.77.83-1.48,1-2.35.08-.4.05-.84.05-1.21,0-.1-.01-.2-.03-.3-.07-.34-.15-.78-.31-1.13-.08-.18-.2-.35-.3-.51-.1-.16-.2-.35-.32-.5-.03-.04-.06-.07-.09-.1-.12-.12-.28-.24-.4-.34-.12-.1-.26-.23-.4-.34-.04-.03-.07-.05-.12-.08-.3-.17-.64-.29-.95-.41-.6-.16-1.22-.16-1.86,0-.67.17-1.27.48-1.81.95-.38.31-.76.63-1.13.94-.42.34-.75.74-.96,1.21Z"/>
          <path class="cls-1" d="m419.47,216.96c-.28.42-.45.87-.51,1.36-.09.48-.06.93.09,1.36.07.47.27.87.59,1.21.23.2.46.39.69.59.51.31,1.09.47,1.74.47.32-.04.63-.08.95-.12.67-.17,1.27-.48,1.81-.95l.42-.36c.42-.34.75-.74.96-1.21.28-.42.45-.87.51-1.36.09-.48.06-.93-.09-1.36-.07-.47-.27-.87-.59-1.21-.23-.2-.46-.39-.69-.59-.51-.31-1.09-.47-1.74-.47-.32.04-.63.08-.95.12-.67.17-1.27.48-1.81.95l-.42.36c-.42.34-.75.74-.96,1.21Z"/>
          <path class="cls-1" d="m384.44,217.37c-.32.34-.66.68-.95,1.05-.35.45-.62.97-.87,1.46-.24.47-.38,1.04-.49,1.51-.12.51-.12,1.05-.09,1.54,0,.1.02.2.04.3.06.29.16.81.32,1.15.4.82.76,1.18,1.46,1.72.36.29.85.46,1.3.6.09.03.18.05.27.06.39.06.79.14,1.2.14.41,0,.83-.08,1.24-.13.12-.02.23-.04.35-.07.06-.02.12-.04.18-.06.35-.12.71-.25,1.05-.4.1-.04.19-.1.29-.16.28-.17.8-.48,1.1-.78.27-.25.56-.57.8-.86.04-.05.07-.09.1-.14.23-.35.48-.72.61-1.11.12-.34.23-.71.3-1.05.01-.06.02-.12.03-.18.03-.15.02-.28.03-.42.04-.15.09-.29.13-.44.03-.12.04-.25.05-.37.03-.51.07-1.04-.03-1.53-.08-.35-.17-.79-.31-1.14-.1-.24-.24-.44-.38-.66-.13-.2-.24-.43-.4-.61-.03-.04-.07-.07-.1-.11-.25-.24-.53-.48-.8-.69-.08-.06-.17-.11-.26-.16-.29-.15-.62-.28-.93-.4-.03-.01-.06-.02-.08-.03-.3-.04-.61-.08-.91-.12-.32.04-.63.08-.95.12-.46.1-1.12.4-1.57.69-.49.32-1.01.64-1.45,1.03-.09.08-.18.17-.26.25Z"/>
          <path class="cls-1" d="m409.98,197.38c-.17.17-.57.61-.73.78-.02.02-.04.04-.06.07-.03.04-.05.07-.08.11-.17.28-.37.63-.52.92-.01.02-.02.04-.03.07-.02.04-.04.09-.05.14-.1.3-.2.65-.27.96,0,.03-.01.05-.02.08,0,.04-.01.09-.02.13-.01.17-.01.37-.02.52,0,.16-.02.36-.01.53,0,.09.02.18.04.27.07.31.15.62.24.92,0,.02.01.04.02.07.02.04.03.09.05.13,0,.02.02.03.03.05.16.27.33.55.5.81.03.04.05.08.08.11.03.03.06.06.09.09.22.2.48.43.72.61.02.02.04.03.06.04.04.03.09.05.13.07.28.13.58.27.87.37.02,0,.05.02.07.02.03,0,.05.01.08.02.15.03.39.05.48.06.13.02.33.05.5.06.06,0,.11,0,.17,0,.49.02.96-.08,1.42-.3.49-.15.94-.4,1.34-.77.42-.34.75-.74.96-1.21.16-.24.27-.48.36-.74.15-.22.29-.45.4-.7.09-.31.17-.61.26-.92.1-.64.03-1.23-.2-1.79-.16-.32-.37-.61-.55-.91-.03-.05-.07-.11-.11-.16-.08-.1-.17-.2-.26-.28-.29-.26-.62-.58-.98-.8-.05-.03-.1-.06-.16-.08-.32-.15-.66-.3-.99-.42-.6-.16-1.22-.16-1.86,0-.67.17-1.27.48-1.81.95-.04.03-.08.06-.11.09-.01.01-.02.02-.03.03Z"/>
          <path class="cls-1" d="m466.38,173.46c-.16.29-.33.58-.49.87-.25.61-.35,1.23-.29,1.84,0,.84-.01,1.67-.02,2.51.03.48.19.9.46,1.26.2.42.51.74.93.98.38.25.81.39,1.28.41.45.1.92.08,1.41-.06.31-.12.62-.24.94-.35.64-.33,1.17-.79,1.59-1.36l.49-.87c.25-.61.35-1.23.29-1.84,0-.84.01-1.67.02-2.51-.03-.48-.19-.9-.46-1.26-.2-.42-.51-.74-.93-.98-.38-.25-.81-.39-1.28-.41-.45-.1-.92-.08-1.41.06-.31.12-.62.24-.94.35-.64.33-1.17.79-1.59,1.36Z"/>
          <path class="cls-1" d="m473.76,201.5c-.28.42-.45.87-.51,1.36-.09.48-.06.93.09,1.36.07.47.27.87.59,1.21.23.2.46.39.69.59.51.31,1.09.47,1.74.47.32-.04.63-.08.95-.12.67-.17,1.27-.48,1.81-.95l.42-.36c.42-.34.75-.74.96-1.21.28-.42.45-.87.51-1.36.09-.48.06-.93-.09-1.36-.07-.47-.27-.87-.59-1.21-.23-.2-.46-.39-.69-.59-.51-.31-1.09-.47-1.74-.47-.32.04-.63.08-.95.12-.67.17-1.27.48-1.81.95l-.42.36c-.42.34-.75.74-.96,1.21Z"/>
          <path class="cls-1" d="m531.87,178.91c-.32.43-.57.9-.79,1.37-.23.47-.35,1-.47,1.47-.05.2-.09.41-.1.61-.03.47-.07.99,0,1.45.15,1,.5,1.85,1.12,2.6.29.37.65.62,1.1.77.39.21.83.31,1.33.29.49.02.96-.08,1.42-.3.49-.15.94-.4,1.34-.77.24-.26.48-.52.72-.77.26-.36.44-.75.57-1.15.09-.1.18-.19.26-.29.1-.11.18-.24.25-.36.21-.37.51-.82.66-1.24.13-.35.21-.71.31-1.07.02-.07.04-.14.05-.22.08-.43.06-.87.06-1.29,0-.14,0-.27-.03-.4-.07-.34-.16-.68-.26-1.01-.02-.07-.04-.13-.07-.19-.03-.06-.06-.12-.09-.18-.18-.31-.36-.62-.57-.91-.23-.2-.46-.39-.69-.59-.38-.25-.81-.39-1.28-.41-.3-.08-.61-.08-.93,0-.48.02-.95.16-1.41.41-.99.57-1.81,1.25-2.49,2.17Z"/>
          <path class="cls-1" d="m510.24,201.8c-.08.11-.16.22-.22.34-.23.39-.48.79-.67,1.21-.05.12-.1.24-.14.37-.13.42-.27.85-.35,1.28-.1.54-.1,1.1-.07,1.63.03.46.15.9.29,1.33-.04.46.02.89.21,1.29.17.45.44.8.82,1.07.31.33.7.54,1.17.65l.91.12c.65,0,1.27-.16,1.89-.47.29-.2.58-.39.87-.59.54-.46.94-1.01,1.21-1.65.18-.32.32-.66.42-1,.19-.62.39-1.26.46-1.89.04-.46.05-.92.05-1.37,0-.17,0-.34-.03-.51-.07-.62-.23-1.23-.44-1.8-.25-.58-.64-1.03-1.17-1.36-.51-.31-1.09-.47-1.74-.47-1.32,0-2.64.72-3.48,1.84Z"/>
          <path class="cls-1" d="m484.98,217.98c-.28.42-.45.87-.51,1.36-.09.48-.06.93.09,1.36.07.47.27.87.59,1.21.23.2.46.39.69.59.51.31,1.09.47,1.74.47l.95-.12c.67-.17,1.27-.48,1.81-.95l.42-.36c.42-.34.75-.74.96-1.21.28-.42.45-.87.51-1.36.09-.48.06-.93-.09-1.36-.07-.47-.27-.87-.59-1.21-.23-.2-.46-.39-.69-.59-.51-.31-1.09-.47-1.74-.47-.32.04-.63.08-.95.12-.67.17-1.27.48-1.81.95l-.42.36c-.42.34-.75.74-.96,1.21Z"/>
          <path class="cls-1" d="m444.32,186.81c-.25.33-.43.72-.62,1.07-.04.08-.08.16-.11.24-.13.38-.25.76-.32,1.14-.09.48-.06.93.09,1.36.07.47.27.87.59,1.21.29.37.65.62,1.1.77.39.21.84.31,1.33.29.32-.04.63-.08.95-.12.67-.17,1.27-.48,1.81-.95l.15-.16c.05,0,.1.02.15.01.49.02.96-.08,1.42-.3.49-.15.94-.4,1.34-.77.24-.26.48-.52.72-.77.4-.56.66-1.15.76-1.79l.02-.92c-.07-.63-.3-1.18-.7-1.64-.31-.31-.64-.65-1.06-.84-.23-.11-.68-.33-1.02-.42-.36-.09-.76-.12-1.12-.15-.46-.04-.98.06-1.43.13-.47.07-1,.32-1.42.49-.17.07-.33.15-.49.25-.4.26-.91.55-1.27.92-.21.21-.63.63-.87.95Z"/>
          <path class="cls-1" d="m492.28,179.32c-.09.11-.17.22-.24.33-.2.33-.39.66-.57,1-.03.05-.05.11-.08.16-.03.06-.05.12-.07.19-.12.35-.22.72-.31,1.07-.03.12-.06.24-.07.36-.05.42-.05.84-.04,1.25,0,.12.02.24.04.35.08.39.16.8.31,1.17.02.05.04.1.07.15.17.31.37.62.56.91.29.37.65.62,1.1.77.26.14.54.21.84.25.34.11.69.19,1.08.19.32-.04.63-.08.95-.12.67-.17,1.27-.48,1.81-.95.32-.32.73-.7.98-1.11.23-.37.52-.82.67-1.25.14-.42.3-.88.35-1.32.04-.37.03-.74.04-1.1,0-.08,0-.15,0-.23-.04-.43-.17-.85-.3-1.25-.13-.4-.44-.81-.63-1.11-.07-.11-.16-.21-.26-.3-.27-.25-.63-.62-1.02-.79-.38-.25-.81-.39-1.28-.41-.45-.1-.92-.08-1.41.06-.31.12-.62.24-.94.35-.64.33-1.17.79-1.59,1.36Z"/>
          <path class="cls-1" d="m509.79,173.44c-.16.29-.33.58-.49.87-.25.61-.35,1.23-.29,1.84.02.6.03,1.2.05,1.8.03.48.19.9.46,1.26.2.42.51.74.93.98.38.25.81.39,1.28.41.45.1.92.08,1.41-.06.31-.12.62-.24.94-.35.64-.33,1.17-.79,1.59-1.36.16-.29.33-.58.49-.87.25-.61.35-1.23.29-1.84-.02-.6-.03-1.2-.05-1.8-.03-.48-.19-.9-.46-1.26-.2-.42-.51-.74-.93-.98-.38-.25-.81-.39-1.28-.41-.45-.1-.92-.08-1.41.06-.31.12-.62.24-.94.35-.64.33-1.17.79-1.59,1.36Z"/>
          <path class="cls-1" d="m420.82,182.01c-.24.32-.46.76-.61,1.05-.03.06-.06.13-.09.19-.13.37-.25.74-.32,1.12,0,.04-.01.08-.02.12-.03.34-.03.68-.03,1.02,0,.36.18.81.25,1.07.1.33.45.8.56.95.2.3.6.55.82.74.38.25.81.39,1.28.41.45.1.92.08,1.41-.06.12-.03.22-.08.34-.11.16-.02.33-.04.49-.06.67-.17,1.27-.48,1.81-.95.68-.62,1.13-1.22,1.49-2.03.16-.37.25-.75.33-1.13.08-.36.05-.94.05-1.16,0-.08,0-.15-.02-.23-.07-.33-.15-.65-.25-.97-.01-.04-.03-.08-.04-.11-.34-.73-.76-1.24-1.43-1.68-.46-.3-1.21-.54-1.81-.49-.34.03-.68.07-1.02.13-.04,0-.07.02-.11.03-.17.05-.37.14-.5.19-.14.05-.35.13-.52.2-.34.15-.97.63-1.04.68-.06.04-.12.09-.18.15-.29.29-.6.59-.85.92Z"/>
          <path class="cls-1" d="m387.02,193.62c-.28.27-.57.56-.81.88-.23.31-.41.66-.57.99-.01.02-.02.05-.03.07,0,.01,0,.02-.01.04-.07.22-.22.72-.27.94,0,.03-.01.06-.01.08,0,0,0,.02,0,.03,0,.31-.02.61-.02.92,0,0,0,.02,0,.03.02.35.14.69.25,1.01.17.45.44.8.82,1.07.3.31.67.52,1.12.63.14.18.3.34.49.47.31.33.7.54,1.17.65.44.14.91.16,1.39.06.48-.02.95-.16,1.41-.41.29-.2.58-.39.87-.59.54-.46.94-1.01,1.21-1.65.09-.31.18-.61.26-.92.1-.64.03-1.23-.2-1.79-.1-.36-.19-.72-.29-1.08-.05-.18-.1-.36-.14-.54-.02-.09-.05-.17-.07-.26,0-.02,0-.04-.01-.06-.16-.26-.32-.52-.48-.77-.23-.2-.46-.39-.69-.59-.02-.01-.04-.03-.06-.04-.01,0-.02-.01-.03-.02-.09-.04-.74-.33-.83-.36-.02,0-.04-.01-.06-.02-.01,0-.02,0-.04,0-.1-.02-.82-.11-.92-.12-.02,0-.05,0-.07,0-.02,0-.04,0-.07,0-.21.02-.76.08-.97.12,0,0-.02,0-.03,0-.02,0-.05.01-.07.02-.01,0-.03,0-.04.01-.26.08-.7.26-.96.36-.05.02-.09.04-.13.06-.02.01-.04.03-.06.04-.17.11-.72.48-.88.6-.01.01-.03.02-.04.03-.04.03-.08.06-.11.1Z"/>
          <path class="cls-1" d="m404.43,218.05c-.28.42-.45.87-.51,1.36-.09.48-.06.93.09,1.36.07.47.27.87.59,1.21.23.2.46.39.69.59.51.31,1.09.47,1.74.47.32-.04.63-.08.95-.12.67-.17,1.27-.48,1.81-.95l.42-.36c.42-.34.75-.74.96-1.21.28-.42.45-.87.51-1.36.09-.48.06-.93-.09-1.36-.07-.47-.27-.87-.59-1.21l-.69-.59c-.51-.31-1.09-.47-1.74-.47-.32.04-.63.08-.95.12-.67.17-1.27.48-1.81.95l-.42.36c-.42.34-.75.74-.96,1.21Z"/>
          <path class="cls-1" d="m439.3,159.93c-.27.23-.47.51-.61.82-.28.42-.45.87-.51,1.36-.02.07-.03.15-.04.22-.03.37-.05.75-.02,1.11.03.35.19.84.25,1.05.02.07.04.13.07.2.16.33.36.63.57.93.04.06.09.11.14.15.13.13.27.26.42.39.2.33.46.62.82.82.38.25.81.39,1.28.41.45.1.92.08,1.41-.06.31-.12.62-.24.94-.35.64-.33,1.17-.79,1.59-1.36.16-.29.33-.58.49-.87.25-.61.35-1.23.29-1.84-.04-.47-.19-.92-.31-1.35-.04-.16-.1-.32-.18-.46-.2-.41-.45-.8-.72-1.17-.1-.14-.22-.26-.34-.37l-.69-.59c-.28-.12-.55-.24-.83-.35-.3-.04-.61-.08-.91-.12-.49-.02-.96.08-1.42.3-.33.08-.63.24-.91.47-.32.17-.58.39-.8.68Z"/>
          <path class="cls-1" d="m428.88,201.16c2.83,3.3,8.82-1.83,5.99-5.13-2.83-3.3-8.82,1.83-5.99,5.13Z"/>
          <g>
            <path class="cls-1" d="m398.26,170.83c-.1.11-.2.23-.29.35-.35.47-.63,1-.89,1.51-.26.52-.39,1.08-.54,1.63-.11.41-.12.8-.13,1.21,0,.25-.03.53,0,.78.03.25.16.67.23.91,0,.02,0,.04.02.06.07.19.2.35.3.52.13.21.23.41.41.58.24.23.5.47.78.65.05.03.1.06.15.08.29.14.61.29.92.39.05.02.1.02.15.03.32.06.68.12,1.02.12.08,0,.89-.1.97-.12.03,0,.05-.01.08-.02.07-.02.89-.33.95-.36.25-.12,1.08-.79,1.02-.72.18-.18.6-.63.66-.72.1-.14.24-.41.27-.47.09-.16.15-.26.2-.36.13-.13.26-.25.37-.4.8-1.02,1.23-2.15,1.51-3.32.14-.57.12-1.15.12-1.7,0-.6-.18-1.12-.32-1.68-.16-.26-.32-.52-.48-.77-.29-.37-.65-.62-1.1-.77-.26-.16-.55-.23-.87-.24-.45-.1-.92-.08-1.41.06-.54.2-1.13.38-1.64.7-.5.31-1.05.66-1.5,1.07-.34.32-.64.67-.95,1.01Z"/>
            <path class="cls-1" d="m403.38,178.43s-.02.02-.03.03c.01-.01.02-.02.03-.03Z"/>
            <path class="cls-1" d="m403.3,178.51s.04-.04.05-.05c-.02.02-.04.04-.08.08.01,0,.02-.02.03-.03Z"/>
          </g>
          <path class="cls-1" d="m365.8,185.17c-.41.5-.71,1.08-1.01,1.63-.15.28-.28.56-.38.86-.4,1.21-.59,2.27-.52,3.48.03.57.2,1.12.36,1.65.17.56.51,1.02.81,1.5.29.37.65.62,1.1.77.39.21.83.31,1.33.29.49.02.96-.08,1.42-.3.49-.15.94-.4,1.34-.77.26-.24.48-.5.69-.78.31-.15.61-.33.89-.57.1-.08.19-.16.28-.25.32-.32.63-.65.91-1,.36-.44.62-.97.87-1.45.19-.36.28-.72.39-1.09.11-.39.23-.76.26-1.15.09-1.1,0-1.99-.33-2.98-.16-.48-.47-.91-.74-1.32-.28-.42-.72-.72-1.1-1.04-.51-.31-1.09-.47-1.74-.47-.65,0-1.27.16-1.89.47-1.19.66-2.09,1.46-2.95,2.5Z"/>
          <path class="cls-1" d="m468.85,158.39c.19,1.13.75,1.96,1.8,2.41.39.21.83.31,1.33.29.65,0,1.27-.16,1.89-.47.45-.18.9-.35,1.36-.53.87-.34,1.75-1.43,2.09-2.24.27-.64.37-1.44.25-2.12.45-.72.84-1.48,1.11-2.25.26-.73.48-1.49.62-2.23.14-.77.14-1.54.14-2.29,0-1.25-1.09-2.28-2.22-2.59-1.24-.33-2.58.07-3.67.95-3.38,2.71-5.33,7.27-4.69,11.07Z"/>
          <path class="cls-1" d="m504.01,146.94c-.25.4-.54.87-.71,1.32-.19.48-.32.99-.42,1.49-.15.74-.16,1.5-.12,2.22.04.78.24,1.54.49,2.24.26.74.69,1.42,1.16,2.02.29.37.65.62,1.1.77.39.21.83.31,1.33.29.32-.04.63-.08.95-.12.67-.17,1.27-.48,1.81-.95.04-.03.08-.06.12-.09.68-.15,1.34-.44,1.88-.94.24-.26.48-.52.72-.77.4-.56.66-1.15.76-1.79.12-.46.2-.93.22-1.39.03-.76.07-1.52-.06-2.24-.13-.71-.3-1.43-.59-2.07-.2-.45-.47-.88-.75-1.28-.46-.65-1.19-1.06-1.96-1.31-1.08-.36-2.51-.16-3.61.47-.43.24-.9.54-1.25.91-.37.38-.77.77-1.05,1.22Z"/>
          <path class="cls-1" d="m533.34,144.43c-.42.48-.73,1.07-.99,1.61-.26.54-.42,1.14-.51,1.71-.07.42-.05.84-.05,1.25,0,.15,0,.31.04.45.08.41.17.82.32,1.21.15.38.43.78.63,1.08.3.46.75.81,1.18,1.15.21.16.46.3.72.42.2.25.42.48.71.65.38.25.81.39,1.28.41.45.1.92.08,1.41-.06.96-.28,1.94-.85,2.53-1.72.44-.66.75-1.42.79-2.17.01-.07.04-.14.05-.22.08-.73,0-1.47-.33-2.08-.17-1.13-.35-2.25-.52-3.38-.07-.63-.3-1.18-.7-1.64-.29-.37-.65-.62-1.1-.77-.39-.21-.84-.31-1.33-.29-.65,0-1.27.16-1.89.47-.4.26-.85.53-1.22.85-.36.31-.7.71-1,1.05Z"/>
          <path class="cls-1" d="m526.17,125.81s-.71.77-.72.78c0,0,0,0,0,0-.2.28-.39.58-.51.9,0,0,0,0,0,0,0,0-.26.92-.26.92,0,0,0,0,0,0,0,0,0,.01,0,.02,0,0,0,0,0,0,0,0-.02.92-.02.92,0,0,0,0,0,0,0,0,0,.01,0,.02.04.31.14.61.23.9,0,.01,0,.02.01.03.14.28.33.55.49.8,0,.01.01.02.02.03,0,0,.02.02.03.03,0,0,0,0,.01.01.08.07.61.52.69.59,0,0,0,0,0,0,0,0,0,0,0,0,0,0,.02.01.03.02,0,0,.01,0,.02,0,0,0,0,0,0,0,.04.02.79.34.83.35,0,0,0,0,0,0,.01,0,.02,0,.03,0,.04,0,.88.11.92.12,0,0,0,0,0,0,0,0,.01,0,.02,0,0,0,0,0,0,0,.02,0,.94-.12.95-.12,0,0,0,0,0,0,.32-.08.68-.24.95-.36.33-.15.63-.38.9-.61.28-.23.54-.51.74-.8.19-.28.35-.59.5-.89,0,0,0-.02.01-.02.21-.46.3-.92.27-1.38.05-.47-.02-.92-.21-1.33-.13-.34-.34-.61-.59-.85-.22-.3-.47-.57-.8-.77-.28-.12-.55-.24-.83-.35-.6-.16-1.22-.16-1.86,0,0,0-.01,0-.02,0,0,0,0,0,0,0-.01,0-.93.35-.94.36,0,0,0,0-.01,0,0,0-.01,0-.02,0-.31.18-.61.38-.89.6,0,0,0,0-.01.01Z"/>
          <path class="cls-1" d="m488.1,126.85c-.4.56-.66,1.15-.76,1.79,0,.31-.02.61-.02.92.07.63.3,1.18.7,1.64l.31.36c.29.37.65.62,1.1.77.39.21.84.31,1.33.29.49.02.96-.08,1.42-.3.49-.15.94-.4,1.34-.77l.72-.77c.4-.56.66-1.15.76-1.79,0-.31.02-.61.02-.92-.07-.63-.3-1.18-.7-1.64l-.31-.36c-.29-.37-.65-.62-1.1-.77-.39-.21-.84-.31-1.33-.29-.49-.02-.96.08-1.42.3-.49.15-.94.4-1.34.77-.24.26-.48.52-.72.77Z"/>
          <path class="cls-1" d="m454.1,134.76c-.4.56-.66,1.15-.76,1.79-.07.48-.15.96-.22,1.43-.09.48-.06.93.09,1.36.07.47.27.87.59,1.21.29.37.65.62,1.1.77.39.21.83.31,1.33.29.32-.04.63-.08.95-.12.67-.17,1.27-.48,1.81-.95.24-.26.48-.52.72-.77.4-.56.66-1.15.76-1.79.07-.48.15-.96.22-1.43.09-.48.06-.93-.09-1.36-.07-.47-.27-.87-.59-1.21-.29-.37-.65-.62-1.1-.77-.39-.21-.83-.31-1.33-.29-.32.04-.63.08-.95.12-.67.17-1.27.48-1.81.95-.24.26-.48.52-.72.77Z"/>
          <path class="cls-1" d="m422.28,144.67c-.07.08-.13.16-.19.25-.11.17-.21.37-.31.53-.1.17-.21.36-.3.54-.04.08-.07.15-.09.23-.11.32-.21.68-.29,1.01-.01.04-.02.09-.03.13-.08.46-.1.93-.04,1.37.17,1.2.77,2.28,1.8,2.88.38.25.8.39,1.28.41.19.08.39.16.58.25.6.16,1.22.16,1.86,0,.31-.12.62-.24.94-.35.64-.33,1.17-.79,1.59-1.36.11-.13.21-.27.3-.42.26-.41.51-.84.71-1.28.07-.15.12-.3.17-.45.14-.44.29-.9.37-1.36.03-.15.04-.31.05-.46.02-.45.05-.91.01-1.35-.01-.16-.04-.31-.08-.46-.1-.42-.19-.87-.36-1.26-.17-.45-.44-.8-.82-1.07-.31-.33-.7-.54-1.17-.65l-.91-.12c-.65,0-1.27.16-1.89.47-.21.12-.43.23-.63.36-.24.14-.46.3-.69.46-.23.15-.46.3-.68.47-.45.35-.83.8-1.2,1.22Z"/>
          <path class="cls-1" d="m387.49,153.56c-.21.33-.41.69-.59,1.04-.03.06-.06.13-.09.19-.17.42-.29.85-.37,1.28-.01.07-.02.13-.03.2-.03.36-.04.74-.03,1.1,0,.06.01.13.02.19.06.34.16.69.26,1.02.13.41.4.77.65,1.1.29.37.65.62,1.1.77.22.12.45.19.69.24.22.18.45.33.74.42.39.21.83.31,1.33.29l.95-.12c.67-.17,1.27-.48,1.81-.95l.72-.77c.4-.56.66-1.15.76-1.79.08-.58.08-1.16.08-1.73,0-.28-.02-.56-.05-.84-.07-.55-.23-1.08-.37-1.61-.07-.27-.17-.53-.28-.78-.16-.26-.32-.52-.48-.77-.29-.37-.65-.62-1.1-.77-.26-.16-.55-.23-.87-.24-.45-.1-.92-.08-1.41.06-.37.13-.76.25-1.12.43-.06.03-.12.07-.18.11-.36.23-.85.51-1.18.85-.29.3-.71.69-.96,1.08Z"/>
          <path class="cls-1" d="m403.81,127.64c-.4.56-.66,1.15-.76,1.79,0,.31-.02.61-.02.92.07.63.3,1.18.7,1.64l.61.72c.29.37.65.62,1.1.77.39.21.83.31,1.33.29.49.02.96-.08,1.42-.3.49-.15.94-.4,1.34-.77.24-.26.48-.52.72-.77.4-.56.66-1.15.76-1.79l.02-.92c-.07-.63-.3-1.18-.7-1.64l-.61-.72c-.29-.37-.65-.62-1.1-.77-.39-.21-.83-.31-1.33-.29-.49-.02-.96.08-1.42.3-.49.15-.94.4-1.34.77l-.72.77Z"/>
          <path class="cls-1" d="m445.38,105.23c-.7.9-1.01,1.87-1.28,2.89-.13.5-.17,1.01-.2,1.51-.03.52-.06,1.09,0,1.6.01.12.04.24.06.36.09.41.18.84.33,1.22.1.23.24.43.37.64.1.17.21.34.33.5.16.29.37.55.65.75.31.33.7.54,1.17.65.07.02.15.02.22.03.46.17.9.26,1.52.3.51.03,1.09-.02,1.61-.21.5-.11.96-.32,1.37-.65.46-.26.85-.62,1.15-1.07.32-.41.53-.86.63-1.33.17-.46.22-.92.16-1.38-.08-.49-.25-.97-.51-1.38.11-.35.21-.7.3-1.06.21-.81.34-1.68.17-2.45-.08-.37-.14-.78-.33-1.11-.39-.69-.62-1.07-1.3-1.5-.06-.04-.11-.07-.17-.1-.24-.12-.61-.3-.88-.37-.37-.1-.76-.16-1.16-.14-1.66.05-3.15.95-4.22,2.32Z"/>
          <path class="cls-1" d="m468.66,111.68c-.25.61-.35,1.23-.29,1.84.06.36.16.7.26,1.04.02.06.05.12.08.18.17.32.35.63.57.92.03.04.06.07.09.1.08.43.26.8.56,1.12.29.37.65.62,1.1.77.39.21.83.31,1.33.29.32-.04.63-.08.95-.12.67-.17,1.27-.48,1.81-.95.24-.26.48-.52.72-.77.4-.56.66-1.15.76-1.79.03-.22.06-.44.09-.66l.03-.11c0-.06,0-.11,0-.17.08-.6.16-1.2.24-1.8,0-.31.02-.61.02-.92-.07-.29-.15-.58-.22-.87l-.48-.77c-.29-.37-.65-.62-1.1-.77-.26-.16-.55-.23-.87-.24-.3-.08-.61-.08-.93,0-.32,0-.64.08-.94.24-.49.15-.94.4-1.34.77-.4.34-.81.68-1.21,1.01-.54.46-.94,1.01-1.21,1.65Z"/>
          <path class="cls-1" d="m438.11,129.41c-.28.42-.45.87-.51,1.36-.09.48-.06.93.09,1.36.07.47.27.87.59,1.21.23.2.46.39.69.59.51.31,1.09.47,1.74.47.32-.04.63-.08.95-.12.67-.17,1.27-.48,1.81-.95.28-.24.56-.47.84-.71.42-.34.75-.74.96-1.21.28-.42.45-.87.51-1.36.09-.48.06-.93-.09-1.36-.07-.47-.27-.87-.59-1.21-.23-.2-.46-.39-.69-.59-.51-.31-1.09-.47-1.74-.47-.32.04-.63.08-.95.12-.67.17-1.27.48-1.81.95-.28.24-.56.47-.84.71-.42.34-.75.74-.96,1.21Z"/>
          <path class="cls-1" d="m503.65,104.67c-.39.36-.67.78-.85,1.26-.19.6-.39,1.22-.47,1.83-.02.14-.02.29-.03.43-.09.2-.16.41-.21.62-.17.46-.22.92-.16,1.38.03.48.19.9.46,1.26.15.31.37.54.64.75.17.44.44.79.81,1.05.31.33.7.54,1.17.65.44.14.91.16,1.39.06.48-.02.95-.16,1.41-.41.29-.2.58-.39.87-.59.54-.46.94-1.01,1.21-1.65l.26-.92c.1-.64.03-1.23-.2-1.79-.08-.15-.13-.31-.19-.47,0,0,0-.02,0-.03.05-.21.08-.42.1-.63.03-.4.04-.81.03-1.21,0-.11,0-.22-.02-.33-.07-.29-.15-.58-.22-.87-.17-.45-.44-.8-.82-1.07-.2-.23-.45-.39-.76-.47-.39-.21-.84-.31-1.33-.29-.32.04-.63.08-.95.12-.31.12-.62.24-.94.35-.49.23-.9.56-1.23.98Z"/>
          <path class="cls-1" d="m526.39,97.12c-.16.17-.34.35-.48.54-.04.06-.08.12-.12.18-.2.34-.41.68-.58,1.03-.03.06-.06.13-.08.2-.13.36-.22.73-.32,1.09-.04.14-.06.27-.07.41-.03.36-.03.73-.03,1.09,0,.07,0,.13,0,.2,0,.07.02.13.03.19.07.35.16.71.27,1.04.09.26.25.48.39.71.11.17.21.38.35.54.02.03.04.05.07.07.23.23.5.44.75.65.05.04.11.08.16.12.03.02.07.04.1.06.29.14.61.27.91.39.44.14.91.16,1.39.06.48-.02.95-.16,1.41-.41.49-.23.9-.56,1.23-.98.39-.36.67-.78.85-1.26.09-.31.18-.61.26-.92,0-.02,0-.04,0-.07.01-.02.03-.05.04-.07.06-.11.11-.23.14-.34.13-.4.26-.81.34-1.22.05-.27.04-.53.05-.8,0-.26.03-.52,0-.77,0-.06-.02-.11-.03-.17-.07-.34-.16-.67-.26-1-.03-.11-.07-.21-.12-.31-.16-.3-.35-.59-.53-.87-.03-.05-.07-.1-.1-.15-.23-.2-.46-.39-.69-.59-.38-.25-.81-.39-1.28-.41-.3-.08-.61-.08-.93,0-.48.02-.95.16-1.41.41-.42.23-.84.5-1.21.82-.18.16-.35.36-.5.53Z"/>
          <path class="cls-1" d="m492.73,79.45c-.48.77-.65,1.11-.82,1.96,0,.04-.01.08-.02.13-.02.25-.03.7-.02.94,0,.02,0,.05,0,.07,0,.04.01.07.02.11.07.29.15.58.22.87,0,.01,0,.02,0,.03,0,.02.01.03.02.05,0,.02.01.03.02.05,0,0,0,.02.02.03l.26.42s-.01.1-.01.15c-.05.47.02.92.21,1.33.17.45.44.8.82,1.07.31.33.7.54,1.17.65.3.04.61.08.91.12.65,0,1.27-.16,1.89-.47.29-.2.58-.39.87-.59.54-.46.94-1.01,1.21-1.65.07-.13.12-.25.17-.39.02-.06.04-.13.06-.19.1-.36.22-.72.3-1.08.03-.13.05-.27.06-.4.03-.35.03-.71.03-1.06,0-.07,0-.14,0-.21,0-.13-.02-.25-.05-.37-.08-.4-.18-.81-.31-1.19-.04-.11-.09-.22-.15-.33-.2-.37-.41-.74-.67-1.07-.74-.94-2.1-1.24-3.38-.94-.35.08-.71.22-1.03.38-.02.01-.04.02-.06.03-.13.07-.78.51-.89.6-.32.27-.64.58-.86.93Z"/>
          <path class="cls-1" d="m478.1,62.54c-.25.25-.51.54-.75.81-.02.02-.04.04-.06.07-.32.41-.53.86-.63,1.33-.17.46-.22.92-.16,1.38.03.48.19.9.46,1.26.2.42.51.74.93.98.28.12.55.24.83.35.6.16,1.22.16,1.86,0,.24-.09.48-.18.71-.27.37.04.75.03,1.15-.08.5-.11.96-.32,1.37-.65.46-.26.85-.62,1.15-1.07.16-.29.33-.58.49-.87.25-.61.35-1.23.29-1.84-.07-.29-.15-.58-.22-.87-.25-.58-.64-1.03-1.17-1.36-.04-.03-.07-.05-.11-.07-.02,0-.03-.02-.05-.03-.27-.13-.58-.25-.86-.37-.08-.03-.16-.06-.24-.07-.37-.07-.76-.14-1.16-.14-.05,0-.1,0-.15,0-.32.03-.67.08-.99.12-.02,0-.05,0-.07.01-.09.02-.18.04-.27.08-.29.11-.82.26-1.17.47-.38.22-.75.46-1.09.74-.04.03-.07.06-.11.1Z"/>
          <path class="cls-1" d="m464.63,90.02c-.28.42-.45.87-.51,1.36,0,.31-.02.61-.02.92.07.63.3,1.18.7,1.64.23.2.46.39.69.59.51.31,1.09.47,1.74.47.24,0,.48,0,.73,0,.49.02.96-.08,1.42-.3.49-.15.94-.4,1.34-.77.42-.34.75-.74.96-1.21.28-.42.45-.87.51-1.36,0-.31.02-.61.02-.92-.07-.63-.3-1.18-.7-1.64l-.69-.59c-.51-.31-1.09-.47-1.74-.47h-.73c-.49-.02-.96.08-1.42.3-.49.15-.94.4-1.34.77-.42.34-.75.74-.96,1.21Z"/>
          <path class="cls-1" d="m435.99,83.99c-.34.38-.58.85-.78,1.29-.33.71-.46,1.59-.38,2.31.04.38.12.76.29,1.09.43.82.58.96,1.32,1.53.38.25.81.39,1.28.41.09.02.19.01.28.02.01,0,.02.02.03.03.31.33.7.54,1.17.65l.91.12c.65,0,1.27-.16,1.89-.47.29-.2.58-.39.87-.59.54-.46.94-1.01,1.21-1.65.06-.12.11-.24.15-.36.14-.42.28-.86.36-1.29.07-.41.05-.88.06-1.26,0-.12,0-.24-.02-.36-.06-.4-.17-.8-.3-1.18-.13-.38-.42-.78-.62-1.07-.06-.09-.13-.17-.21-.24-.22-.2-.48-.43-.71-.61-.02-.02-.05-.04-.07-.05-.05-.03-.1-.06-.16-.09-.31-.15-.69-.36-1.08-.43-.94-.17-1.1-.15-2.09,0-.08.01-.16.03-.24.06-.36.12-.81.25-1.17.46-.38.21-.74.46-1.08.73-.33.26-.71.72-.92.96Z"/>
          <path class="cls-1" d="m420.78,118l.19.22c2.83,3.3,8.82-1.83,5.99-5.13l-.19-.22c-2.83-3.3-8.82,1.83-5.99,5.13Z"/>
          <path class="cls-1" d="m451.02,60.33c-.14.14-.27.29-.4.43-.13.14-.28.3-.41.45-.4.56-.66,1.15-.76,1.79-.1.64-.03,1.23.2,1.79.25.58.64,1.03,1.17,1.36.51.31,1.09.47,1.74.47.43.02.87.05,1.3.07.49.02.96-.08,1.42-.3.49-.15.94-.4,1.34-.77.13-.11.24-.23.35-.35,0,0,.01,0,.02,0,.46-.26.85-.62,1.15-1.07.16-.29.33-.58.49-.87.25-.61.35-1.23.29-1.84-.07-.29-.15-.58-.22-.87-.25-.58-.64-1.03-1.17-1.36-.3-.13-.7-.35-1.08-.44-.05-.01-.1-.02-.15-.03-.34-.05-.68-.11-1.03-.13-.1,0-.2,0-.3.01-.33.03-.84.07-1.23.18-.41.11-.81.28-1.2.45-.1.04-.19.09-.28.15-.38.24-.77.48-1.12.77-.04.04-.08.07-.12.11Z"/>
          <path class="cls-1" d="m516.01,74.9c2.83,3.3,8.82-1.83,5.99-5.13-2.83-3.3-8.82,1.83-5.99,5.13Z"/>
          <path class="cls-1" d="m493.81,35.82c-.26.38-.48.78-.68,1.19-.06.12-.11.24-.14.37-.11.37-.28.85-.34,1.27-.06.42-.05.84-.04,1.25,0,.13.02.26.04.38.07.34.16.68.26,1.01.02.05.04.11.06.16.16.38.41.73.64,1.07.29.37.65.62,1.1.77.24.13.51.21.8.25.32.12.66.2,1.04.19.32-.04.63-.08.95-.12.67-.17,1.27-.48,1.81-.95l.72-.77c.4-.56.66-1.15.76-1.79.06-.24.11-.49.14-.73.06-.54.07-1.08.04-1.61-.01-.23-.04-.46-.09-.69-.11-.51-.23-1.04-.43-1.52-.25-.58-.64-1.03-1.17-1.36-.38-.25-.81-.39-1.28-.41-.45-.1-.92-.08-1.41.06-.67.17-1.27.48-1.81.95-.32.34-.69.68-.96,1.06Z"/>
          <path class="cls-1" d="m505.74,50.84c-.4.56-.66,1.15-.76,1.79,0,.31-.02.61-.02.92.07.63.3,1.18.7,1.64l.31.36c.29.37.65.62,1.1.77.39.21.83.31,1.33.29.49.02.96-.08,1.42-.3.49-.15.94-.4,1.34-.77.24-.26.48-.52.72-.77.4-.56.66-1.15.76-1.79,0-.31.02-.61.02-.92-.07-.63-.3-1.18-.7-1.64l-.31-.36c-.29-.37-.65-.62-1.1-.77-.39-.21-.83-.31-1.33-.29-.49-.02-.96.08-1.42.3-.49.15-.94.4-1.34.77l-.72.77Z"/>
          <path class="cls-1" d="m465.25,33.91c-.65.86-1.01,1.91-1.16,2.9-.1.69-.12,1.4-.04,2.06.06.5.21.98.34,1.44.06.22.14.42.24.62.31.64.7,1.29,1.22,1.78.29.37.65.62,1.1.77.39.21.83.31,1.33.29.49.02.96-.08,1.42-.3.49-.15.94-.4,1.34-.77.72-.66,1.3-1.52,1.44-2.44.3-.5.6-1.01.85-1.53.09-.18.16-.37.22-.56.14-.44.32-.96.36-1.42.08-.9.07-1.89-.36-2.65-.2-.36-.4-.76-.7-1.05-.25-.24-.53-.48-.81-.69-.07-.05-.14-.09-.21-.12-.31-.15-.64-.3-.97-.41-.06-.02-.13-.04-.19-.05-.83-.15-1.34-.16-2.21,0-.07.01-.14.03-.22.06-.34.12-.74.23-1.06.41-.17.1-.39.26-.52.35-.13.09-.36.23-.51.35-.33.27-.63.61-.89.95Z"/>
          <path class="cls-1" d="m407.41,88.02c-.32.44-.58.92-.8,1.39-.21.46-.33.98-.45,1.44-.05.19-.08.38-.09.57-.03.47-.07,1.01,0,1.47.17.98.49,1.83,1.13,2.56.29.37.65.62,1.1.77.39.21.83.31,1.33.29.49.02.96-.08,1.42-.3.14-.04.27-.11.41-.17.43-.07.86-.18,1.28-.4.29-.2.58-.39.87-.59.54-.46.94-1.01,1.21-1.65.32-.57.48-1.24.62-1.84.04-.17.06-.34.08-.51.03-.45.05-.91.03-1.36-.01-.16-.03-.31-.07-.46-.1-.42-.19-.87-.35-1.27-.06-.14-.12-.28-.2-.41-.22-.37-.45-.8-.75-1.13-.23-.2-.46-.39-.69-.59-.38-.25-.81-.39-1.28-.41-.3-.08-.61-.08-.93,0-.48.02-.95.16-1.41.41-.98.58-1.79,1.23-2.46,2.16Z"/>
          <path class="cls-1" d="m379.32,134.33c-.45.97-.75,2-.99,3.01-.25,1.05-.29,2.06-.31,3.1-.02.87.73,1.83,1.39,2.23.7.43,1.79.61,2.69.35.96-.28,1.94-.85,2.53-1.72.02-.04.04-.08.06-.11,1.08-.16,2.14-.75,2.92-1.75,1.11-1.43,1.86-3.23,2.05-4.91.09-.82.12-1.68-.02-2.47-.15-.82-.36-1.66-.77-2.36-.25-.58-.64-1.03-1.17-1.36-.38-.25-.81-.39-1.28-.41-1.06-.14-2.34.16-3.22,1.01-1.66,1.6-2.95,3.36-3.89,5.39Z"/>
          <path class="cls-1" d="m358.39,156.55c-.42.44-.89.89-1.21,1.4-.24.39-.49.79-.68,1.21-.17.38-.28.87-.37,1.21-.14.51-.12,1.04-.11,1.55,0,.51.16,1.01.32,1.46.13.36.43.77.59,1.02.06.09.12.17.19.24.58.57,1.15.97,1.99,1.2.44.14.91.16,1.39.06.48-.02.95-.16,1.41-.41.2-.1.38-.22.55-.34.54-.17,1.07-.43,1.51-.84.24-.26.48-.52.72-.77.4-.56.66-1.15.76-1.79.17-.66.29-1.32.33-1.97.06-.94.08-1.89-.04-2.8-.17-1.25-.97-2.25-2.22-2.59-.6-.16-1.22-.16-1.86,0-.67.17-1.27.48-1.81.95-.51.38-1.02.77-1.46,1.23Z"/>
          <path class="cls-1" d="m434.56,39.43c-.3.34-.57.71-.81,1.09-.41.64-.8,1.32-1.09,2.01-.46,1.06-.78,2.22-.84,3.32-.05.98,0,1.91.67,2.61.43.45.94.8,1.58.98.68.19,1.44.2,2.19.02,1.15-.28,2.31-1.05,3.03-2.05.52-.3,1-.69,1.33-1.19,1.34-2.04,2.28-4.33,2.46-6.61.1-.64.03-1.23-.2-1.79-.25-.58-.64-1.03-1.17-1.36-.95-.59-2.48-.69-3.63,0-.66.4-1.31.83-1.9,1.32-.59.5-1.12,1.08-1.62,1.66Z"/>
          <path class="cls-1" d="m466.75,6.45c-.29.28-.57.58-.82.89-.04.05-.08.1-.11.16-.24.38-.49.78-.65,1.19-.16.41-.29.84-.36,1.26,0,.06-.02.11-.02.17-.02.32-.03.66-.03.98,0,.03,0,.06,0,.09,0,.05.01.1.02.16.03.16.09.36.12.47.03.1.07.32.12.47,0,.03.02.05.03.08.32.78.71,1.11,1.34,1.61.04.04.09.07.14.09.31.16.64.33,1,.41.44.14.91.16,1.39.06.48-.02.95-.16,1.41-.41.49-.23.9-.56,1.23-.98.39-.36.67-.78.85-1.26.09-.31.18-.61.26-.92.02-.16,0-.3.01-.45.22-.27.41-.56.54-.89l.26-.92c.1-.64.03-1.23-.2-1.79-.16-.26-.32-.52-.48-.77-.4-.46-.9-.78-1.52-.94-.89-.16-1.24-.18-2.18,0-.34.06-1,.36-1.08.39-.05.02-.11.05-.16.08-.34.2-.67.43-.99.67-.05.04-.1.08-.14.13Z"/>
          <path class="cls-1" d="m410.38,36.23c-.4.56-.66,1.15-.76,1.79-.08.48-.15.96-.23,1.43-.09.48-.06.93.09,1.36.07.47.27.87.59,1.21.29.37.65.62,1.1.77.39.21.84.31,1.33.29.32-.04.63-.08.95-.12.67-.17,1.27-.48,1.81-.95l.72-.77c.4-.56.66-1.15.76-1.79.08-.48.15-.96.23-1.43.09-.48.06-.93-.09-1.36-.07-.47-.27-.87-.59-1.21-.29-.37-.65-.62-1.1-.77-.39-.21-.83-.31-1.33-.29l-.95.12c-.67.17-1.27.48-1.81.95-.24.26-.48.52-.72.77Z"/>
          <path class="cls-1" d="m402.87,66.14c-.18.36-.35.72-.53,1.08-.21.46-.3.92-.27,1.38-.05.47.02.92.21,1.33.17.45.44.8.82,1.07.31.33.7.54,1.17.65.3.04.61.08.91.12.65,0,1.27-.16,1.89-.47.29-.2.58-.39.87-.59.54-.46.94-1.01,1.21-1.65.18-.36.35-.72.53-1.08.21-.46.3-.92.27-1.38.05-.47-.02-.92-.21-1.33-.17-.45-.44-.8-.82-1.07-.31-.33-.7-.54-1.17-.65-.3-.04-.61-.08-.91-.12-.65,0-1.27.16-1.89.47-.29.2-.58.39-.87.59-.54.46-.94,1.01-1.21,1.65Z"/>
          <path class="cls-1" d="m427.62,71.75c2.83,3.3,8.82-1.83,5.99-5.13-2.83-3.3-8.82,1.83-5.99,5.13Z"/>
          <path class="cls-1" d="m385.17,113.73c2.83,3.3,8.82-1.83,5.99-5.13-2.83-3.3-8.82,1.83-5.99,5.13Z"/>
          <path class="cls-1" d="m351.65,115.85c-.79,1.02-1.22,2.08-1.53,3.25-.15.57-.14,1.13-.15,1.7,0,.59.15,1.12.31,1.66.31,1.03,1.11,2,2.04,2.52.77.43,1.72.59,2.69.35.24-.06.48-.15.72-.26.56.15,1.17.18,1.78,0,.98-.29,1.91-.85,2.53-1.72,1.07-1.49,1.74-3.11,2.1-4.81.17-.83.19-1.68.17-2.5-.02-.81-.15-1.72-.5-2.4-.48-.93-1.24-1.73-2.35-1.98-1.1-.25-2.17-.07-3.28.42-.4.17-.75.45-1.11.69-.45.3-.9.6-1.33.94-.78.61-1.5,1.35-2.1,2.12Z"/>
          <path class="cls-1" d="m370.48,88.28c-.33.33-.73.74-1.02,1.14-.05.07-.09.14-.14.21-.21.34-.41.69-.59,1.05-.07.14-.14.29-.19.44-.14.44-.3.89-.36,1.33-.01.08-.02.15-.02.23-.02.37-.04.76-.02,1.13.03.48.19.9.46,1.26.2.42.51.74.93.98.38.25.81.39,1.28.41.18.04.36.04.54.05.2.11.42.2.66.25.3.04.61.08.91.12.65,0,1.27-.16,1.89-.47.29-.2.58-.39.87-.59.54-.46.94-1.01,1.21-1.65.19-.41.31-.82.43-1.24.12-.43.25-.85.29-1.29.04-.43.04-.85.05-1.27,0-.14,0-.28,0-.42-.04-.57-.21-1.1-.35-1.64-.16-.26-.32-.52-.48-.77-.29-.37-.65-.62-1.1-.77-.26-.16-.55-.23-.87-.24-.45-.1-.92-.08-1.41.06-.44.16-.92.3-1.34.54-.08.04-.15.09-.23.14-.34.22-.69.45-1.02.7-.13.1-.25.21-.37.33Z"/>
          <path class="cls-1" d="m381.63,54.06c-.08.09-.16.19-.23.29-.16.23-.29.48-.42.71-.14.25-.3.5-.41.77-.04.1-.08.2-.11.3-.13.41-.27.83-.34,1.24-.02.12-.03.24-.04.37-.02.42-.06.85-.01,1.26.05.41.17.81.29,1.19.04.12.08.23.14.34.17.45.44.8.82,1.07.31.33.7.54,1.17.65.44.14.91.16,1.39.06.48-.02.95-.16,1.41-.41.29-.2.58-.39.87-.59.54-.46.94-1.01,1.21-1.65,0-.03.02-.06.03-.09.18-.11.36-.21.52-.35.02-.02.05-.05.07-.07.23-.23.55-.56.75-.81.04-.04.07-.09.1-.13.1-.15.23-.41.28-.5.06-.1.21-.34.28-.5.03-.06.05-.13.07-.2.12-.39.27-.79.3-1.19.06-.79.05-1.01-.12-1.66-.04-.17-.08-.38-.15-.56-.01-.03-.02-.05-.04-.08-.13-.25-.34-.57-.5-.81-.22-.33-.58-.6-.88-.8-.02-.02-.05-.03-.07-.05-.14-.06-.28-.12-.41-.18-.39-.21-.83-.31-1.33-.29-.24.01-.75.07-.99.14-.19.05-.77.29-.96.36-.12.05-.24.11-.36.17-.48.28-1,.6-1.41,1-.33.31-.63.65-.93.99Z"/>
          <path class="cls-1" d="m425.21,6.82c-.27.38-.49.8-.7,1.21-.28.53-.42,1.13-.54,1.68-.03.15-.05.29-.06.44-.02.41-.06.84-.01,1.24.16,1.39.89,2.66,2.08,3.34.76.43,1.73.59,2.69.35.5-.11.96-.32,1.37-.65.46-.26.85-.62,1.15-1.07.19-.28.34-.58.47-.88.85-.6,1.64-1.38,2.14-2.22.26-.42.54-.88.73-1.35.18-.44.29-.9.4-1.34.16-.66.18-1.35.1-1.98-.07-.63-.3-1.18-.7-1.64-.29-.37-.65-.62-1.1-.77-.39-.21-.83-.31-1.33-.29-.65,0-1.27.16-1.89.47-.73.29-1.44.61-2.11,1.04-.61.4-1.22.78-1.72,1.31-.34.35-.7.71-.99,1.1Z"/>
        </g>
        <path class="cls-2" d="m382.31,274.8c-188.52-37.4-149.81-7.74-274.32,26.03-20.5,3.03-47.52,1.32-70.74-11.67-101.52-63.87,35.67-188.61,105.35-197.53,91.01-23.37,259.56,1.75,349.65,89.52,23.98,28.58,35.77,66.07,4.16,76.53-33.45,11.07-67.68,21.79-114.1,17.12Z"/>
      </g>
    </g>
  </g>
</svg>