<?xml version="1.0" encoding="UTF-8"?>
<svg id="Capa_2" data-name="Capa 2" xmlns="http://www.w3.org/2000/svg" viewBox="0 0 140.07 135.12">
  <defs>
    <style>
      .cls-1 {
        fill: #f4b693;
      }

      .cls-2 {
        fill: #062E32;
      }
    </style>
  </defs>
  <g id="OBJECTS">
    <g>
      <path class="cls-1" d="m12.88,81.57c-7.98,5.25-8.65,17.47-3.74,25.66s13.75,13.14,22.47,17.05c11.82,5.31,24.31,9.44,37.22,10.55,12.91,1.11,26.31-.95,37.56-7.38,20.83-11.9,31.16-36.77,33.25-60.67.88-10.1.54-20.45-2.49-30.12s-8.93-18.68-17.47-24.15c-4.58-2.93-10.23-4.82-15.46-3.33-5.4,1.54-9.32,6.48-11.03,11.82-1.72,5.35-1.56,11.1-1.15,16.7.41,5.62-.22,13.11-5.73,14.28-4.63.98-8.27-3.63-11.53-7.07-5.81-6.12-14.58-9.8-22.85-8.11-8.27,1.69-15.28,9.54-14.64,17.96.59,7.81,6.85,13.78,11.52,20.07,1.4,1.88,2.74,4.16,2.19,6.44-1.14,4.73-14.24-.39-17.74-1.04-6.77-1.25-14.21-2.72-20.38,1.33Z"/>
      <g>
        <path class="cls-2" d="m47.54,2.65c1.87,0,3.39,1.52,3.39,3.39s-1.52,3.39-3.39,3.39-3.39-1.52-3.39-3.39,1.52-3.39,3.39-3.39Z"/>
        <path class="cls-2" d="m35.18.36c1.67-.84,3.71-.16,4.54,1.51.84,1.67.16,3.71-1.51,4.54-1.67.84-3.71.16-4.54-1.51s-.16-3.71,1.51-4.54Z"/>
        <path class="cls-2" d="m40.43,14.38c.84-1.67,2.87-2.35,4.54-1.51s2.35,2.87,1.51,4.54c-.84,1.67-2.87,2.35-4.54,1.51-1.67-.84-2.35-2.87-1.51-4.54Z"/>
        <path class="cls-2" d="m27.29,10.32c1.32-1.32,3.47-1.32,4.79,0,1.32,1.32,1.32,3.47,0,4.79-1.32,1.32-3.47,1.32-4.79,0-1.32-1.32-1.32-3.47,0-4.79Z"/>
        <path class="cls-2" d="m32.95,23.43c1.04-1.56,3.14-1.98,4.7-.94,1.56,1.04,1.98,3.14.94,4.7-1.04,1.56-3.14,1.98-4.7.94-1.56-1.04-1.98-3.14-.94-4.7Z"/>
        <circle class="cls-2" cx="22.02" cy="21.72" r="3.39"/>
        <path class="cls-2" d="m23.13,32.72c1.17-1.46,3.3-1.7,4.76-.53,1.46,1.17,1.7,3.3.53,4.76-1.17,1.46-3.3,1.7-4.76.53-1.46-1.17-1.7-3.3-.53-4.76Z"/>
        <path class="cls-2" d="m10.21,32.25c1.17-1.46,3.3-1.7,4.76-.53,1.46,1.17,1.7,3.3.53,4.76-1.17,1.46-3.3,1.7-4.76.53-1.46-1.17-1.7-3.3-.53-4.76Z"/>
        <path class="cls-2" d="m13.27,44.96c1.17-1.46,3.3-1.7,4.76-.53,1.46,1.17,1.7,3.3.53,4.76-1.17,1.46-3.3,1.7-4.76.53-1.46-1.17-1.7-3.3-.53-4.76Z"/>
        <path class="cls-2" d="m.74,45.35c1.17-1.46,3.3-1.7,4.76-.53,1.46,1.17,1.7,3.3.53,4.76-1.17,1.46-3.3,1.7-4.76.53-1.46-1.17-1.7-3.3-.53-4.76Z"/>
        <path class="cls-2" d="m.74,56.11c1.12-1.5,3.25-1.8,4.74-.68s1.8,3.25.68,4.74c-1.12,1.5-3.25,1.8-4.74.68-1.5-1.12-1.8-3.25-.68-4.74Z"/>
      </g>
    </g>
  </g>
</svg>