<?xml version="1.0" encoding="UTF-8"?>
<svg id="Capa_2" data-name="Capa 2" xmlns="http://www.w3.org/2000/svg" viewBox="0 0 143.18 146.19">
  <defs>
    <style>
      .cls-1 {
        fill: #f0c15d;
      }

      .cls-2 {
        fill: #8aa88e;
      }
    </style>
  </defs>
  <g id="OBJECTS">
    <g>
      <path class="cls-2" d="m127.74,71.15s-.11.01-.45.07h0c.15-.02.3-.04.45-.07Zm-20.16,11.05s.05,0,.36-.05c0,0,0,0,0,0-.12.02-.24.04-.35.05Zm35.59-8.4c-.16-1.75-.87-3.15-2.38-4.1-.11-.07-.23-.13-.34-.18-1.64-1.57-4.8-1.33-6.28.29-.06.07-.1.14-.16.2-.71.16-1.41.32-2.12.45-1.06.2-2.12.38-3.19.55-.32.05-.64.09-.96.14,0,0-.33.05-.45.07,0,0,0,0,0,0,0,0,0,0,0,0,0,0,0,0,0,0-.41.05-.81.1-1.22.15-4.33.52-8.69.81-13.05,1.02-5.03.24-9.98,1.17-14.94,1.96-.57.09-1.13.18-1.7.26-.16.02-.31.04-.47.07.23-.03.44-.07-.13.02.03,0,.06,0,.09-.01-.04,0-.09.01-.13.02.02,0,.02,0,.04,0-.03,0-.06,0-.08.01-1.29.16-2.59.29-3.89.38-.65.04-1.3.07-1.95.09,5.98-2.29,12.01-4.48,18.11-6.45,4.62-1.5,9.38-2.72,13.73-4.92,1.76-.89,3.32-2.1,4.94-3.2.77-.52,1.55-1.02,2.37-1.45.05-.03.25-.15.41-.23.06-.02.13-.04.22-.07.5-.18,1.02-.31,1.54-.42,2.39-.5,3.99-3.44,3.25-5.73-.82-2.52-3.17-3.79-5.73-3.25-3.76.79-6.64,3.14-9.77,5.17-.72.47-1.46.91-2.24,1.28-.31.15-.64.29-.96.43-.09.04-.2.08-.25.1-.33.12-.66.26-.98.38-1.91.72-3.87,1.32-5.82,1.92-3.86,1.19-7.69,2.5-11.5,3.87,3.05-3.06,6.16-6.09,9.01-9.32,3.03-3.43,5.87-7.01,8.96-10.39,1.54-1.68,3.12-3.32,4.84-4.82.24-.21,1.06-.7,1.23-1.01.14-.1.29-.21.44-.31.77-.52,1.57-.99,2.42-1.38,2.22-1.01,2.94-4.41,1.67-6.37-1.48-2.3-3.99-2.75-6.37-1.67-3.48,1.58-6.45,4.41-9.08,7.13-2.91,3-5.56,6.23-8.26,9.41-2.68,3.17-5.53,6.11-8.44,9.07-.22.23-.45.46-.67.69,1.11-3.1,2.12-6.24,3.05-9.42,2.79-9.51,5-19.19,7.66-28.74.65-2.34-.81-5.17-3.25-5.73-2.47-.56-5.03.74-5.73,3.25-2.34,8.39-4.32,16.87-6.66,25.25-1.19,4.24-2.46,8.46-3.91,12.62-.73,2.09-1.51,4.16-2.34,6.21-.08.2-.16.39-.24.59-.01.02-.02.04-.03.07-.2.47-.4.93-.61,1.39-.44.98-.9,1.95-1.38,2.92-.3.61-.61,1.22-.92,1.83,0-.44,0-.87.01-1.31.15-9.27.39-18.54.04-27.81-.38-10.06-2.49-20.03-2.18-30.11.08-2.44-2.2-4.77-4.66-4.66-2.59.12-4.58,2.05-4.66,4.66-.28,8.95,1.49,17.77,2.02,26.67.55,9.24.34,18.52.18,27.77-.02,1.09-.03,2.19-.05,3.28-3.68-8.38-8.34-16.27-12.43-24.45-.58-1.15-1.14-2.31-1.69-3.47-.24-.52-.48-1.03-.72-1.55-.12-.26-.24-.52-.35-.78-.02-.05-.2-.46-.28-.65-.85-2.13-1.59-4.31-2.31-6.49-1.55-4.73-3.12-9.55-5.8-13.78-1.31-2.05-4.2-3.07-6.37-1.67-2.05,1.32-3.07,4.17-1.67,6.37.56.87,1.07,1.77,1.54,2.7.2.41.4.82.59,1.23.11.23.21.47.31.7.02.05.03.09.06.17.76,1.98,1.45,3.98,2.11,5.99,1.44,4.4,3.04,8.67,5.03,12.85,3.94,8.29,8.65,16.2,12.56,24.51.37.77.72,1.56,1.06,2.34-.03-.02-.06-.04-.09-.06-1.99-1.35-3.97-2.7-5.9-4.13-.46-.34-.92-.69-1.38-1.03-.05-.03-.25-.19-.38-.29-.14-.11-.34-.26-.38-.3-.96-.75-1.91-1.51-2.86-2.28-3.98-3.23-7.91-6.54-12.01-9.62-1.04-.78-2.1-1.53-3.16-2.29-.34-.25-.68-.5-1.02-.76-.21-.18-.46-.35-.67-.53-1.75-1.39-3.45-2.83-5.18-4.24-3.26-2.67-6.64-5.68-10.54-7.38-2.23-.97-5.1-.73-6.37,1.67-1.06,2.01-.71,5.33,1.67,6.37,1.47.64,2.83,1.51,4.14,2.43.72.51,1.46,1.02,2.14,1.58-.89-.73.19.16.43.35.47.37.93.74,1.39,1.12,3.16,2.57,6.24,5.24,9.55,7.6.98.7,1.96,1.4,2.92,2.12.23.17.46.35.69.52.04.03.13.1.22.17.46.36.93.73,1.39,1.09,1.91,1.52,3.79,3.07,5.67,4.62.67.55,1.33,1.09,2,1.63-2.36-.67-4.72-1.33-7.08-2-5.35-1.52-10.7-3.08-15.91-5.02-1.24-.46-2.46-.95-3.68-1.44-.02-.01-.04-.02-.07-.03-.32-.14-.65-.28-.97-.43-.59-.26-1.17-.53-1.75-.81-2.29-1.1-4.51-2.33-6.63-3.74-2.04-1.35-5.24-.47-6.37,1.67-1.23,2.34-.5,4.93,1.67,6.37,8.32,5.5,18.12,8.6,27.61,11.37,2.08.61,4.16,1.19,6.24,1.77-2.56.02-5.12.04-7.67-.03-4.29-.13-8.58-.36-12.87-.26-4.05.1-8.41.35-12.19,1.91-2.24.92-4.09,3.13-3.25,5.73.7,2.16,3.32,4.25,5.73,3.25,1.45-.6,2.97-.96,4.52-1.21.08-.01.14-.02.2-.03.42-.05.84-.09,1.26-.13.96-.08,1.91-.14,2.87-.17,3.81-.14,7.61.02,11.42.16,7.49.27,14.99.08,22.49.21-.74.29-1.48.6-2.23.88-3.93,1.51-7.91,2.85-11.85,4.33-4.25,1.6-8.47,3.29-12.81,4.62-2.14.65-4.31,1.22-6.52,1.62-.41.07-.82.14-1.23.2-.1,0-.84.09-1.07.11-1.16.1-2.33.13-3.5.11-2.44-.05-4.77,2.18-4.66,4.66.12,2.57,2.05,4.6,4.66,4.66,8.39.19,16.45-2.74,24.18-5.69,4.77-1.82,9.56-3.56,14.33-5.35-4.07,3.31-8.07,6.7-11.85,10.34-2.98,2.88-5.95,5.78-9.14,8.43-.36.3-.72.58-1.08.88-.15.11-.3.23-.45.34-.69.5-1.39.99-2.12,1.42-.31.19-.62.37-.95.53-.07.04-.14.07-.21.1-.2.07-.39.15-.59.2-.05.01-.09.03-.13.04-2.31.27-4.46,2.13-4.35,4.63.11,2.41,2.05,4.8,4.66,4.66,3.35-.19,6.29-1.95,8.9-3.93,3.14-2.38,6.06-5,8.91-7.71,2.48-2.36,4.9-4.8,7.45-7.09,3.65-3.27,7.59-6.26,11.39-9.35,1.54-1.26,3.09-2.51,4.64-3.76-3.76,6.64-7.42,13.34-10.66,20.28-1.86,3.99-3.72,7.98-5.73,11.89-1,1.94-2.03,3.86-3.14,5.74-.47.79-.96,1.58-1.47,2.34-.26.39-.53.78-.8,1.16-.07.09-.13.18-.2.27,0,0,0,0-.01.01-1.53,1.89-1.99,4.76,0,6.59,1.7,1.56,4.95,2.02,6.59,0,4.9-6.07,8.15-13.36,11.44-20.37,3.04-6.48,6.23-12.84,9.65-19.11-.1,4.5-.24,9.01-.44,13.51-.4,9.15-3.04,18.27-1.91,27.47.3,2.41,1.93,4.78,4.66,4.66,2.27-.1,4.97-2.07,4.66-4.66-1-8.19,1.01-16.36,1.72-24.49.39-4.4.43-8.85.57-13.27.03-1.04.06-2.08.08-3.13,2.15,3.96,4.25,7.96,6.18,12.04.5,1.06.99,2.12,1.45,3.19.06.16.33.81.4.99.24.63.47,1.26.7,1.89.81,2.3,1.52,4.63,2.24,6.95,1.48,4.8,3.02,9.61,5.36,14.07,1.13,2.16,4.32,2.99,6.37,1.67,2.2-1.42,2.88-4.06,1.67-6.37-.43-.82-.82-1.65-1.2-2.49-.03-.08-.26-.61-.34-.81-.22-.55-.43-1.11-.63-1.66-.73-2.01-1.38-4.06-2.01-6.11-1.35-4.38-2.71-8.74-4.56-12.95-2.47-5.64-5.37-11.09-8.33-16.5.27.22.55.43.82.65,3.68,2.97,7.2,6.12,10.54,9.47,6.57,6.57,13.02,13.48,20.55,18.97,1.98,1.44,5.28.4,6.37-1.67,1.28-2.42.44-4.84-1.67-6.37-.11-.08-.28-.24-.45-.39,0,.04-.06.02-.23-.12-.07-.05-.13-.11-.2-.16-.01,0-.02-.01-.03-.02,0,0,.01,0,.02,0-.09-.07-.18-.15-.28-.22-.77-.62-1.53-1.27-2.27-1.92-1.56-1.36-3.08-2.76-4.58-4.19-3.07-2.91-6.06-5.91-9.04-8.91-1.82-1.83-3.68-3.6-5.57-5.33,1.79.55,3.57,1.13,5.3,1.81.63.25,1.25.5,1.88.76.35.14.69.29,1.03.43.13.05.26.11.39.16,1.55.66,3.1,1.32,4.66,1.99,3.76,1.61,7.52,3.25,11.34,4.7,2.87,1.09,6,2.38,8.98.95,2.2-1.06,2.96-4.38,1.67-6.37-.99-1.53-2.49-2.26-4.09-2.22-.25-.06-.51-.11-.76-.19-1.16-.33-2.3-.76-3.43-1.19-1.4-.53-2.79-1.1-4.17-1.67-.4-.16-.79-.33-1.19-.5-.12-.05-.25-.1-.37-.16-.81-.34-1.62-.69-2.43-1.03-3.28-1.4-6.55-2.83-9.86-4.17-3.21-1.3-6.53-2.21-9.83-3.28-.55-.18-1.1-.37-1.65-.55,2.08-.28,4.15-.6,6.23-.94,1.13-.19,2.26-.38,3.39-.55.36-.06.73-.11,1.09-.16.04,0,.22-.03.35-.05h.04s-.02,0-.04,0c.03,0,.06,0,.08-.01.43-.05.86-.11,1.29-.15,4.88-.53,9.8-.57,14.68-1.07,4.99-.52,9.99-1.22,14.85-2.48,2.24-.26,4.54-2.16,4.32-4.63Zm-22.19-36.57s.09-.06.14-.1c-.23.18-.63.45-.14.1Zm-87.34,8.35c-.5-.37-.17-.13.05.04-.02-.01-.03-.02-.05-.04Zm-11.58,68.58c-.15.08-.22.11-.26.13,0,0,0,0-.01,0,.06-.03.21-.11.36-.18-.03.02-.06.03-.09.05Zm108.02-17.58s-.02.01,0,.02c-.6.07-1.21.25-1.81.54.82-.4,1.04-.51,1.81-.56Zm8.43-27.42h.01c.32.04.65.08.97.13-.33-.04-.65-.09-.98-.13Zm-16.93,46.06c0-.06-.19-.23-.44-.28,0,0,0,0,.01,0,.12.04.28.14.43.28Z"/>
      <g>
        <path class="cls-1" d="m101.49,65.77c1.87,0,3.39,1.52,3.39,3.39s-1.52,3.39-3.39,3.39-3.39-1.52-3.39-3.39,1.52-3.39,3.39-3.39Z"/>
        <path class="cls-1" d="m97.94,56.52c1.87,0,3.39,1.52,3.39,3.39s-1.52,3.39-3.39,3.39-3.39-1.52-3.39-3.39,1.52-3.39,3.39-3.39Z"/>
        <path class="cls-1" d="m89.85,51.11c1.87,0,3.39,1.52,3.39,3.39s-1.52,3.39-3.39,3.39-3.39-1.52-3.39-3.39,1.52-3.39,3.39-3.39Z"/>
        <circle class="cls-1" cx="93.08" cy="75.94" r="3.39"/>
        <path class="cls-1" d="m79.13,48.69c1.87,0,3.39,1.52,3.39,3.39s-1.52,3.39-3.39,3.39-3.39-1.52-3.39-3.39,1.52-3.39,3.39-3.39Z"/>
        <circle class="cls-1" cx="85.25" cy="67.1" r="3.39"/>
        <path class="cls-1" d="m74.28,58.79c1.67-.84,3.71-.16,4.54,1.51.84,1.67.16,3.71-1.51,4.54-1.67.84-3.71.16-4.54-1.51-.84-1.67-.16-3.71,1.51-4.54Z"/>
        <path class="cls-1" d="m79.07,75.17c1.67-.84,3.71-.16,4.54,1.51.84,1.67.16,3.71-1.51,4.54-1.67.84-3.71.16-4.54-1.51s-.16-3.71,1.51-4.54Z"/>
        <path class="cls-1" d="m60.62,54.63c1.67-.84,3.71-.16,4.54,1.51s.16,3.71-1.51,4.54c-1.67.84-3.71.16-4.54-1.51-.84-1.67-.16-3.71,1.51-4.54Z"/>
        <path class="cls-1" d="m62.42,64.72c1.32-1.32,3.47-1.32,4.79,0,1.32,1.32,1.32,3.47,0,4.79s-3.47,1.32-4.79,0c-1.32-1.32-1.32-3.47,0-4.79Z"/>
        <circle class="cls-1" cx="68.57" cy="77.23" r="3.39"/>
        <path class="cls-1" d="m50.34,68.64c1.32-1.32,3.47-1.32,4.79,0,1.32,1.32,1.32,3.47,0,4.79s-3.47,1.32-4.79,0-1.32-3.47,0-4.79Z"/>
        <circle class="cls-1" cx="67.56" cy="87.25" r="3.39"/>
        <path class="cls-1" d="m51.91,82.08c.84-1.67,2.87-2.35,4.54-1.51,1.67.84,2.35,2.87,1.51,4.54-.84,1.67-2.87,2.35-4.54,1.51s-2.35-2.87-1.51-4.54Z"/>
        <circle class="cls-1" cx="43.23" cy="81.2" r="3.39"/>
        <path class="cls-1" d="m55.66,94.56c.84-1.67,2.87-2.35,4.54-1.51,1.67.84,2.35,2.87,1.51,4.54-.84,1.67-2.87,2.35-4.54,1.51s-2.35-2.87-1.51-4.54Z"/>
        <path class="cls-1" d="m41.32,89.66c.84-1.67,2.87-2.35,4.54-1.51,1.67.84,2.35,2.87,1.51,4.54-.84,1.67-2.87,2.35-4.54,1.51-1.67-.84-2.35-2.87-1.51-4.54Z"/>
        <path class="cls-1" d="m61.75,105.1c0-1.87,1.52-3.39,3.39-3.39s3.39,1.52,3.39,3.39-1.52,3.39-3.39,3.39-3.39-1.52-3.39-3.39Z"/>
        <path class="cls-1" d="m38.66,99.77c.84-1.67,2.87-2.35,4.54-1.51,1.67.84,2.35,2.87,1.51,4.54-.84,1.67-2.87,2.35-4.54,1.51-1.67-.84-2.35-2.87-1.51-4.54Z"/>
        <path class="cls-1" d="m38.91,107.86c.84-1.67,2.87-2.35,4.54-1.51,1.67.84,2.35,2.87,1.51,4.54-.84,1.67-2.87,2.35-4.54,1.51-1.67-.84-2.35-2.87-1.51-4.54Z"/>
        <path class="cls-1" d="m51.34,117.42c0-1.87,1.52-3.39,3.39-3.39s3.39,1.52,3.39,3.39-1.52,3.39-3.39,3.39-3.39-1.52-3.39-3.39Z"/>
        <path class="cls-1" d="m50.08,109.29c0-1.87,1.52-3.39,3.39-3.39s3.39,1.52,3.39,3.39-1.52,3.39-3.39,3.39-3.39-1.52-3.39-3.39Z"/>
      </g>
    </g>
  </g>
</svg>