<?xml version="1.0" encoding="UTF-8"?>
<svg id="Capa_2" data-name="Capa 2" xmlns="http://www.w3.org/2000/svg" viewBox="0 0 116.02 125.98">
  <defs>
    <style>
      .cls-1 {
        fill: #f4b693;
        stroke-miterlimit: 10;
      }

      .cls-2 {
        fill: #062E32;
      }
    </style>
  </defs>
  <g id="OBJECTS">
    <g>
      <g>
        <path class="cls-1" d="m99.91,2.04c2.22-.86,4.53-1.74,6.9-1.51,2.37.24,4.77,1.96,4.91,4.34.18,2.94-2.86,4.92-5.49,6.24-30.7,15.43-61.66,30.96-94.86,39.81-7.32,1.95-14.9-2.69-8.4-10,6.12-6.89,22.12-9.75,30.55-13.03C55.65,19.28,77.78,10.66,99.91,2.04Z"/>
        <path class="cls-1" d="m109.3,23.51c1.91-.65,4.41-1.13,5.62.49.55.74.64,1.73.57,2.65-.29,4.14-3.13,7.76-6.59,10.05-3.46,2.29-7.52,3.48-11.49,4.68-28.33,8.55-56.05,19.14-82.87,31.67-11.63,5.43-20.92-3.34-7.24-9.9,11-5.27,22.53-9.69,33.83-14.27,22.47-9.1,45.21-17.56,68.16-25.37Z"/>
        <path class="cls-1" d="m93.08,55.85c6.38-2.32,12.95-4.66,19.74-4.54,2.6,2.72,1.86,7.42-.59,10.28-2.45,2.86-6.11,4.33-9.61,5.69-19.79,7.71-39.57,15.41-59.36,23.12-11.27,4.39-22.75,8.83-34.81,9.73-3.32.25-7.78-.75-7.93-4.08-.38-8.7,36.08-19.01,42.92-21.7,16.44-6.46,33.05-12.49,49.66-18.51Z"/>
        <path class="cls-1" d="m105.6,81.08c2.33-.8,5.02-1.58,7.15-.35,2.74,1.59,2.86,5.78,1.06,8.38-1.79,2.61-4.83,4.02-7.73,5.3-30.78,13.7-62.22,27.57-95.74,30.97-3.62.37-10.48-.15-9.8-5.6.44-3.52,5.03-4.19,7.79-5.19,10.89-3.95,21.91-7.55,32.86-11.33,21.47-7.4,42.94-14.8,64.41-22.2Z"/>
      </g>
      <g>
        <path class="cls-2" d="m48.55,100.1c-1.81-.45-2.92-2.29-2.46-4.11.45-1.81,2.29-2.92,4.11-2.46,1.81.45,2.92,2.29,2.46,4.11-.45,1.81-2.29,2.92-4.11,2.46Z"/>
        <circle class="cls-2" cx="49.93" cy="108.53" r="3.39"/>
        <path class="cls-2" d="m59.16,96.23c-1.87,0-3.39-1.52-3.39-3.39s1.52-3.39,3.39-3.39,3.39,1.52,3.39,3.39-1.52,3.39-3.39,3.39Z"/>
        <circle class="cls-2" cx="60.11" cy="104.63" r="3.39"/>
        <path class="cls-2" d="m69.33,94.19c-1.87,0-3.39-1.52-3.39-3.39s1.52-3.39,3.39-3.39,3.39,1.52,3.39,3.39-1.52,3.39-3.39,3.39Z"/>
        <circle class="cls-2" cx="61.66" cy="115.89" r="3.39"/>
        <path class="cls-2" d="m73.59,103.3c-1.87,0-3.39-1.52-3.39-3.39s1.52-3.39,3.39-3.39,3.39,1.52,3.39,3.39-1.52,3.39-3.39,3.39Z"/>
        <circle class="cls-2" cx="73.16" cy="109.82" r="3.39"/>
        <path class="cls-2" d="m71.67,123.84c-1.87,0-3.39-1.52-3.39-3.39s1.52-3.39,3.39-3.39,3.39,1.52,3.39,3.39-1.52,3.39-3.39,3.39Z"/>
        <path class="cls-2" d="m83.34,98.57c-1.87,0-3.39-1.52-3.39-3.39s1.52-3.39,3.39-3.39,3.39,1.52,3.39,3.39-1.52,3.39-3.39,3.39Z"/>
        <circle class="cls-2" cx="81.19" cy="120.24" r="3.39"/>
        <path class="cls-2" d="m85.35,112.1c-1.87,0-3.39-1.52-3.39-3.39s1.52-3.39,3.39-3.39,3.39,1.52,3.39,3.39-1.52,3.39-3.39,3.39Z"/>
        <path class="cls-2" d="m92.67,104.05c-1.87,0-3.39-1.52-3.39-3.39s1.52-3.39,3.39-3.39,3.39,1.52,3.39,3.39-1.52,3.39-3.39,3.39Z"/>
        <circle class="cls-2" cx="91.34" cy="119.76" r="3.39"/>
        <path class="cls-2" d="m97.3,114.28c-1.87,0-3.39-1.52-3.39-3.39s1.52-3.39,3.39-3.39,3.39,1.52,3.39,3.39-1.52,3.39-3.39,3.39Z"/>
      </g>
    </g>
  </g>
</svg>