<?xml version="1.0" encoding="UTF-8"?>
<svg id="Capa_2" data-name="Capa 2" xmlns="http://www.w3.org/2000/svg" viewBox="0 0 133.45 128.89">
  <defs>
    <style>
      .cls-1 {
        fill: #f0c15d;
      }
    </style>
  </defs>
  <g id="OBJECTS">
    <path class="cls-1" d="m69.66,1.7C63.91.31,57.86-.36,51.96.2c-6.12.58-11.71,2.08-17.32,4.55-9.94,4.37-18.18,12.22-24.1,21.22C-1.86,44.83-3.5,69.96,6.58,90.15c9.34,18.71,28.43,32.11,48.57,36.78,10.55,2.45,21.55,2.68,32.13.26,5.5-1.26,10.82-3.42,15.88-5.89,4.93-2.4,9.5-5.42,13.67-8.98,8.09-6.93,13.69-16.73,15.57-27.21,1.01-5.64,1.39-11.36.68-17.06-.79-6.36-2.4-12.25-4.93-18.14-4.46-10.36-12.47-20.18-22.95-24.83-11.01-4.89-23.42-5.96-35.13-3.06-11.5,2.84-21.99,9.88-28.16,20.08-3.26,5.37-5.14,11.38-5.63,17.63-.45,5.84.88,11.61,3.26,16.91,4.69,10.42,15,17.79,25.95,20.41,5.47,1.31,10.98,1.47,16.47.13,5.16-1.27,9.72-3.86,13.85-7.12,7.07-5.6,12.22-14.54,12.24-23.7,0-4.73-1.44-9.64-4.3-13.43-3.69-4.9-8.62-8.29-14.37-10.4-9.73-3.56-23.8-.31-28.49,9.65-1.41,3-2.27,6.31-1.96,9.65.35,3.72,1.71,6.88,4.12,9.72,3.22,3.78,8.71,6.28,13.7,5.85,3.37-.29,6.39-1.43,8.86-3.8,2.06-1.97,3.53-4.85,3.93-7.67.3-2.12.36-3.94-.77-5.87-.92-1.58-2.74-3.09-4.55-3.5-1.95-.44-4.14-.35-5.87.77-1.54.99-3.23,2.65-3.5,4.55-.11.79-.3,1.56-.6,2.3.26-.61.51-1.21.77-1.82-.14.32-.32.61-.49.92-.49.93.66-.87.74-.92-.13.08-.25.28-.36.39-.1.1-.21.18-.31.28-.55.56,1.83-1.2.97-.76-.3.15-.58.33-.89.47.61-.26,1.21-.51,1.82-.77-.51.2-1.03.34-1.57.43.67-.09,1.35-.18,2.02-.27-.71.09-1.4.09-2.11,0,.67.09,1.35.18,2.02.27-.89-.13-1.73-.37-2.56-.71.61.26,1.21.51,1.82.77-.56-.25-1.08-.55-1.61-.87-.6-.37-.92-1.01.79.65-.22-.21-.48-.4-.7-.61-.23-.22-.42-.46-.64-.68-.74-.76,1.18,1.76.62.8-.33-.55-.65-1.07-.91-1.66.26.61.51,1.21.77,1.82-.27-.69-.46-1.39-.56-2.12.09.67.18,1.35.27,2.02-.11-.94-.06-1.88.06-2.82-.09.67-.18,1.35-.27,2.02.15-.94.39-1.85.75-2.74-.26.61-.51,1.21-.77,1.82.29-.66.64-1.26,1.03-1.86.63-.98-1.47,1.73-.38.52.23-.26.48-.5.73-.74.53-.49,1.64-1.07-.54.36.29-.19.57-.4.87-.59.6-.37,1.24-.69,1.89-.98-.61.26-1.21.51-1.82.77,1.52-.64,3.1-1.04,4.72-1.27-.67.09-1.35.18-2.02.27,1.72-.21,3.45-.22,5.18,0-.67-.09-1.35-.18-2.02-.27,1.53.21,3.03.58,4.46,1.17-.61-.26-1.21-.51-1.82-.77,1.39.6,2.74,1.28,4.02,2.09.5.32.97.67,1.46,1-2.37-1.61-.4-.3.17.24.42.39.82.8,1.2,1.23.2.22.38.46.58.68-1.7-1.98-.94-1.26-.59-.74.63.94,1.18,1.89,1.63,2.93-.26-.61-.51-1.21-.77-1.82.5,1.22.84,2.47,1.03,3.77-.09-.68-.18-1.35-.27-2.02.2,1.53.19,3.06,0,4.59.09-.68.18-1.35.27-2.03-.25,1.81-.76,3.57-1.46,5.26.26-.61.51-1.21.77-1.82-.65,1.52-1.45,2.98-2.38,4.35-.24.35-.52.68-.74,1.03.04-.07,1.38-1.73.64-.83-.14.16-.27.33-.41.5-.56.66-1.14,1.3-1.76,1.91-.62.62-1.27,1.2-1.94,1.76-.14.11-.27.22-.41.33-.92.76,1.68-1.24.7-.55-.32.23-.64.47-.97.69-1.51,1.03-3.12,1.9-4.8,2.63.61-.26,1.21-.51,1.82-.77-2.17.91-4.43,1.55-6.76,1.87.67-.09,1.35-.18,2.02-.27-2.13.27-4.26.28-6.39,0,.67.09,1.35.18,2.02.27-3.09-.43-6.12-1.29-9-2.49.61.26,1.21.51,1.82.77-1.78-.77-3.5-1.67-5.13-2.74-.41-.27-.81-.54-1.2-.83-.06-.04-.47-.4-.52-.38.04-.02,1.56,1.25.79.6-.73-.61-1.44-1.22-2.12-1.89-.63-.62-1.23-1.26-1.8-1.93-.44-.52-1.36-1.95.13.22-.23-.34-.48-.66-.72-1-1.03-1.51-1.91-3.12-2.63-4.8.26.61.51,1.21.77,1.82-.9-2.16-1.52-4.41-1.86-6.73.09.68.18,1.35.27,2.02-.34-2.5-.33-5,0-7.5-.09.67-.18,1.35-.27,2.02.38-2.66,1.1-5.24,2.13-7.72-.26.61-.51,1.21-.77,1.82.93-2.17,2.06-4.25,3.4-6.19.38-.55,1.72-2.1.02-.09.36-.43.7-.87,1.07-1.3.73-.84,1.51-1.65,2.32-2.42.4-.38.82-.76,1.24-1.12.32-.27.89-.97,1.29-1.06-.04,0-1.58,1.18-.75.59.27-.19.54-.39.81-.58.41-.29.83-.57,1.25-.84,1.93-1.24,3.97-2.29,6.08-3.19-.61.26-1.21.51-1.82.77,3.67-1.53,7.52-2.54,11.46-3.07-.67.09-1.35.18-2.02.27,4.1-.52,8.24-.53,12.34,0-.67-.09-1.35-.18-2.02-.27,3.86.52,7.65,1.49,11.26,2.98-.61-.26-1.21-.51-1.82-.77,2.35,1,4.58,2.26,6.64,3.76,1.01.74-.35-.36-.59-.48.28.13.55.44.8.64.52.43,1.04.88,1.54,1.35.92.85,1.8,1.75,2.64,2.69.42.47.83.95,1.23,1.44.18.22.35.45.54.67-1.58-1.88-.69-.89-.35-.44.76,1.03,1.47,2.09,2.14,3.17,1.41,2.29,2.62,4.68,3.67,7.16-.26-.61-.51-1.21-.77-1.82,1.81,4.37,3.07,8.95,3.71,13.64-.09-.67-.18-1.35-.27-2.02.58,4.43.55,8.88-.04,13.31l.27-2.02c-.53,3.84-1.5,7.58-3,11.16.26-.61.51-1.21.77-1.82-1.18,2.75-2.65,5.36-4.42,7.78-.35.48-1.16,1.39.45-.57-.26.32-.51.64-.77.95-.46.55-.93,1.09-1.42,1.61-.99,1.06-2.03,2.07-3.11,3.02-.55.49-1.11.96-1.69,1.42-1.31,1.05.92-.68.41-.31-.3.22-.6.45-.9.66-1.24.89-2.51,1.72-3.82,2.51-2.85,1.71-5.84,3.18-8.91,4.48.61-.26,1.21-.51,1.82-.77-4.96,2.08-10.06,3.58-15.4,4.31.67-.09,1.35-.18,2.02-.27-5.51.72-11.07.68-16.58-.04.67.09,1.35.18,2.02.27-6.07-.83-12-2.46-17.65-4.83.61.26,1.21.51,1.82.77-2.87-1.22-5.66-2.61-8.35-4.19-1.39-.82-2.74-1.68-4.07-2.59-.62-.42-1.23-.86-1.83-1.3-.3-.22-.6-.45-.9-.67-.54-.4.93.78.91.7-.04-.16-.51-.4-.63-.5-2.41-1.93-4.68-4.02-6.78-6.28-1.05-1.12-2.05-2.28-3.01-3.48-.04-.06-.29-.45-.39-.5-.02,0,1.26,1.66.61.79-.19-.25-.38-.51-.57-.76-.5-.68-.98-1.37-1.45-2.08-1.94-2.9-3.59-5.98-4.96-9.19.26.61.51,1.21.77,1.82-1.81-4.33-3.01-8.85-3.65-13.5l.27,2.02c-.67-5.17-.65-10.39.03-15.55-.09.67-.18,1.35-.27,2.02.71-5.14,2.07-10.15,4.07-14.94-.26.61-.51,1.21-.77,1.82,1.29-3.05,2.82-5.99,4.6-8.78.47-.74.96-1.46,1.46-2.17.25-.35.51-.71.77-1.06.98-1.31-.42.49-.4.51-.14-.16,2.98-3.49,3.28-3.8,1.11-1.17,2.27-2.28,3.48-3.34.6-.53,1.22-1.03,1.85-1.54.98-.79-1.74,1.3-.27.22.3-.22.6-.44.91-.65,2.66-1.87,5.51-3.45,8.5-4.72-.61.26-1.21.51-1.82.77,3.6-1.51,7.37-2.54,11.24-3.07-.67.09-1.35.18-2.02.27,3.97-.51,7.98-.49,11.95.02-.67-.09-1.35-.18-2.02-.27,1.81.25,3.6.59,5.37,1.02,3.87.94,8.44-1.23,9.37-5.32.89-3.92-1.18-8.36-5.32-9.37h0Z"/>
  </g>
</svg>