<?xml version="1.0" encoding="UTF-8"?>
<svg id="Capa_2" data-name="Capa 2" xmlns="http://www.w3.org/2000/svg" viewBox="0 0 121.94 115.59">
  <defs>
    <style>
      .cls-1 {
        fill: #f4b693;
      }
    </style>
  </defs>
  <g id="OBJECTS">
    <path class="cls-1" d="m25.08,13.52c-1.95.13-3.77.89-5.52,1.71-2.11.99-4.13,2.2-6.06,3.51-3.31,2.25-7.47,5.08-8.98,8.97-.77,1.99,1.71,3.26,3.27,2.52,5.72-2.73,11.07-6.14,16.85-8.75,4.78-2.15,9.67-5.66,15.09-5.73-.37-1.38-.75-2.77-1.12-4.15-6.38,3.07-11.94,7.44-17.71,11.48-4.7,3.29-9.71,6.11-14.12,9.81-2.35,1.98-4.58,4.28-6,7.03-.86,1.66.57,3.85,2.52,3.27,7.45-2.21,13.25-7.77,19.72-11.79,3.48-2.16,7.23-3.98,10.91-5.76,3.8-1.84,7.68-3.47,11.74-4.65-.84-1.09-1.68-2.18-2.52-3.27-1.87,2.55-4.6,4.46-7.22,6.16-3.04,1.97-6.23,3.71-9.34,5.58-2.86,1.71-5.53,3.68-8.25,5.61-3.21,2.27-6.42,4.57-9.44,7.09-3.26,2.72-6.31,5.77-8.57,9.39-1.09,1.74.7,3.65,2.52,3.27,3.45-.73,6.35-3.51,9.01-5.66,3.15-2.55,6.66-4.72,10.1-6.85,3.62-2.23,7.43-4.1,11.06-6.31,3.53-2.15,6.95-4.47,10.53-6.55,3.78-2.2,7.73-4.19,12.07-4.94-.84-1.09-1.68-2.18-2.52-3.27-.64,1.09-2.32,2-3.62,2.72-1.64.91-3.35,1.71-4.87,2.81-4.35,3.14-8.68,6.33-13.11,9.37-6.88,4.72-13.93,9.23-20.1,14.9-3.14,2.89-6.27,6.17-8.1,10.07-.64,1.36-.11,2.77,1.33,3.27,2.47.86,5.22-.58,7.25-1.88,2.57-1.65,4.89-3.68,7.17-5.7,5.69-5.04,12.04-9.32,18.35-13.54,15.81-10.57,32.31-19.9,49.05-28.89,3.43-1.84,6.98-3.24,10.55-4.77,3.47-1.49,6.91-3.23,9.25-6.29.53-.69.32-1.86-.17-2.47-.59-.74-1.42-.97-2.34-.8-14.82,2.71-28.19,9.87-41.88,15.8-3.83,1.66-7.72,3.2-11.69,4.52.72,1.24,1.44,2.48,2.17,3.72,5.76-4.84,12.76-8.29,19.77-10.91,7.64-2.86,15.7-4.91,23.83-5.66,4.15-.38,8.35-.43,12.49.08-.72-.94-1.43-1.88-2.15-2.82-.13.63-.12.6-.5,1.15-.27.39-.76.88-1.21,1.28-1.06.96-2.25,1.75-3.46,2.51-2.76,1.73-5.57,3.43-8.4,5.04-7.14,4.05-14.62,7.45-21.74,11.54-7.34,4.22-14.38,9.03-21.38,13.77-7.09,4.8-14.09,9.73-21.02,14.76-7.78,5.65-15.48,11.42-23.12,17.25-1.95,1.49-.89,4.62,1.72,4.07,3.19-.67,5.99-2.65,8.54-4.59,2.65-2.01,5.18-4.14,8-5.91,7.26-4.56,14.69-8.86,22.25-12.9,15.52-8.3,31.68-15.3,47.62-22.74,7.91-3.69,15.81-8.22,24.37-10.22-.72-1.24-1.44-2.48-2.17-3.72-1.86,2.33-4.75,3.7-7.38,4.98-2.81,1.37-5.71,2.57-8.43,4.12-7.82,4.45-15.91,8.42-23.91,12.54-7.85,4.04-15.57,8.28-22.94,13.15-6.99,4.62-13.73,9.61-20.6,14.41-7.71,5.39-15.6,10.56-24.09,14.63,1.09.84,2.18,1.68,3.27,2.52,2.73-6.55,7.45-12.19,12.46-17.12,5.5-5.42,11.62-10.17,17.95-14.59,6.36-4.44,12.89-8.75,19.71-12.46,7.94-4.32,16.28-7.84,24.77-10.94,9.64-3.52,19.45-6.54,29.21-9.73-.84-1.09-1.68-2.18-2.52-3.27-1.1,2.47-3.68,3.92-5.95,5.22-2.85,1.62-5.62,3.24-8.35,5.05-7.18,4.76-14.29,9.63-21.4,14.5-6.93,4.75-13.86,9.47-20.89,14.06-6.87,4.49-13.77,8.94-20.45,13.72-7.43,5.32-14.36,11.34-22.52,15.56.9,1.17,1.8,2.33,2.7,3.5,10.88-9.66,23.79-16.74,36.65-23.41,13.76-7.14,27.5-14.33,41.38-21.25,8.32-4.14,16.7-8.16,25.19-11.95-1.12-.64-2.23-1.28-3.35-1.92.05-.39-.05.09-.11.21.22-.41-.25.34-.14.19-.13.19-.72.77-1,.99-.9.72-2.11,1.36-3.2,1.91-2.38,1.21-4.78,2.3-7.11,3.61-7.03,3.95-14.01,7.99-20.95,12.11-6.93,4.11-13.88,8.2-20.62,12.62-6.53,4.28-12.89,8.81-19.25,13.33-7.19,5.11-14.38,10.22-21.81,14.97.9,1.17,1.8,2.33,2.7,3.5,10.84-8.38,23.42-14.24,35.79-19.98,6.18-2.87,12.42-5.66,18.44-8.84,6.28-3.31,12.28-7.12,18.38-10.76,6.72-4,13.58-7.91,21-10.46-.84-1.09-1.68-2.18-2.52-3.27-.81,1.65-2.55,2.96-4.27,4.08-2.15,1.4-4.43,2.58-6.71,3.74-5.47,2.8-10.67,6.12-16.02,9.15-12.39,7.02-24.61,14.35-36.51,22.19-6.41,4.23-12.67,8.75-18.26,14.02-1.31,1.23-.38,4.02,1.57,3.8,5.4-.59,9.77-3.99,14.42-6.47,2.7-1.44,5.53-2.64,8.26-4.03,2.77-1.42,5.52-2.89,8.25-4.38,11.41-6.23,22.91-12.24,34.4-18.31,6.62-3.5,13.23-7.01,19.82-10.56-1.09-.84-2.18-1.68-3.27-2.52-.38,2.19-2.3,3.8-3.96,5.14-1.93,1.55-4.02,2.96-6.08,4.32-5.37,3.55-11.07,6.56-16.74,9.59-11.92,6.38-23.52,13.32-35.12,20.25-5.54,3.31-11.71,6.05-16.26,10.73-1.44,1.49-.28,3.61,1.57,3.8,2.49.26,4.92-.64,7.15-1.65,2.32-1.04,4.55-2.29,6.83-3.43,5.13-2.56,10.26-5.15,15.35-7.8,4.92-2.56,9.79-5.21,14.76-7.67,4.72-2.34,9.48-4.61,14.17-7.02,5.34-2.74,10.6-5.67,15.56-9.06-.9-1.17-1.8-2.33-2.7-3.5-14.18,14.48-33.59,21.67-50.41,32.4-4.85,3.1-9.52,6.51-13.78,10.39-1.68,1.53.09,4.29,2.17,3.72,8.48-2.31,16.38-6.27,24.2-10.19,3.39-1.7,6.77-3.37,10.24-4.91,3.45-1.53,6.92-3.02,10.29-4.71,3.7-1.86,7.29-3.98,10.42-6.71-1.24-.72-2.48-1.44-3.72-2.17-.43,1.04-1.48,2.43-2.43,3.43-1.23,1.29-2.6,2.44-4.04,3.48-3.16,2.29-6.57,4.23-9.99,6.12-2.93,1.63-5.8,3.36-8.73,4.99-3.55,1.97-7.17,3.82-10.64,5.94-3.74,2.28-7.48,4.88-10.03,8.5-1.19,1.7.77,3.66,2.52,3.27,13.01-2.9,21.22-14.77,33.39-19.37-.84-1.09-1.68-2.18-2.52-3.27-3.03,4.36-7.58,7.3-12.1,9.92-4.75,2.75-9.63,5.24-13.94,8.68-.94.75-.78,2.37,0,3.15.93.93,2.21.75,3.15,0,4.26-3.39,9.26-5.75,13.92-8.5,4.91-2.9,9.52-6.27,12.81-11,1.07-1.54-.73-3.95-2.52-3.27-6.22,2.35-11.46,6.41-16.75,10.34-5.07,3.76-10.37,7.63-16.64,9.02.84,1.09,1.68,2.18,2.52,3.27,1.97-2.8,5.31-4.98,8.29-6.82,3.51-2.16,7.18-4.03,10.78-6.03,2.98-1.65,5.89-3.41,8.87-5.06,3.46-1.92,6.92-3.89,10.11-6.24,3.42-2.51,6.61-5.4,8.26-9.39.37-.9-.25-2.06-1.02-2.52-.89-.52-1.95-.31-2.7.35-5.3,4.61-12.13,7.34-18.48,10.14-7.26,3.2-14.22,7-21.43,10.3-4.3,1.97-8.7,3.69-13.27,4.94.72,1.24,1.44,2.48,2.17,3.72,14.91-13.58,34.36-20.46,50.84-31.76,4.77-3.27,9.3-6.9,13.35-11.03,1.71-1.75-.55-4.97-2.7-3.5-8.63,5.91-18.13,10.38-27.5,14.98-9.79,4.81-19.35,10.06-29.1,14.95-2.61,1.31-5.22,2.61-7.82,3.95-2.2,1.13-4.6,2.39-7.15,2.13.52,1.27,1.05,2.53,1.57,3.8,3.98-4.09,9.34-6.46,14.18-9.33,6.03-3.58,12.04-7.2,18.1-10.73,5.89-3.44,11.81-6.81,17.83-10.02,5.73-3.07,11.5-6.1,16.94-9.68,2.53-1.67,5.08-3.41,7.42-5.35,2.13-1.76,4.35-4.05,4.85-6.89.33-1.89-1.46-3.49-3.27-2.52-11.44,6.16-22.94,12.23-34.45,18.25-5.58,2.92-11.13,5.88-16.65,8.91-5.46,3-10.92,5.99-16.56,8.64-2.7,1.27-5.24,2.73-7.83,4.22-2.26,1.3-4.77,2.83-7.43,3.12.52,1.27,1.05,2.53,1.57,3.8,9.92-9.35,21.85-16.18,33.31-23.41,6.29-3.97,12.72-7.68,19.2-11.34,5.55-3.14,10.94-6.63,16.62-9.53,2.53-1.3,5.08-2.58,7.46-4.13,2.24-1.46,4.65-3.23,5.86-5.68.79-1.61-.54-3.95-2.52-3.27-13.66,4.7-25.42,13.38-37.96,20.32-12.2,6.75-25.25,11.81-37.6,18.27-7,3.66-13.75,7.75-20.01,12.59-2,1.55.59,4.85,2.7,3.5,13.57-8.69,26.34-18.56,39.78-27.46,6.83-4.52,13.88-8.7,20.92-12.89,7.13-4.24,14.3-8.4,21.53-12.46,2.76-1.55,5.65-2.8,8.42-4.31,2.71-1.48,5.34-3.42,5.74-6.68.23-1.87-2.02-2.52-3.35-1.92-15.12,6.74-29.9,14.21-44.58,21.84-13.22,6.88-26.74,13.33-39.51,21.02-7.05,4.25-13.86,8.96-20.03,14.43-1.96,1.74.54,4.62,2.7,3.5,7.33-3.79,13.62-9.05,20.24-13.9,6.67-4.9,13.61-9.43,20.54-13.95,14.47-9.44,28.58-19.41,42.97-28.98,3.24-2.16,6.49-4.14,9.87-6.06,2.88-1.64,6.15-3.66,7.55-6.81.72-1.62-.49-3.93-2.52-3.27-17.74,5.8-35.77,11.11-52.41,19.73-7.22,3.74-14.08,8.17-20.78,12.77-6.6,4.53-13.04,9.38-18.87,14.88-6.23,5.88-11.82,12.61-15.14,20.57-.33.8.17,1.87.8,2.34.76.57,1.63.58,2.47.17,15.29-7.34,28.5-18.11,42.48-27.56,7.26-4.91,14.83-9.26,22.59-13.31,8.05-4.2,16.21-8.16,24.15-12.56,3.34-1.85,6.71-3.48,10.15-5.13,3.14-1.5,6.67-3.18,8.88-5.96,1.34-1.69.14-4.26-2.17-3.72-7.55,1.76-14.55,5.53-21.51,8.83-7.98,3.78-16.02,7.41-24.04,11.11-15.8,7.3-31.33,15.08-46.19,24.17-3.51,2.15-6.82,4.39-10.05,6.94-2.67,2.11-5.59,4.61-9,5.33.57,1.36,1.14,2.71,1.72,4.07,13.86-10.58,27.89-20.94,42.3-30.76,7.13-4.86,14.31-9.75,21.74-14.16,7.25-4.3,14.93-7.78,22.29-11.88,3.29-1.84,6.56-3.78,9.74-5.81,2.66-1.7,6.15-4.01,6.82-7.35.31-1.55-.65-2.64-2.15-2.82-7.99-.99-16.21,0-24.03,1.74-8.4,1.86-16.66,4.78-24.27,8.79-3.88,2.05-7.58,4.43-10.94,7.26-1.7,1.43.11,4.41,2.17,3.72,14.13-4.71,27.09-12.29,41.19-17.06,4.05-1.37,8.18-2.49,12.38-3.26-.84-1.09-1.68-2.18-2.52-3.27-1.6,2.08-4.85,3.48-7.35,4.56-2.89,1.25-5.9,2.26-8.69,3.74-8.14,4.29-16.22,8.71-24.2,13.29-7.91,4.54-15.68,9.34-23.32,14.32-3.84,2.51-7.64,5.07-11.38,7.73-3.13,2.22-6.35,4.42-9.27,6.91-2.19,1.87-4.28,3.88-6.57,5.62-1.18.9-2.42,1.74-3.75,2.41-.14.07-.28.14-.42.2.32-.14-.11.04-.17.06-.29.1-.57.17-.86.25-.35.09.27-.04-.29.02-.37.04,0,.01.1.04-.15-.03-.3-.07-.45-.12.44,1.09.89,2.18,1.33,3.27,1.57-3.33,4.12-6.07,6.78-8.58,3.01-2.84,6.27-5.39,9.63-7.81,3.29-2.37,6.68-4.57,10.02-6.86,4.43-3.04,8.76-6.21,13.11-9.36,3.28-2.38,8.11-3.58,10.27-7.27,1.05-1.8-.68-3.59-2.52-3.27-7.97,1.37-14.89,6.44-21.59,10.65-3.49,2.19-7.15,4.04-10.7,6.13-3.83,2.25-7.69,4.62-11.24,7.28-1.61,1.21-3.13,2.54-4.74,3.75-1.37,1.03-2.85,2.14-4.51,2.49.84,1.09,1.68,2.18,2.52,3.27,3.92-6.29,10.47-10.68,16.41-14.88,2.72-1.93,5.39-3.89,8.25-5.61,3.11-1.86,6.29-3.6,9.34-5.58,3.31-2.15,6.47-4.55,8.82-7.76,1.18-1.61-.77-3.78-2.52-3.27-4.14,1.21-8.14,2.87-12.03,4.73-3.73,1.78-7.51,3.62-11.05,5.75-6.37,3.83-12.05,9.58-19.29,11.73.84,1.09,1.68,2.18,2.52,3.27,1.51-2.93,4.05-5.22,6.63-7.21,2.79-2.15,5.78-4.02,8.73-5.93,6.97-4.52,13.34-9.96,20.87-13.59,2.04-.98.99-4.18-1.12-4.15-6.06.08-11.39,3.56-16.71,6.05-5.95,2.78-11.55,6.21-17.48,9.04,1.09.84,2.18,1.68,3.27,2.52-.25.64.14-.22.26-.41.1-.15.2-.29.3-.44-.19.26-.05.06.07-.08.57-.65,1.16-1.27,1.8-1.86,1.49-1.38,3.05-2.55,4.74-3.68,1.75-1.18,3.58-2.27,5.48-3.19.87-.42,1.12-.54,2.01-.85.36-.12.73-.24,1.1-.32.16-.04.33-.07.49-.1-.31.06-.31.03,0,.01,1.2-.08,2.23-.97,2.23-2.23,0-1.14-1.02-2.31-2.23-2.23h0Z"/>
  </g>
</svg>