<svg width="555" height="125" viewBox="0 0 555 125" fill="none" xmlns="http://www.w3.org/2000/svg">
<path d="M0.5 50.9741H28.4492C32.668 50.9741 36.3242 51.4194 39.418 52.3101C42.5117 53.1772 45.0781 54.4429 47.1172 56.1069C49.1562 57.771 50.668 59.7983 51.6523 62.189C52.6602 64.5796 53.1641 67.2866 53.1641 70.3101C53.1641 72.3491 52.918 74.2944 52.4258 76.146C51.9336 77.9741 51.1719 79.6616 50.1406 81.2085C49.1328 82.7554 47.8555 84.1382 46.3086 85.3569C44.7617 86.5522 42.9453 87.5483 40.8594 88.3452L52.8125 105.923H39.1719L28.8359 90.314H28.5195L11.6445 90.2788V105.923H0.5V50.9741ZM28.7305 80.646C30.8398 80.646 32.6797 80.3999 34.25 79.9077C35.8438 79.4155 37.168 78.7241 38.2227 77.8335C39.3008 76.9429 40.0977 75.8647 40.6133 74.5991C41.1523 73.3101 41.4219 71.8804 41.4219 70.3101C41.4219 67.2397 40.3672 64.8726 38.2578 63.2085C36.1484 61.521 32.9727 60.6772 28.7305 60.6772H11.6445V80.646H28.7305Z" fill="#3D4454"/>
<path d="M150.908 47.5991H161.315V105.923H150.908V47.5991Z" fill="#3D4454"/>
<path d="M187.915 47.5991H198.321V105.923H187.915V47.5991Z" fill="#3D4454"/>
<path d="M261.648 64.439H272.054V67.9546C274.82 66.3843 277.456 65.2827 279.964 64.6499C282.495 64.0171 284.968 63.7007 287.382 63.7007C290.546 63.7007 293.476 64.1694 296.171 65.1069C298.866 66.021 301.198 67.3921 303.167 69.2202C305.136 71.0483 306.671 73.3335 307.773 76.0757C308.898 78.7944 309.46 81.9468 309.46 85.5327V105.923H299.089V87.2202C299.089 84.9468 298.761 82.9194 298.105 81.1382C297.472 79.3335 296.546 77.8218 295.327 76.603C294.132 75.3608 292.667 74.4233 290.933 73.7905C289.222 73.1343 287.3 72.8062 285.167 72.8062C284.042 72.8062 282.882 72.9233 281.687 73.1577C280.515 73.3921 279.355 73.7319 278.206 74.1772C277.081 74.5991 275.991 75.1382 274.937 75.7944C273.882 76.4272 272.921 77.1538 272.054 77.9741V105.923H261.648V64.439Z" fill="#3D4454"/>
<path d="M341.721 112.955C343.033 113.423 344.369 113.81 345.729 114.115C347.088 114.443 348.401 114.701 349.666 114.888C350.955 115.099 352.186 115.24 353.358 115.31C354.53 115.404 355.573 115.451 356.487 115.451C359.252 115.451 361.655 115.111 363.694 114.431C365.756 113.775 367.467 112.884 368.826 111.759C370.209 110.634 371.24 109.322 371.92 107.822C372.6 106.345 372.94 104.775 372.94 103.111V101.318C372.049 101.927 371.006 102.513 369.811 103.076C368.615 103.638 367.303 104.13 365.873 104.552C364.444 104.974 362.92 105.314 361.303 105.572C359.709 105.83 358.057 105.958 356.346 105.958C352.948 105.958 349.807 105.455 346.924 104.447C344.041 103.416 341.545 101.986 339.436 100.158C337.326 98.3062 335.674 96.0913 334.479 93.5132C333.307 90.9351 332.721 88.0757 332.721 84.9351C332.721 81.7241 333.342 78.8179 334.584 76.2163C335.826 73.5913 337.537 71.353 339.717 69.5015C341.92 67.6499 344.522 66.2202 347.522 65.2124C350.522 64.2046 353.78 63.7007 357.295 63.7007C358.795 63.7007 360.283 63.7944 361.76 63.9819C363.237 64.1694 364.643 64.4272 365.979 64.7554C367.338 65.0835 368.604 65.4819 369.776 65.9507C370.971 66.396 372.026 66.8882 372.94 67.4272V64.439H383.346V101.177C383.346 104.951 382.772 108.291 381.623 111.197C380.475 114.103 378.787 116.541 376.561 118.509C374.358 120.501 371.615 122.001 368.334 123.009C365.053 124.041 361.291 124.556 357.049 124.556C355.526 124.556 353.944 124.486 352.303 124.345C350.662 124.228 349.01 124.041 347.346 123.783C345.705 123.548 344.076 123.255 342.459 122.904C340.865 122.576 339.33 122.189 337.854 121.744L341.721 112.955ZM343.655 84.8296C343.655 86.4937 343.983 88.064 344.639 89.5405C345.319 90.9937 346.28 92.271 347.522 93.3726C348.764 94.4507 350.264 95.3062 352.022 95.939C353.78 96.5483 355.76 96.853 357.963 96.853C359.393 96.853 360.811 96.7241 362.217 96.4663C363.647 96.1851 365.006 95.7983 366.295 95.3062C367.608 94.814 368.826 94.2163 369.951 93.5132C371.1 92.8101 372.096 92.0249 372.94 91.1577V77.4819C371.885 76.6382 370.772 75.9233 369.6 75.3374C368.428 74.7515 367.233 74.271 366.014 73.896C364.795 73.521 363.565 73.2515 362.323 73.0874C361.08 72.8999 359.873 72.8062 358.701 72.8062C356.311 72.8062 354.178 73.1226 352.303 73.7554C350.451 74.3882 348.881 75.2554 347.592 76.3569C346.326 77.4351 345.354 78.7007 344.674 80.1538C343.994 81.6069 343.655 83.1655 343.655 84.8296Z" fill="#3D4454"/>
<path d="M378.512 31.1313H395.308L418.803 88.1704L442.298 31.1313H459.094L426.315 105.923H411.29L378.512 31.1313Z" fill="#6CD3A2"/>
<path d="M448.739 77.4995C448.739 73.6714 449.52 70.0187 451.083 66.5415C452.647 63.0324 454.896 59.938 457.831 57.2583C460.765 54.5786 464.354 52.4412 468.597 50.8462C472.872 49.2511 477.721 48.4536 483.144 48.4536C488.535 48.4536 493.384 49.2671 497.691 50.894C502.029 52.4891 505.698 54.6903 508.697 57.4976C511.727 60.3048 514.04 63.6066 515.635 67.4028C517.262 71.1991 518.076 75.2664 518.076 79.605C518.076 80.1473 518.06 80.7375 518.028 81.3755C518.028 81.9816 517.996 82.5399 517.932 83.0503H464.53C465.136 84.741 466.109 86.2882 467.449 87.6919C468.82 89.0955 470.527 90.3078 472.569 91.3286C474.61 92.3494 476.971 93.147 479.651 93.7212C482.331 94.2635 485.297 94.5347 488.551 94.5347C491.805 94.5347 495.043 94.1997 498.265 93.5298C501.487 92.828 504.566 91.9507 507.5 90.8979L512.286 101.712C510.435 102.574 508.553 103.339 506.639 104.009C504.757 104.647 502.779 105.19 500.706 105.636C498.664 106.051 496.511 106.37 494.246 106.593C492.012 106.817 489.652 106.928 487.164 106.928C480.815 106.928 475.248 106.163 470.463 104.631C465.678 103.1 461.675 101.011 458.453 98.3628C455.231 95.715 452.806 92.6047 451.179 89.0317C449.552 85.4588 448.739 81.6147 448.739 77.4995ZM503.05 71.9966C502.54 70.4334 501.742 68.9819 500.658 67.6421C499.605 66.2703 498.281 65.09 496.686 64.1011C495.091 63.0802 493.241 62.2827 491.135 61.7085C489.03 61.1343 486.717 60.8472 484.197 60.8472C481.517 60.8472 479.077 61.1502 476.875 61.7563C474.674 62.3625 472.744 63.1759 471.085 64.1968C469.427 65.2176 468.039 66.3979 466.922 67.7378C465.838 69.0776 465.04 70.4972 464.53 71.9966H503.05Z" fill="#6CD3A2"/>
<path d="M527.158 60.0815H513.52V49.4585H527.158V31.897H541.322V49.4585H554.96V60.0815H541.322V105.923H527.158V60.0815Z" fill="#6CD3A2"/>
<path fill-rule="evenodd" clip-rule="evenodd" d="M235.328 105.923V64.439H224.922V105.923H235.328Z" fill="#3D4454"/>
<path d="M225.84 47.5208H213.816V39.7161H225.84V27.7981H233.996V39.7161H246.055V47.5208H233.996V60.0715H225.84V47.5208Z" fill="#6CD3A2"/>
<path d="M93.4436 81.2835C97.9013 76.1101 103.473 76.1101 103.473 76.1101C103.473 76.1101 108.134 76.1101 112.592 81.2835C117.05 86.457 118.237 90.4582 118.237 90.4582C120.453 96.0347 121.368 105.672 114.009 104.878C114.009 104.878 111.748 104.727 109.104 104.085C105.833 103.292 106.744 103.313 103.473 103.292C100.203 103.313 100.203 103.292 96.9321 104.085C94.2874 104.727 92.0262 104.878 92.0262 104.878C84.6674 105.672 85.5826 96.0348 87.799 90.4582C87.799 90.4582 88.986 86.457 93.4436 81.2835Z" fill="#6CD3A2"/>
<ellipse cx="8.40418" cy="12.006" rx="8.40418" ry="12.006" transform="matrix(-0.939693 -0.34202 -0.34202 0.939693 127.025 56.7429)" fill="#6CD3A2"/>
<ellipse cx="90.9785" cy="65.1504" rx="8.40418" ry="12.006" transform="rotate(-20 90.9785 65.1504)" fill="#6CD3A2"/>
<ellipse cx="7.20358" cy="9.60478" rx="7.20358" ry="9.60478" transform="matrix(-0.642788 -0.766044 -0.766044 0.642788 139 78.8391)" fill="#6CD3A2"/>
<ellipse cx="78.9881" cy="79.4947" rx="7.20358" ry="9.60478" transform="rotate(-50 78.9881 79.4947)" fill="#6CD3A2"/>
</svg>
