<svg xmlns="http://www.w3.org/2000/svg" width="57" height="54" viewBox="0 0 56 54"><path style="fill-rule:nonzero;fill:#6cd3a2;fill-opacity:1;stroke-width:1;stroke-linecap:butt;stroke-linejoin:miter;stroke:#6cd3a2;stroke-opacity:1;stroke-miterlimit:4" d="M40.334 122.685c-3.345 7.198-5.017 14.902-5.017 23.127 0 8.226 1.672 15.93 5.017 23.128 3.42 7.197 8.242 13.486 14.48 18.85 6.298 5.38 13.861 9.612 22.706 12.711 8.904 3.1 18.878 4.65 29.923 4.65 11.044 0 20.988-1.55 29.832-4.65 8.89-3.1 16.468-7.331 22.706-12.71 6.298-5.365 11.12-11.654 14.464-18.851 3.42-7.183 5.123-14.902 5.123-23.128 0-8.225-1.702-15.93-5.123-23.127-3.345-7.197-8.166-13.486-14.464-18.85-6.238-5.38-13.816-9.612-22.706-12.712-8.844-3.1-18.788-4.649-29.832-4.649-11.045 0-21.019 1.55-29.923 4.65-8.845 3.099-16.408 7.331-22.706 12.71-6.238 5.38-11.06 11.654-14.48 18.851Zm97.122-.283h.015c3.526 3.04 6.177 6.572 7.97 10.61v.015c1.854 4.038 2.773 8.3 2.773 12.785 0 4.486-.92 8.748-2.773 12.786v.015c-1.793 3.964-4.46 7.51-7.985 10.61-3.45 3.04-7.73 5.469-12.807 7.316-5.017 1.774-10.743 2.668-17.206 2.668-6.464 0-12.22-.894-17.297-2.668-5.033-1.832-9.297-4.276-12.822-7.316-3.466-3.1-6.118-6.646-7.97-10.61a31.287 31.287 0 0 1-2.698-12.8c0-4.486.904-8.748 2.697-12.786 1.853-4.053 4.505-7.585 7.97-10.625 3.526-3.1 7.79-5.543 12.823-7.317 5.077-1.833 10.833-2.757 17.297-2.757 6.463 0 12.189.924 17.19 2.757h.016c5.078 1.774 9.357 4.217 12.807 7.317Zm-45.954-87.04c1.702 9.67 1.01 18.79-1.477 25.72-2.501 6.944-6.735 11.578-12.038 12.517-5.319.939-10.879-1.967-15.595-7.644-4.716-5.663-8.497-13.993-10.2-23.664-1.703-9.671-.994-18.791 1.492-25.735 2.486-6.944 6.72-11.579 12.038-12.518 5.304-.924 10.878 1.982 15.594 7.645 4.701 5.662 8.483 14.007 10.186 23.679Zm-52.554 27.97c3.496 6.05 5.168 12.368 5.078 17.658-.09 5.305-1.944 9.493-5.41 11.49-3.45 1.996-8 1.505-12.64-1.059-4.626-2.578-9.252-7.182-12.747-13.232C9.733 72.124 8.046 65.82 8.136 60.53c.09-5.305 1.944-9.492 5.41-11.489 3.45-1.997 8.015-1.52 12.655 1.058 4.626 2.578 9.252 7.183 12.747 13.233Zm85.445-27.97c-1.718 9.67-1.01 18.79 1.476 25.72 2.486 6.944 6.735 11.578 12.039 12.517 5.303.939 10.878-1.967 15.594-7.644 4.701-5.663 8.483-13.993 10.185-23.664 1.703-9.671 1.01-18.791-1.476-25.735-2.486-6.944-6.735-11.579-12.039-12.518-5.318-.924-10.878 1.982-15.594 7.645-4.7 5.662-8.483 14.007-10.185 23.679Zm52.553 27.97c-3.495 6.05-5.168 12.368-5.092 17.658.09 5.305 1.943 9.493 5.409 11.49 3.465 1.996 8.015 1.505 12.656-1.059 4.626-2.578 9.251-7.182 12.747-13.232 3.495-6.065 5.168-12.369 5.077-17.659-.09-5.305-1.943-9.492-5.394-11.489-3.465-1.997-8.015-1.505-12.656 1.058-4.625 2.578-9.251 7.183-12.747 13.233Zm0 0" transform="scale(.25926 .26214)"/></svg>