<svg width="567" height="125" viewBox="0 0 567 125" fill="none" xmlns="http://www.w3.org/2000/svg">
<path d="M0.5 50.9685H29.0309C33.3375 50.9685 37.0699 51.4138 40.228 52.3044C43.3861 53.1716 46.006 54.4373 48.0875 56.1013C50.169 57.7654 51.7122 59.7927 52.717 62.1833C53.7458 64.574 54.2602 67.281 54.2602 70.3044C54.2602 72.3435 54.009 74.2888 53.5066 76.1404C53.0041 77.9685 52.2266 79.656 51.1738 81.2029C50.145 82.7498 48.8411 84.1326 47.262 85.3513C45.683 86.5466 43.8288 87.5427 41.6994 88.3396L53.9013 105.918H39.9768L29.4257 90.3083H29.1027L11.8765 90.2732V105.918H0.5V50.9685ZM29.3181 80.6404C31.4713 80.6404 33.3495 80.3943 34.9525 79.9021C36.5794 79.4099 37.9312 78.7185 39.0078 77.8279C40.1084 76.9373 40.9218 75.8591 41.4482 74.5935C41.9985 73.3044 42.2736 71.8748 42.2736 70.3044C42.2736 67.2341 41.197 64.8669 39.0437 63.2029C36.8904 61.5154 33.6485 60.6716 29.3181 60.6716H11.8765V80.6404H29.3181Z" fill="#062E32"/>
<path d="M154.039 47.5935H164.662V105.918H154.039V47.5935Z" fill="#062E32"/>
<path d="M191.816 47.5935H202.439V105.918H191.816V47.5935Z" fill="#062E32"/>
<path d="M267.083 64.4333H277.706V67.949C280.529 66.3787 283.221 65.2771 285.781 64.6443C288.365 64.0115 290.889 63.6951 293.353 63.6951C296.583 63.6951 299.574 64.1638 302.325 65.1013C305.077 66.0154 307.457 67.3865 309.467 69.2146C311.477 71.0427 313.044 73.3279 314.168 76.0701C315.317 78.7888 315.891 81.9412 315.891 85.5271V105.918H305.304V87.2146C305.304 84.9412 304.969 82.9138 304.299 81.1326C303.653 79.3279 302.708 77.8162 301.464 76.5974C300.244 75.3552 298.748 74.4177 296.978 73.7849C295.231 73.1287 293.269 72.8005 291.092 72.8005C289.944 72.8005 288.759 72.9177 287.539 73.1521C286.343 73.3865 285.159 73.7263 283.986 74.1716C282.838 74.5935 281.725 75.1326 280.649 75.7888C279.572 76.4216 278.591 77.1482 277.706 77.9685V105.918H267.083V64.4333Z" fill="#062E32"/>
<path d="M348.823 112.949C350.163 113.418 351.527 113.804 352.914 114.109C354.302 114.437 355.642 114.695 356.934 114.883C358.25 115.094 359.506 115.234 360.702 115.304C361.898 115.398 362.963 115.445 363.896 115.445C366.719 115.445 369.172 115.105 371.253 114.426C373.358 113.769 375.105 112.879 376.493 111.754C377.904 110.629 378.957 109.316 379.651 107.816C380.345 106.34 380.692 104.769 380.692 103.105V101.312C379.782 101.922 378.718 102.508 377.498 103.07C376.277 103.633 374.938 104.125 373.478 104.547C372.019 104.969 370.464 105.308 368.813 105.566C367.186 105.824 365.499 105.953 363.752 105.953C360.283 105.953 357.077 105.449 354.134 104.441C351.192 103.41 348.644 101.98 346.49 100.152C344.337 98.3005 342.65 96.0857 341.43 93.5076C340.234 90.9294 339.636 88.0701 339.636 84.9294C339.636 81.7185 340.27 78.8123 341.538 76.2107C342.806 73.5857 344.552 71.3474 346.777 69.4958C349.026 67.6443 351.682 66.2146 354.745 65.2068C357.807 64.199 361.133 63.6951 364.721 63.6951C366.253 63.6951 367.772 63.7888 369.279 63.9763C370.787 64.1638 372.222 64.4216 373.586 64.7498C374.973 65.0779 376.265 65.4763 377.462 65.9451C378.682 66.3904 379.759 66.8826 380.692 67.4216V64.4333H391.314V101.172C391.314 104.945 390.728 108.285 389.556 111.191C388.384 114.097 386.661 116.535 384.388 118.504C382.139 120.496 379.34 121.996 375.99 123.004C372.641 124.035 368.801 124.551 364.47 124.551C362.915 124.551 361.3 124.48 359.625 124.34C357.951 124.222 356.264 124.035 354.565 123.777C352.89 123.543 351.228 123.25 349.577 122.898C347.95 122.57 346.383 122.183 344.875 121.738L348.823 112.949ZM350.797 84.824C350.797 86.488 351.132 88.0583 351.802 89.5349C352.496 90.988 353.477 92.2654 354.745 93.3669C356.013 94.4451 357.544 95.3005 359.338 95.9333C361.133 96.5427 363.154 96.8474 365.403 96.8474C366.863 96.8474 368.31 96.7185 369.746 96.4607C371.205 96.1794 372.593 95.7927 373.909 95.3005C375.249 94.8083 376.493 94.2107 377.641 93.5076C378.813 92.8044 379.83 92.0193 380.692 91.1521V77.4763C379.615 76.6326 378.478 75.9177 377.282 75.3318C376.086 74.7458 374.866 74.2654 373.622 73.8904C372.378 73.5154 371.121 73.2458 369.853 73.0818C368.585 72.8943 367.353 72.8005 366.157 72.8005C363.717 72.8005 361.539 73.1169 359.625 73.7498C357.735 74.3826 356.132 75.2498 354.816 76.3513C353.524 77.4294 352.531 78.6951 351.838 80.1482C351.144 81.6013 350.797 83.1599 350.797 84.824Z" fill="#062E32"/>
<path d="M386.38 31.1257H403.525L427.509 88.1648L451.493 31.1257H468.639L435.178 105.918H419.84L386.38 31.1257Z" fill="#6CD3A2"/>
<path d="M458.068 77.4939C458.068 73.6658 458.866 70.0131 460.462 66.5359C462.057 63.0268 464.353 59.9324 467.349 57.2527C470.345 54.573 474.009 52.4356 478.34 50.8406C482.704 49.2455 487.654 48.448 493.19 48.448C498.693 48.448 503.643 49.2615 508.039 50.8884C512.468 52.4835 516.213 54.6847 519.274 57.4919C522.368 60.2992 524.729 63.601 526.357 67.3972C528.018 71.1934 528.848 75.2608 528.848 79.5994C528.848 80.1417 528.832 80.7319 528.8 81.3699C528.8 81.976 528.767 82.5343 528.702 83.0447H474.188C474.807 84.7354 475.8 86.2826 477.168 87.6863C478.568 89.0899 480.31 90.3022 482.394 91.323C484.479 92.3438 486.888 93.1414 489.624 93.7156C492.359 94.2579 495.388 94.5291 498.709 94.5291C502.031 94.5291 505.336 94.1941 508.625 93.5242C511.915 92.8223 515.057 91.9451 518.053 90.8923L522.938 101.707C521.049 102.568 519.128 103.334 517.174 104.004C515.252 104.642 513.233 105.184 511.117 105.631C509.033 106.045 506.834 106.364 504.522 106.588C502.243 106.811 499.833 106.923 497.293 106.923C490.812 106.923 485.13 106.157 480.245 104.626C475.36 103.094 471.273 101.005 467.984 98.3572C464.695 95.7094 462.22 92.599 460.559 89.0261C458.899 85.4532 458.068 81.6091 458.068 77.4939ZM513.51 71.991C512.989 70.4278 512.175 68.9763 511.068 67.6365C509.993 66.2647 508.642 65.0844 507.014 64.0955C505.385 63.0746 503.496 62.2771 501.347 61.7029C499.198 61.1287 496.837 60.8416 494.264 60.8416C491.529 60.8416 489.038 61.1446 486.791 61.7507C484.544 62.3569 482.573 63.1703 480.88 64.1912C479.187 65.212 477.77 66.3923 476.63 67.7322C475.523 69.072 474.709 70.4916 474.188 71.991H513.51Z" fill="#6CD3A2"/>
<path d="M538.12 60.0759H524.198V49.4529H538.12V31.8914H552.578V49.4529H566.5V60.0759H552.578V105.918H538.12V60.0759Z" fill="#6CD3A2"/>
<path fill-rule="evenodd" clip-rule="evenodd" d="M240.216 105.918V64.4333H229.593V105.918H240.216Z" fill="#062E32"/>
<path d="M230.179 47.5151H218.156V39.7104H230.179V27.7925H238.336V39.7104H250.394V47.5151H238.336V60.0659H230.179V47.5151Z" fill="#6CD3A2"/>
<path d="M76.3779 84.3581C76.3779 81.3746 76.9976 78.579 78.237 75.9714C79.5007 73.3638 81.2869 71.0851 83.5956 69.1352C85.9286 67.1854 88.7355 65.6467 92.0163 64.5191C95.3214 63.3914 99.0274 62.8276 103.134 62.8276C107.242 62.8276 110.935 63.3914 114.216 64.5191C117.521 65.6467 120.328 67.1854 122.637 69.1352C124.97 71.0851 126.756 73.3638 127.995 75.9714C129.259 78.579 129.891 81.3746 129.891 84.3581C129.891 87.3416 129.259 90.1371 127.995 92.7447C126.756 95.3524 124.97 97.6311 122.637 99.5809C120.328 101.531 117.521 103.069 114.216 104.197C110.935 105.325 107.242 105.889 103.134 105.889C99.0274 105.889 95.3214 105.325 92.0163 104.197C88.7355 103.069 85.9286 101.531 83.5956 99.5809C81.2869 97.6311 79.5007 95.3524 78.237 92.7447C76.9976 90.1371 76.3779 87.3416 76.3779 84.3581ZM87.7148 84.3581C87.7148 86.026 88.0551 87.6117 88.7355 89.1152C89.4403 90.5952 90.4488 91.9108 91.7611 93.0619C93.0977 94.1895 94.7138 95.0939 96.6094 95.7752C98.5292 96.433 100.704 96.7619 103.134 96.7619C105.565 96.7619 107.728 96.433 109.623 95.7752C111.543 95.0939 113.159 94.1895 114.471 93.0619C115.808 91.9108 116.817 90.5952 117.497 89.1152C118.202 87.6117 118.554 86.026 118.554 84.3581C118.554 82.6902 118.202 81.1044 117.497 79.601C116.817 78.0975 115.808 76.7819 114.471 75.6543C113.159 74.5032 111.543 73.5987 109.623 72.941C107.728 72.2597 105.565 71.9191 103.134 71.9191C100.704 71.9191 98.5292 72.2597 96.6094 72.941C94.7138 73.5987 93.0977 74.5032 91.7611 75.6543C90.4488 76.7819 89.4403 78.0975 88.7355 79.601C88.0551 81.1044 87.7148 82.6902 87.7148 84.3581Z" fill="#6CD3A2"/>
<ellipse cx="7.63674" cy="13.1138" rx="7.63674" ry="13.1138" transform="matrix(0.985408 -0.170211 0.17715 0.984184 79.9907 37.5996)" fill="#6CD3A2"/>
<ellipse cx="5.70454" cy="9.41016" rx="5.70454" ry="9.41016" transform="matrix(0.870428 -0.492295 0.507744 0.861508 63 55.5942)" fill="#6CD3A2"/>
<ellipse cx="7.63674" cy="13.1138" rx="7.63674" ry="13.1138" transform="matrix(-0.985408 -0.170211 -0.17715 0.984184 126.654 37.5996)" fill="#6CD3A2"/>
<ellipse cx="5.70454" cy="9.41016" rx="5.70454" ry="9.41016" transform="matrix(-0.870428 -0.492295 -0.507744 0.861508 143.644 55.5942)" fill="#6CD3A2"/>
</svg>
